M48
; DRILL file {KiCad (5.1.10)-1} date 09/15/21 08:26:35
; FORMAT={-:-/ absolute / inch / decimal}
; #@! TF.CreationDate,2021-09-15T08:26:35+02:00
; #@! TF.GenerationSoftware,Kicad,Pcbnew,(5.1.10)-1
FMAT,2
INCH
T1C0.0157
T2C0.0433
T3C0.0472
T4C0.0591
T5C0.0669
T6C0.0669
T7C0.1260
T8C0.1378
T9C0.1575
%
G90
G05
T1
X3.4Y-3.74
X3.4Y-4.08
X3.44Y-3.46
X3.46Y-4.44
X3.54Y-3.14
X3.5725Y-3.4675
X3.5875Y-3.6725
X3.6Y-4.05
X3.6Y-4.3
X3.6Y-4.84
X3.74Y-2.76
X3.7402Y-2.9528
X3.7475Y-3.5475
X3.75Y-3.39
X3.78Y-5.14
X3.8325Y-4.995
X3.85Y-4.3
X3.85Y-4.6
X3.85Y-4.85
X3.96Y-2.72
X4.0Y-5.38
X4.04Y-2.42
X4.075Y-3.67
X4.0825Y-4.0125
X4.1Y-4.6
X4.1Y-5.1
X4.15Y-3.55
X4.1725Y-3.0275
X4.1875Y-3.27
X4.22Y-5.6
X4.245Y-3.4625
X4.25Y-2.45
X4.2725Y-2.8725
X4.295Y-4.1225
X4.36Y-2.16
X4.38Y-2.545
X4.48Y-5.76
X4.5Y-3.7
X4.5Y-4.0
X4.5Y-5.0
X4.5025Y-3.4475
X4.55Y-2.9
X4.555Y-5.255
X4.65Y-3.0
X4.65Y-4.05
X4.65Y-4.05
X4.6825Y-5.14
X4.7Y-3.55
X4.7449Y-3.7949
X4.7775Y-4.3325
X4.78Y-5.9
X4.7975Y-4.0375
X4.8Y-1.94
X4.8Y-2.15
X4.8Y-3.25
X4.8275Y-3.805
X4.85Y-3.55
X4.8925Y-4.255
X4.9Y-2.75
X4.9Y-4.7
X4.95Y-3.4
X5.05Y-4.75
X5.05Y-5.55
X5.0625Y-3.785
X5.0625Y-4.0075
X5.1126Y-3.9374
X5.18Y-1.84
X5.2Y-2.45
X5.2Y-2.95
X5.2Y-4.4
X5.24Y-6.02
X5.25Y-3.6
X5.25Y-4.15
X5.35Y-4.3
X5.4Y-3.25
X5.4Y-3.6
X5.4Y-4.05
X5.4475Y-2.445
X5.5Y-2.75
X5.5Y-4.7
X5.545Y-2.945
X5.55Y-4.3
X5.55Y-4.75
X5.64Y-1.82
X5.72Y-6.04
X5.79Y-2.5775
X5.79Y-2.73
X5.85Y-2.9
X5.85Y-3.15
X5.85Y-3.4
X5.85Y-3.65
X5.85Y-3.9
X5.85Y-4.2
X5.95Y-2.2
X5.95Y-5.7
X6.08Y-1.9
X6.1225Y-2.725
X6.1275Y-2.0525
X6.15Y-2.9
X6.15Y-3.15
X6.15Y-3.4
X6.15Y-3.65
X6.15Y-3.9
X6.15Y-4.2
X6.25Y-2.5
X6.26Y-5.92
X6.35Y-5.75
X6.45Y-2.9
X6.45Y-3.15
X6.45Y-3.4
X6.45Y-3.65
X6.45Y-3.9
X6.45Y-4.2
X6.5125Y-2.73
X6.54Y-2.08
X6.72Y-5.68
X6.75Y-2.95
X6.7825Y-2.425
X6.8Y-4.6
X6.8Y-4.8
X6.85Y-2.8
X6.85Y-3.05
X6.8504Y-2.9134
X6.8735Y-5.386
X6.9Y-3.83
X6.92Y-2.36
X6.95Y-2.9
X7.0Y-3.2
X7.05Y-4.35
X7.05Y-4.8
X7.08Y-5.36
X7.15Y-3.35
X7.18Y-5.0275
X7.2Y-3.5
X7.2Y-3.65
X7.25Y-4.5
X7.28Y-2.78
X7.3Y-3.5
X7.3Y-3.65
X7.34Y-5.0
X7.4Y-3.5
X7.4Y-3.65
X7.4Y-3.9
X7.4Y-4.2
X7.4Y-4.5
X7.48Y-3.16
X7.5Y-4.66
X7.6Y-3.62
X7.62Y-4.08
T2
X5.65Y-2.9
X5.65Y-3.0
X5.65Y-3.1
X5.65Y-3.2
X5.65Y-3.3
X5.65Y-3.4
X5.65Y-3.5
X5.65Y-3.6
X5.65Y-3.7
X5.65Y-3.8
X5.65Y-3.9
X5.65Y-4.0
X5.65Y-4.1
X5.65Y-4.2
X5.65Y-4.3
X5.65Y-4.4
X5.65Y-4.5
X5.65Y-4.6
X5.65Y-4.7
X6.65Y-2.9
X6.65Y-3.0
X6.65Y-3.1
X6.65Y-3.2
X6.65Y-3.3
X6.65Y-3.4
X6.65Y-3.5
X6.65Y-3.6
X6.65Y-3.7
X6.65Y-3.8
X6.65Y-3.9
X6.65Y-4.0
X6.65Y-4.1
X6.65Y-4.2
X6.65Y-4.3
X6.65Y-4.4
X6.65Y-4.5
X6.65Y-4.6
X6.65Y-4.7
T3
X4.4Y-2.95
X4.4Y-3.15
X4.4Y-3.35
X4.4Y-3.55
X4.4Y-3.7461
X4.4Y-4.25
X4.75Y-4.55
X4.95Y-4.55
X5.5Y-3.6
X6.6Y-5.45
T4
X3.65Y-3.85
X3.75Y-4.1
X5.35Y-2.2
X5.4Y-5.8
X5.6Y-2.1
X5.65Y-5.7
X7.25Y-3.8
X7.35Y-4.05
T5
X3.95Y-2.95
X3.95Y-3.135
X3.95Y-3.3201
T6
X3.85Y-3.75
X3.85Y-4.15
X5.3Y-2.3
X5.3Y-5.6
X5.7Y-2.3
X5.7Y-5.6
X7.15Y-3.75
X7.15Y-4.15
T7
X4.7244Y-2.3622
X4.7244Y-5.5118
X6.2992Y-2.3622
X6.2992Y-5.5118
T8
X5.4512Y-3.0689
X5.4512Y-4.25
T9
X3.85Y-3.95
X5.5Y-2.3
X5.5Y-5.6
X7.15Y-3.95
T0
M30
