%TF.GenerationSoftware,KiCad,Pcbnew,(5.1.10)-1*%
%TF.CreationDate,2021-09-15T08:26:03+02:00*%
%TF.ProjectId,Light_trainer,4c696768-745f-4747-9261-696e65722e6b,rev?*%
%TF.SameCoordinates,Original*%
%TF.FileFunction,Legend,Bot*%
%TF.FilePolarity,Positive*%
%FSLAX46Y46*%
G04 Gerber Fmt 4.6, Leading zero omitted, Abs format (unit mm)*
G04 Created by KiCad (PCBNEW (5.1.10)-1) date 2021-09-15 08:26:03*
%MOMM*%
%LPD*%
G01*
G04 APERTURE LIST*
%ADD10C,0.150000*%
%ADD11C,0.300000*%
%ADD12C,0.200000*%
%ADD13C,0.120000*%
G04 APERTURE END LIST*
D10*
X110458333Y-127547666D02*
X110934523Y-127547666D01*
X110363095Y-127833380D02*
X110696428Y-126833380D01*
X111029761Y-127833380D01*
X111315476Y-127547666D02*
X111791666Y-127547666D01*
X111220238Y-127833380D02*
X111553571Y-126833380D01*
X111886904Y-127833380D01*
X110458333Y-124499666D02*
X110934523Y-124499666D01*
X110363095Y-124785380D02*
X110696428Y-123785380D01*
X111029761Y-124785380D01*
X111315476Y-124499666D02*
X111791666Y-124499666D01*
X111220238Y-124785380D02*
X111553571Y-123785380D01*
X111886904Y-124785380D01*
X110458333Y-121451666D02*
X110934523Y-121451666D01*
X110363095Y-121737380D02*
X110696428Y-120737380D01*
X111029761Y-121737380D01*
X111315476Y-121451666D02*
X111791666Y-121451666D01*
X111220238Y-121737380D02*
X111553571Y-120737380D01*
X111886904Y-121737380D01*
X106299000Y-125857000D02*
X106299000Y-126619000D01*
X107188000Y-128651000D02*
X115316000Y-128651000D01*
X107188000Y-126619000D02*
X106680000Y-126619000D01*
X106680000Y-128143000D02*
X107188000Y-128143000D01*
X107188000Y-126111000D02*
X107188000Y-128651000D01*
X106680000Y-126619000D02*
X106680000Y-128143000D01*
X105918000Y-126238000D02*
X106680000Y-126238000D01*
X115316000Y-128651000D02*
X115316000Y-126111000D01*
X115316000Y-126111000D02*
X107188000Y-126111000D01*
X106680000Y-120523000D02*
X106680000Y-122047000D01*
X105918000Y-120142000D02*
X106680000Y-120142000D01*
X107188000Y-122555000D02*
X115316000Y-122555000D01*
X107188000Y-120523000D02*
X106680000Y-120523000D01*
X106680000Y-122047000D02*
X107188000Y-122047000D01*
X106299000Y-119761000D02*
X106299000Y-120523000D01*
X107188000Y-120015000D02*
X107188000Y-122555000D01*
X115316000Y-120015000D02*
X107188000Y-120015000D01*
X115316000Y-122555000D02*
X115316000Y-120015000D01*
X116586000Y-123190000D02*
X115824000Y-123190000D01*
X107188000Y-125603000D02*
X115316000Y-125603000D01*
X107188000Y-123063000D02*
X107188000Y-125603000D01*
X115316000Y-125095000D02*
X115824000Y-125095000D01*
X116205000Y-123571000D02*
X116205000Y-122809000D01*
X115824000Y-125095000D02*
X115824000Y-123571000D01*
X115316000Y-123063000D02*
X107188000Y-123063000D01*
X115824000Y-123571000D02*
X115316000Y-123571000D01*
X115316000Y-125603000D02*
X115316000Y-123063000D01*
D11*
X104588571Y-74303571D02*
X104588571Y-74589285D01*
X104660000Y-74732142D01*
X104802857Y-74875000D01*
X105088571Y-74946428D01*
X105588571Y-74946428D01*
X105874285Y-74875000D01*
X106017142Y-74732142D01*
X106088571Y-74589285D01*
X106088571Y-74303571D01*
X106017142Y-74160714D01*
X105874285Y-74017857D01*
X105588571Y-73946428D01*
X105088571Y-73946428D01*
X104802857Y-74017857D01*
X104660000Y-74160714D01*
X104588571Y-74303571D01*
X106088571Y-75589285D02*
X104588571Y-75589285D01*
X106088571Y-76446428D01*
X104588571Y-76446428D01*
X105517142Y-78303571D02*
X105517142Y-79446428D01*
X104588571Y-81589285D02*
X104588571Y-81875000D01*
X104660000Y-82017857D01*
X104802857Y-82160714D01*
X105088571Y-82232142D01*
X105588571Y-82232142D01*
X105874285Y-82160714D01*
X106017142Y-82017857D01*
X106088571Y-81875000D01*
X106088571Y-81589285D01*
X106017142Y-81446428D01*
X105874285Y-81303571D01*
X105588571Y-81232142D01*
X105088571Y-81232142D01*
X104802857Y-81303571D01*
X104660000Y-81446428D01*
X104588571Y-81589285D01*
X105302857Y-83375000D02*
X105302857Y-82875000D01*
X106088571Y-82875000D02*
X104588571Y-82875000D01*
X104588571Y-83589285D01*
X105302857Y-84660714D02*
X105302857Y-84160714D01*
X106088571Y-84160714D02*
X104588571Y-84160714D01*
X104588571Y-84875000D01*
D12*
X137873285Y-127872476D02*
X137968523Y-127824857D01*
X138159000Y-127824857D01*
X138254238Y-127872476D01*
X138349476Y-127967714D01*
X138397095Y-128062952D01*
X138397095Y-128253428D01*
X138349476Y-128348666D01*
X138254238Y-128443904D01*
X138159000Y-128491523D01*
X137968523Y-128491523D01*
X137873285Y-128443904D01*
X138063761Y-127491523D02*
X138301857Y-127539142D01*
X138539952Y-127682000D01*
X138682809Y-127920095D01*
X138730428Y-128158190D01*
X138682809Y-128396285D01*
X138539952Y-128634380D01*
X138301857Y-128777238D01*
X138063761Y-128824857D01*
X137825666Y-128777238D01*
X137587571Y-128634380D01*
X137444714Y-128396285D01*
X137397095Y-128158190D01*
X137444714Y-127920095D01*
X137587571Y-127682000D01*
X137825666Y-127539142D01*
X138063761Y-127491523D01*
X136397095Y-128634380D02*
X136730428Y-128158190D01*
X136968523Y-128634380D02*
X136968523Y-127634380D01*
X136587571Y-127634380D01*
X136492333Y-127682000D01*
X136444714Y-127729619D01*
X136397095Y-127824857D01*
X136397095Y-127967714D01*
X136444714Y-128062952D01*
X136492333Y-128110571D01*
X136587571Y-128158190D01*
X136968523Y-128158190D01*
X135825666Y-128634380D02*
X135920904Y-128586761D01*
X135968523Y-128539142D01*
X136016142Y-128443904D01*
X136016142Y-128158190D01*
X135968523Y-128062952D01*
X135920904Y-128015333D01*
X135825666Y-127967714D01*
X135682809Y-127967714D01*
X135587571Y-128015333D01*
X135539952Y-128062952D01*
X135492333Y-128158190D01*
X135492333Y-128443904D01*
X135539952Y-128539142D01*
X135587571Y-128586761D01*
X135682809Y-128634380D01*
X135825666Y-128634380D01*
X135063761Y-128634380D02*
X135063761Y-127634380D01*
X135063761Y-128015333D02*
X134968523Y-127967714D01*
X134778047Y-127967714D01*
X134682809Y-128015333D01*
X134635190Y-128062952D01*
X134587571Y-128158190D01*
X134587571Y-128443904D01*
X134635190Y-128539142D01*
X134682809Y-128586761D01*
X134778047Y-128634380D01*
X134968523Y-128634380D01*
X135063761Y-128586761D01*
X134159000Y-128634380D02*
X134159000Y-127967714D01*
X134159000Y-127634380D02*
X134206619Y-127682000D01*
X134159000Y-127729619D01*
X134111380Y-127682000D01*
X134159000Y-127634380D01*
X134159000Y-127729619D01*
X133682809Y-127967714D02*
X133682809Y-128634380D01*
X133682809Y-128062952D02*
X133635190Y-128015333D01*
X133539952Y-127967714D01*
X133397095Y-127967714D01*
X133301857Y-128015333D01*
X133254238Y-128110571D01*
X133254238Y-128634380D01*
X131682809Y-128110571D02*
X132016142Y-128110571D01*
X132016142Y-128634380D02*
X132016142Y-127634380D01*
X131539952Y-127634380D01*
X131016142Y-128634380D02*
X131111380Y-128586761D01*
X131159000Y-128539142D01*
X131206619Y-128443904D01*
X131206619Y-128158190D01*
X131159000Y-128062952D01*
X131111380Y-128015333D01*
X131016142Y-127967714D01*
X130873285Y-127967714D01*
X130778047Y-128015333D01*
X130730428Y-128062952D01*
X130682809Y-128158190D01*
X130682809Y-128443904D01*
X130730428Y-128539142D01*
X130778047Y-128586761D01*
X130873285Y-128634380D01*
X131016142Y-128634380D01*
X130254238Y-128634380D02*
X130254238Y-127967714D01*
X130254238Y-128158190D02*
X130206619Y-128062952D01*
X130159000Y-128015333D01*
X130063761Y-127967714D01*
X129968523Y-127967714D01*
X129254238Y-128586761D02*
X129349476Y-128634380D01*
X129539952Y-128634380D01*
X129635190Y-128586761D01*
X129682809Y-128491523D01*
X129682809Y-128110571D01*
X129635190Y-128015333D01*
X129539952Y-127967714D01*
X129349476Y-127967714D01*
X129254238Y-128015333D01*
X129206619Y-128110571D01*
X129206619Y-128205809D01*
X129682809Y-128301047D01*
X128825666Y-128586761D02*
X128730428Y-128634380D01*
X128539952Y-128634380D01*
X128444714Y-128586761D01*
X128397095Y-128491523D01*
X128397095Y-128443904D01*
X128444714Y-128348666D01*
X128539952Y-128301047D01*
X128682809Y-128301047D01*
X128778047Y-128253428D01*
X128825666Y-128158190D01*
X128825666Y-128110571D01*
X128778047Y-128015333D01*
X128682809Y-127967714D01*
X128539952Y-127967714D01*
X128444714Y-128015333D01*
X128111380Y-127967714D02*
X127730428Y-127967714D01*
X127968523Y-127634380D02*
X127968523Y-128491523D01*
X127920904Y-128586761D01*
X127825666Y-128634380D01*
X127730428Y-128634380D01*
X127397095Y-128634380D02*
X127397095Y-127967714D01*
X127397095Y-127634380D02*
X127444714Y-127682000D01*
X127397095Y-127729619D01*
X127349476Y-127682000D01*
X127397095Y-127634380D01*
X127397095Y-127729619D01*
X126539952Y-128586761D02*
X126635190Y-128634380D01*
X126825666Y-128634380D01*
X126920904Y-128586761D01*
X126968523Y-128491523D01*
X126968523Y-128110571D01*
X126920904Y-128015333D01*
X126825666Y-127967714D01*
X126635190Y-127967714D01*
X126539952Y-128015333D01*
X126492333Y-128110571D01*
X126492333Y-128205809D01*
X126968523Y-128301047D01*
X126063761Y-128634380D02*
X126063761Y-127967714D01*
X126063761Y-128158190D02*
X126016142Y-128062952D01*
X125968523Y-128015333D01*
X125873285Y-127967714D01*
X125778047Y-127967714D01*
X124444714Y-128967714D02*
X124444714Y-127539142D01*
X123016142Y-127729619D02*
X122968523Y-127682000D01*
X122873285Y-127634380D01*
X122635190Y-127634380D01*
X122539952Y-127682000D01*
X122492333Y-127729619D01*
X122444714Y-127824857D01*
X122444714Y-127920095D01*
X122492333Y-128062952D01*
X123063761Y-128634380D01*
X122444714Y-128634380D01*
X121825666Y-127634380D02*
X121730428Y-127634380D01*
X121635190Y-127682000D01*
X121587571Y-127729619D01*
X121539952Y-127824857D01*
X121492333Y-128015333D01*
X121492333Y-128253428D01*
X121539952Y-128443904D01*
X121587571Y-128539142D01*
X121635190Y-128586761D01*
X121730428Y-128634380D01*
X121825666Y-128634380D01*
X121920904Y-128586761D01*
X121968523Y-128539142D01*
X122016142Y-128443904D01*
X122063761Y-128253428D01*
X122063761Y-128015333D01*
X122016142Y-127824857D01*
X121968523Y-127729619D01*
X121920904Y-127682000D01*
X121825666Y-127634380D01*
X121111380Y-127729619D02*
X121063761Y-127682000D01*
X120968523Y-127634380D01*
X120730428Y-127634380D01*
X120635190Y-127682000D01*
X120587571Y-127729619D01*
X120539952Y-127824857D01*
X120539952Y-127920095D01*
X120587571Y-128062952D01*
X121159000Y-128634380D01*
X120539952Y-128634380D01*
X119587571Y-128634380D02*
X120159000Y-128634380D01*
X119873285Y-128634380D02*
X119873285Y-127634380D01*
X119968523Y-127777238D01*
X120063761Y-127872476D01*
X120159000Y-127920095D01*
X134516142Y-130334380D02*
X134992333Y-130334380D01*
X134992333Y-129334380D01*
X134182809Y-130334380D02*
X134182809Y-129667714D01*
X134182809Y-129334380D02*
X134230428Y-129382000D01*
X134182809Y-129429619D01*
X134135190Y-129382000D01*
X134182809Y-129334380D01*
X134182809Y-129429619D01*
X133278047Y-129667714D02*
X133278047Y-130477238D01*
X133325666Y-130572476D01*
X133373285Y-130620095D01*
X133468523Y-130667714D01*
X133611380Y-130667714D01*
X133706619Y-130620095D01*
X133278047Y-130286761D02*
X133373285Y-130334380D01*
X133563761Y-130334380D01*
X133659000Y-130286761D01*
X133706619Y-130239142D01*
X133754238Y-130143904D01*
X133754238Y-129858190D01*
X133706619Y-129762952D01*
X133659000Y-129715333D01*
X133563761Y-129667714D01*
X133373285Y-129667714D01*
X133278047Y-129715333D01*
X132801857Y-130334380D02*
X132801857Y-129334380D01*
X132373285Y-130334380D02*
X132373285Y-129810571D01*
X132420904Y-129715333D01*
X132516142Y-129667714D01*
X132659000Y-129667714D01*
X132754238Y-129715333D01*
X132801857Y-129762952D01*
X132039952Y-129667714D02*
X131659000Y-129667714D01*
X131897095Y-129334380D02*
X131897095Y-130191523D01*
X131849476Y-130286761D01*
X131754238Y-130334380D01*
X131659000Y-130334380D01*
X130706619Y-129334380D02*
X130135190Y-129334380D01*
X130420904Y-130334380D02*
X130420904Y-129334380D01*
X129801857Y-130334380D02*
X129801857Y-129667714D01*
X129801857Y-129858190D02*
X129754238Y-129762952D01*
X129706619Y-129715333D01*
X129611380Y-129667714D01*
X129516142Y-129667714D01*
X128754238Y-130334380D02*
X128754238Y-129810571D01*
X128801857Y-129715333D01*
X128897095Y-129667714D01*
X129087571Y-129667714D01*
X129182809Y-129715333D01*
X128754238Y-130286761D02*
X128849476Y-130334380D01*
X129087571Y-130334380D01*
X129182809Y-130286761D01*
X129230428Y-130191523D01*
X129230428Y-130096285D01*
X129182809Y-130001047D01*
X129087571Y-129953428D01*
X128849476Y-129953428D01*
X128754238Y-129905809D01*
X128278047Y-130334380D02*
X128278047Y-129667714D01*
X128278047Y-129334380D02*
X128325666Y-129382000D01*
X128278047Y-129429619D01*
X128230428Y-129382000D01*
X128278047Y-129334380D01*
X128278047Y-129429619D01*
X127801857Y-129667714D02*
X127801857Y-130334380D01*
X127801857Y-129762952D02*
X127754238Y-129715333D01*
X127659000Y-129667714D01*
X127516142Y-129667714D01*
X127420904Y-129715333D01*
X127373285Y-129810571D01*
X127373285Y-130334380D01*
X126516142Y-130286761D02*
X126611380Y-130334380D01*
X126801857Y-130334380D01*
X126897095Y-130286761D01*
X126944714Y-130191523D01*
X126944714Y-129810571D01*
X126897095Y-129715333D01*
X126801857Y-129667714D01*
X126611380Y-129667714D01*
X126516142Y-129715333D01*
X126468523Y-129810571D01*
X126468523Y-129905809D01*
X126944714Y-130001047D01*
X126039952Y-130334380D02*
X126039952Y-129667714D01*
X126039952Y-129858190D02*
X125992333Y-129762952D01*
X125944714Y-129715333D01*
X125849476Y-129667714D01*
X125754238Y-129667714D01*
X124801857Y-129334380D02*
X124468523Y-130334380D01*
X124135190Y-129334380D01*
X123278047Y-130334380D02*
X123849476Y-130334380D01*
X123563761Y-130334380D02*
X123563761Y-129334380D01*
X123659000Y-129477238D01*
X123754238Y-129572476D01*
X123849476Y-129620095D01*
D13*
%TO.C,BT1*%
X108960000Y-114600000D02*
X108960000Y-117600000D01*
X108960000Y-117600000D02*
X111960000Y-117600000D01*
X109340000Y-68680000D02*
X167580000Y-68680000D01*
X109340000Y-117220000D02*
X109340000Y-68680000D01*
%TO.C,SW5*%
X96520000Y-86360000D02*
X103830000Y-86360000D01*
X96520000Y-73152000D02*
X96520000Y-86360000D01*
X103830000Y-73152000D02*
X96520000Y-73152000D01*
X103830000Y-73152000D02*
X103830000Y-86360000D01*
%TO.C,BT1*%
D10*
X112745714Y-118228571D02*
X112602857Y-118276190D01*
X112555238Y-118323809D01*
X112507619Y-118419047D01*
X112507619Y-118561904D01*
X112555238Y-118657142D01*
X112602857Y-118704761D01*
X112698095Y-118752380D01*
X113079047Y-118752380D01*
X113079047Y-117752380D01*
X112745714Y-117752380D01*
X112650476Y-117800000D01*
X112602857Y-117847619D01*
X112555238Y-117942857D01*
X112555238Y-118038095D01*
X112602857Y-118133333D01*
X112650476Y-118180952D01*
X112745714Y-118228571D01*
X113079047Y-118228571D01*
X112221904Y-117752380D02*
X111650476Y-117752380D01*
X111936190Y-118752380D02*
X111936190Y-117752380D01*
X110793333Y-118752380D02*
X111364761Y-118752380D01*
X111079047Y-118752380D02*
X111079047Y-117752380D01*
X111174285Y-117895238D01*
X111269523Y-117990476D01*
X111364761Y-118038095D01*
X108402857Y-108164285D02*
X106117142Y-108164285D01*
X107260000Y-109307142D02*
X107260000Y-107021428D01*
%TO.C,SW5*%
X96162761Y-73850666D02*
X96210380Y-73993523D01*
X96210380Y-74231619D01*
X96162761Y-74326857D01*
X96115142Y-74374476D01*
X96019904Y-74422095D01*
X95924666Y-74422095D01*
X95829428Y-74374476D01*
X95781809Y-74326857D01*
X95734190Y-74231619D01*
X95686571Y-74041142D01*
X95638952Y-73945904D01*
X95591333Y-73898285D01*
X95496095Y-73850666D01*
X95400857Y-73850666D01*
X95305619Y-73898285D01*
X95258000Y-73945904D01*
X95210380Y-74041142D01*
X95210380Y-74279238D01*
X95258000Y-74422095D01*
X95210380Y-74755428D02*
X96210380Y-74993523D01*
X95496095Y-75184000D01*
X96210380Y-75374476D01*
X95210380Y-75612571D01*
X95210380Y-76469714D02*
X95210380Y-75993523D01*
X95686571Y-75945904D01*
X95638952Y-75993523D01*
X95591333Y-76088761D01*
X95591333Y-76326857D01*
X95638952Y-76422095D01*
X95686571Y-76469714D01*
X95781809Y-76517333D01*
X96019904Y-76517333D01*
X96115142Y-76469714D01*
X96162761Y-76422095D01*
X96210380Y-76326857D01*
X96210380Y-76088761D01*
X96162761Y-75993523D01*
X96115142Y-75945904D01*
%TD*%
M02*
