%TF.GenerationSoftware,KiCad,Pcbnew,(5.1.10)-1*%
%TF.CreationDate,2021-09-15T08:26:03+02:00*%
%TF.ProjectId,Light_trainer,4c696768-745f-4747-9261-696e65722e6b,rev?*%
%TF.SameCoordinates,Original*%
%TF.FileFunction,Paste,Top*%
%TF.FilePolarity,Positive*%
%FSLAX46Y46*%
G04 Gerber Fmt 4.6, Leading zero omitted, Abs format (unit mm)*
G04 Created by KiCad (PCBNEW (5.1.10)-1) date 2021-09-15 08:26:03*
%MOMM*%
%LPD*%
G01*
G04 APERTURE LIST*
%ADD10R,0.650000X0.400000*%
%ADD11R,1.500000X1.000000*%
G04 APERTURE END LIST*
%TO.C,R1*%
G36*
G01*
X116214999Y-89800000D02*
X117465001Y-89800000D01*
G75*
G02*
X117715000Y-90049999I0J-249999D01*
G01*
X117715000Y-90675001D01*
G75*
G02*
X117465001Y-90925000I-249999J0D01*
G01*
X116214999Y-90925000D01*
G75*
G02*
X115965000Y-90675001I0J249999D01*
G01*
X115965000Y-90049999D01*
G75*
G02*
X116214999Y-89800000I249999J0D01*
G01*
G37*
G36*
G01*
X116214999Y-86875000D02*
X117465001Y-86875000D01*
G75*
G02*
X117715000Y-87124999I0J-249999D01*
G01*
X117715000Y-87750001D01*
G75*
G02*
X117465001Y-88000000I-249999J0D01*
G01*
X116214999Y-88000000D01*
G75*
G02*
X115965000Y-87750001I0J249999D01*
G01*
X115965000Y-87124999D01*
G75*
G02*
X116214999Y-86875000I249999J0D01*
G01*
G37*
%TD*%
D10*
%TO.C,U1*%
X122870000Y-98410000D03*
X122870000Y-99710000D03*
X120970000Y-99060000D03*
X122870000Y-99060000D03*
X120970000Y-99710000D03*
X120970000Y-98410000D03*
%TD*%
%TO.C,L1*%
G36*
G01*
X122695000Y-95055000D02*
X122695000Y-92905000D01*
G75*
G02*
X122945000Y-92655000I250000J0D01*
G01*
X123695000Y-92655000D01*
G75*
G02*
X123945000Y-92905000I0J-250000D01*
G01*
X123945000Y-95055000D01*
G75*
G02*
X123695000Y-95305000I-250000J0D01*
G01*
X122945000Y-95305000D01*
G75*
G02*
X122695000Y-95055000I0J250000D01*
G01*
G37*
G36*
G01*
X119895000Y-95055000D02*
X119895000Y-92905000D01*
G75*
G02*
X120145000Y-92655000I250000J0D01*
G01*
X120895000Y-92655000D01*
G75*
G02*
X121145000Y-92905000I0J-250000D01*
G01*
X121145000Y-95055000D01*
G75*
G02*
X120895000Y-95305000I-250000J0D01*
G01*
X120145000Y-95305000D01*
G75*
G02*
X119895000Y-95055000I0J250000D01*
G01*
G37*
%TD*%
%TO.C,C2*%
G36*
G01*
X127475000Y-98610000D02*
X126525000Y-98610000D01*
G75*
G02*
X126275000Y-98360000I0J250000D01*
G01*
X126275000Y-97860000D01*
G75*
G02*
X126525000Y-97610000I250000J0D01*
G01*
X127475000Y-97610000D01*
G75*
G02*
X127725000Y-97860000I0J-250000D01*
G01*
X127725000Y-98360000D01*
G75*
G02*
X127475000Y-98610000I-250000J0D01*
G01*
G37*
G36*
G01*
X127475000Y-100510000D02*
X126525000Y-100510000D01*
G75*
G02*
X126275000Y-100260000I0J250000D01*
G01*
X126275000Y-99760000D01*
G75*
G02*
X126525000Y-99510000I250000J0D01*
G01*
X127475000Y-99510000D01*
G75*
G02*
X127725000Y-99760000I0J-250000D01*
G01*
X127725000Y-100260000D01*
G75*
G02*
X127475000Y-100510000I-250000J0D01*
G01*
G37*
%TD*%
%TO.C,C1*%
G36*
G01*
X118585000Y-98610000D02*
X117635000Y-98610000D01*
G75*
G02*
X117385000Y-98360000I0J250000D01*
G01*
X117385000Y-97860000D01*
G75*
G02*
X117635000Y-97610000I250000J0D01*
G01*
X118585000Y-97610000D01*
G75*
G02*
X118835000Y-97860000I0J-250000D01*
G01*
X118835000Y-98360000D01*
G75*
G02*
X118585000Y-98610000I-250000J0D01*
G01*
G37*
G36*
G01*
X118585000Y-100510000D02*
X117635000Y-100510000D01*
G75*
G02*
X117385000Y-100260000I0J250000D01*
G01*
X117385000Y-99760000D01*
G75*
G02*
X117635000Y-99510000I250000J0D01*
G01*
X118585000Y-99510000D01*
G75*
G02*
X118835000Y-99760000I0J-250000D01*
G01*
X118835000Y-100260000D01*
G75*
G02*
X118585000Y-100510000I-250000J0D01*
G01*
G37*
%TD*%
D11*
%TO.C,D5*%
X171540000Y-131750000D03*
X171540000Y-134950000D03*
X176440000Y-131750000D03*
X176440000Y-134950000D03*
%TD*%
%TO.C,D4*%
X170270000Y-65710000D03*
X170270000Y-68910000D03*
X175170000Y-65710000D03*
X175170000Y-68910000D03*
%TD*%
%TO.C,D3*%
X104230000Y-65710000D03*
X104230000Y-68910000D03*
X109130000Y-65710000D03*
X109130000Y-68910000D03*
%TD*%
%TO.C,D2*%
X104230000Y-131750000D03*
X104230000Y-134950000D03*
X109130000Y-131750000D03*
X109130000Y-134950000D03*
%TD*%
%TO.C,D1*%
X134710000Y-97460000D03*
X134710000Y-100660000D03*
X139610000Y-97460000D03*
X139610000Y-100660000D03*
%TD*%
M02*
