%TF.GenerationSoftware,KiCad,Pcbnew,(5.1.10)-1*%
%TF.CreationDate,2021-09-15T08:26:03+02:00*%
%TF.ProjectId,Light_trainer,4c696768-745f-4747-9261-696e65722e6b,rev?*%
%TF.SameCoordinates,Original*%
%TF.FileFunction,Legend,Top*%
%TF.FilePolarity,Positive*%
%FSLAX46Y46*%
G04 Gerber Fmt 4.6, Leading zero omitted, Abs format (unit mm)*
G04 Created by KiCad (PCBNEW (5.1.10)-1) date 2021-09-15 08:26:03*
%MOMM*%
%LPD*%
G01*
G04 APERTURE LIST*
%ADD10C,0.200000*%
%ADD11C,0.010000*%
%ADD12C,0.120000*%
%ADD13C,0.150000*%
G04 APERTURE END LIST*
D10*
X120444714Y-127872476D02*
X120349476Y-127824857D01*
X120159000Y-127824857D01*
X120063761Y-127872476D01*
X119968523Y-127967714D01*
X119920904Y-128062952D01*
X119920904Y-128253428D01*
X119968523Y-128348666D01*
X120063761Y-128443904D01*
X120159000Y-128491523D01*
X120349476Y-128491523D01*
X120444714Y-128443904D01*
X120254238Y-127491523D02*
X120016142Y-127539142D01*
X119778047Y-127682000D01*
X119635190Y-127920095D01*
X119587571Y-128158190D01*
X119635190Y-128396285D01*
X119778047Y-128634380D01*
X120016142Y-128777238D01*
X120254238Y-128824857D01*
X120492333Y-128777238D01*
X120730428Y-128634380D01*
X120873285Y-128396285D01*
X120920904Y-128158190D01*
X120873285Y-127920095D01*
X120730428Y-127682000D01*
X120492333Y-127539142D01*
X120254238Y-127491523D01*
X121920904Y-128634380D02*
X121587571Y-128158190D01*
X121349476Y-128634380D02*
X121349476Y-127634380D01*
X121730428Y-127634380D01*
X121825666Y-127682000D01*
X121873285Y-127729619D01*
X121920904Y-127824857D01*
X121920904Y-127967714D01*
X121873285Y-128062952D01*
X121825666Y-128110571D01*
X121730428Y-128158190D01*
X121349476Y-128158190D01*
X122492333Y-128634380D02*
X122397095Y-128586761D01*
X122349476Y-128539142D01*
X122301857Y-128443904D01*
X122301857Y-128158190D01*
X122349476Y-128062952D01*
X122397095Y-128015333D01*
X122492333Y-127967714D01*
X122635190Y-127967714D01*
X122730428Y-128015333D01*
X122778047Y-128062952D01*
X122825666Y-128158190D01*
X122825666Y-128443904D01*
X122778047Y-128539142D01*
X122730428Y-128586761D01*
X122635190Y-128634380D01*
X122492333Y-128634380D01*
X123254238Y-128634380D02*
X123254238Y-127634380D01*
X123254238Y-128015333D02*
X123349476Y-127967714D01*
X123539952Y-127967714D01*
X123635190Y-128015333D01*
X123682809Y-128062952D01*
X123730428Y-128158190D01*
X123730428Y-128443904D01*
X123682809Y-128539142D01*
X123635190Y-128586761D01*
X123539952Y-128634380D01*
X123349476Y-128634380D01*
X123254238Y-128586761D01*
X124159000Y-128634380D02*
X124159000Y-127967714D01*
X124159000Y-127634380D02*
X124111380Y-127682000D01*
X124159000Y-127729619D01*
X124206619Y-127682000D01*
X124159000Y-127634380D01*
X124159000Y-127729619D01*
X124635190Y-127967714D02*
X124635190Y-128634380D01*
X124635190Y-128062952D02*
X124682809Y-128015333D01*
X124778047Y-127967714D01*
X124920904Y-127967714D01*
X125016142Y-128015333D01*
X125063761Y-128110571D01*
X125063761Y-128634380D01*
X126635190Y-128110571D02*
X126301857Y-128110571D01*
X126301857Y-128634380D02*
X126301857Y-127634380D01*
X126778047Y-127634380D01*
X127301857Y-128634380D02*
X127206619Y-128586761D01*
X127159000Y-128539142D01*
X127111380Y-128443904D01*
X127111380Y-128158190D01*
X127159000Y-128062952D01*
X127206619Y-128015333D01*
X127301857Y-127967714D01*
X127444714Y-127967714D01*
X127539952Y-128015333D01*
X127587571Y-128062952D01*
X127635190Y-128158190D01*
X127635190Y-128443904D01*
X127587571Y-128539142D01*
X127539952Y-128586761D01*
X127444714Y-128634380D01*
X127301857Y-128634380D01*
X128063761Y-128634380D02*
X128063761Y-127967714D01*
X128063761Y-128158190D02*
X128111380Y-128062952D01*
X128159000Y-128015333D01*
X128254238Y-127967714D01*
X128349476Y-127967714D01*
X129063761Y-128586761D02*
X128968523Y-128634380D01*
X128778047Y-128634380D01*
X128682809Y-128586761D01*
X128635190Y-128491523D01*
X128635190Y-128110571D01*
X128682809Y-128015333D01*
X128778047Y-127967714D01*
X128968523Y-127967714D01*
X129063761Y-128015333D01*
X129111380Y-128110571D01*
X129111380Y-128205809D01*
X128635190Y-128301047D01*
X129492333Y-128586761D02*
X129587571Y-128634380D01*
X129778047Y-128634380D01*
X129873285Y-128586761D01*
X129920904Y-128491523D01*
X129920904Y-128443904D01*
X129873285Y-128348666D01*
X129778047Y-128301047D01*
X129635190Y-128301047D01*
X129539952Y-128253428D01*
X129492333Y-128158190D01*
X129492333Y-128110571D01*
X129539952Y-128015333D01*
X129635190Y-127967714D01*
X129778047Y-127967714D01*
X129873285Y-128015333D01*
X130206619Y-127967714D02*
X130587571Y-127967714D01*
X130349476Y-127634380D02*
X130349476Y-128491523D01*
X130397095Y-128586761D01*
X130492333Y-128634380D01*
X130587571Y-128634380D01*
X130920904Y-128634380D02*
X130920904Y-127967714D01*
X130920904Y-127634380D02*
X130873285Y-127682000D01*
X130920904Y-127729619D01*
X130968523Y-127682000D01*
X130920904Y-127634380D01*
X130920904Y-127729619D01*
X131778047Y-128586761D02*
X131682809Y-128634380D01*
X131492333Y-128634380D01*
X131397095Y-128586761D01*
X131349476Y-128491523D01*
X131349476Y-128110571D01*
X131397095Y-128015333D01*
X131492333Y-127967714D01*
X131682809Y-127967714D01*
X131778047Y-128015333D01*
X131825666Y-128110571D01*
X131825666Y-128205809D01*
X131349476Y-128301047D01*
X132254238Y-128634380D02*
X132254238Y-127967714D01*
X132254238Y-128158190D02*
X132301857Y-128062952D01*
X132349476Y-128015333D01*
X132444714Y-127967714D01*
X132539952Y-127967714D01*
X133873285Y-128967714D02*
X133873285Y-127539142D01*
X135301857Y-127729619D02*
X135349476Y-127682000D01*
X135444714Y-127634380D01*
X135682809Y-127634380D01*
X135778047Y-127682000D01*
X135825666Y-127729619D01*
X135873285Y-127824857D01*
X135873285Y-127920095D01*
X135825666Y-128062952D01*
X135254238Y-128634380D01*
X135873285Y-128634380D01*
X136492333Y-127634380D02*
X136587571Y-127634380D01*
X136682809Y-127682000D01*
X136730428Y-127729619D01*
X136778047Y-127824857D01*
X136825666Y-128015333D01*
X136825666Y-128253428D01*
X136778047Y-128443904D01*
X136730428Y-128539142D01*
X136682809Y-128586761D01*
X136587571Y-128634380D01*
X136492333Y-128634380D01*
X136397095Y-128586761D01*
X136349476Y-128539142D01*
X136301857Y-128443904D01*
X136254238Y-128253428D01*
X136254238Y-128015333D01*
X136301857Y-127824857D01*
X136349476Y-127729619D01*
X136397095Y-127682000D01*
X136492333Y-127634380D01*
X137206619Y-127729619D02*
X137254238Y-127682000D01*
X137349476Y-127634380D01*
X137587571Y-127634380D01*
X137682809Y-127682000D01*
X137730428Y-127729619D01*
X137778047Y-127824857D01*
X137778047Y-127920095D01*
X137730428Y-128062952D01*
X137159000Y-128634380D01*
X137778047Y-128634380D01*
X138730428Y-128634380D02*
X138159000Y-128634380D01*
X138444714Y-128634380D02*
X138444714Y-127634380D01*
X138349476Y-127777238D01*
X138254238Y-127872476D01*
X138159000Y-127920095D01*
X123801857Y-130334380D02*
X123325666Y-130334380D01*
X123325666Y-129334380D01*
X124135190Y-130334380D02*
X124135190Y-129667714D01*
X124135190Y-129334380D02*
X124087571Y-129382000D01*
X124135190Y-129429619D01*
X124182809Y-129382000D01*
X124135190Y-129334380D01*
X124135190Y-129429619D01*
X125039952Y-129667714D02*
X125039952Y-130477238D01*
X124992333Y-130572476D01*
X124944714Y-130620095D01*
X124849476Y-130667714D01*
X124706619Y-130667714D01*
X124611380Y-130620095D01*
X125039952Y-130286761D02*
X124944714Y-130334380D01*
X124754238Y-130334380D01*
X124659000Y-130286761D01*
X124611380Y-130239142D01*
X124563761Y-130143904D01*
X124563761Y-129858190D01*
X124611380Y-129762952D01*
X124659000Y-129715333D01*
X124754238Y-129667714D01*
X124944714Y-129667714D01*
X125039952Y-129715333D01*
X125516142Y-130334380D02*
X125516142Y-129334380D01*
X125944714Y-130334380D02*
X125944714Y-129810571D01*
X125897095Y-129715333D01*
X125801857Y-129667714D01*
X125659000Y-129667714D01*
X125563761Y-129715333D01*
X125516142Y-129762952D01*
X126278047Y-129667714D02*
X126659000Y-129667714D01*
X126420904Y-129334380D02*
X126420904Y-130191523D01*
X126468523Y-130286761D01*
X126563761Y-130334380D01*
X126659000Y-130334380D01*
X127611380Y-129334380D02*
X128182809Y-129334380D01*
X127897095Y-130334380D02*
X127897095Y-129334380D01*
X128516142Y-130334380D02*
X128516142Y-129667714D01*
X128516142Y-129858190D02*
X128563761Y-129762952D01*
X128611380Y-129715333D01*
X128706619Y-129667714D01*
X128801857Y-129667714D01*
X129563761Y-130334380D02*
X129563761Y-129810571D01*
X129516142Y-129715333D01*
X129420904Y-129667714D01*
X129230428Y-129667714D01*
X129135190Y-129715333D01*
X129563761Y-130286761D02*
X129468523Y-130334380D01*
X129230428Y-130334380D01*
X129135190Y-130286761D01*
X129087571Y-130191523D01*
X129087571Y-130096285D01*
X129135190Y-130001047D01*
X129230428Y-129953428D01*
X129468523Y-129953428D01*
X129563761Y-129905809D01*
X130039952Y-130334380D02*
X130039952Y-129667714D01*
X130039952Y-129334380D02*
X129992333Y-129382000D01*
X130039952Y-129429619D01*
X130087571Y-129382000D01*
X130039952Y-129334380D01*
X130039952Y-129429619D01*
X130516142Y-129667714D02*
X130516142Y-130334380D01*
X130516142Y-129762952D02*
X130563761Y-129715333D01*
X130659000Y-129667714D01*
X130801857Y-129667714D01*
X130897095Y-129715333D01*
X130944714Y-129810571D01*
X130944714Y-130334380D01*
X131801857Y-130286761D02*
X131706619Y-130334380D01*
X131516142Y-130334380D01*
X131420904Y-130286761D01*
X131373285Y-130191523D01*
X131373285Y-129810571D01*
X131420904Y-129715333D01*
X131516142Y-129667714D01*
X131706619Y-129667714D01*
X131801857Y-129715333D01*
X131849476Y-129810571D01*
X131849476Y-129905809D01*
X131373285Y-130001047D01*
X132278047Y-130334380D02*
X132278047Y-129667714D01*
X132278047Y-129858190D02*
X132325666Y-129762952D01*
X132373285Y-129715333D01*
X132468523Y-129667714D01*
X132563761Y-129667714D01*
X133516142Y-129334380D02*
X133849476Y-130334380D01*
X134182809Y-129334380D01*
X135039952Y-130334380D02*
X134468523Y-130334380D01*
X134754238Y-130334380D02*
X134754238Y-129334380D01*
X134659000Y-129477238D01*
X134563761Y-129572476D01*
X134468523Y-129620095D01*
D11*
%TO.C,REF\u002A\u002A*%
G36*
X130823256Y-63099337D02*
G01*
X130822433Y-63215066D01*
X130222115Y-63825000D01*
X129621796Y-64434934D01*
X129621359Y-64714835D01*
X129620921Y-64994737D01*
X129255337Y-64994737D01*
X129245917Y-65065756D01*
X129242350Y-65098127D01*
X129236338Y-65159087D01*
X129228201Y-65244998D01*
X129218262Y-65352226D01*
X129206843Y-65477133D01*
X129194264Y-65616083D01*
X129180847Y-65765441D01*
X129166915Y-65921568D01*
X129152788Y-66080830D01*
X129138788Y-66239590D01*
X129125237Y-66394211D01*
X129112456Y-66541057D01*
X129100767Y-66676493D01*
X129090492Y-66796880D01*
X129081952Y-66898584D01*
X129075469Y-66977967D01*
X129071364Y-67031394D01*
X129069959Y-67055229D01*
X129069960Y-67055342D01*
X129080204Y-67074466D01*
X129110974Y-67113955D01*
X129162689Y-67174266D01*
X129235767Y-67255861D01*
X129330627Y-67359198D01*
X129447687Y-67484738D01*
X129587367Y-67632940D01*
X129750084Y-67804263D01*
X129795821Y-67852237D01*
X130521195Y-68612566D01*
X130462551Y-68671052D01*
X130403908Y-68729539D01*
X130309026Y-68626310D01*
X130274315Y-68589003D01*
X130220094Y-68531311D01*
X130149941Y-68457013D01*
X130067432Y-68369889D01*
X129976145Y-68273718D01*
X129879658Y-68172280D01*
X129821935Y-68111695D01*
X129713566Y-67998197D01*
X129625972Y-67907285D01*
X129556920Y-67837307D01*
X129504176Y-67786610D01*
X129465506Y-67753540D01*
X129438677Y-67736444D01*
X129421456Y-67733669D01*
X129411608Y-67743563D01*
X129406901Y-67764471D01*
X129405101Y-67794741D01*
X129404859Y-67803002D01*
X129392342Y-67859909D01*
X129361503Y-67928693D01*
X129318497Y-67998475D01*
X129269480Y-68058378D01*
X129249866Y-68076882D01*
X129149230Y-68141628D01*
X129031673Y-68177854D01*
X128927738Y-68186447D01*
X128809951Y-68170239D01*
X128701169Y-68122712D01*
X128604890Y-68045511D01*
X128587125Y-68026295D01*
X128522168Y-67952500D01*
X127398421Y-67952500D01*
X127398421Y-68186447D01*
X127097632Y-68186447D01*
X127097632Y-68077152D01*
X127093857Y-68002539D01*
X127081175Y-67950750D01*
X127065763Y-67922580D01*
X127054750Y-67902424D01*
X127045321Y-67873200D01*
X127036849Y-67830575D01*
X127028710Y-67770217D01*
X127020279Y-67687793D01*
X127010932Y-67578972D01*
X127004531Y-67498017D01*
X126975169Y-67118732D01*
X126254341Y-67848938D01*
X126124008Y-67981066D01*
X125998892Y-68108096D01*
X125881279Y-68227695D01*
X125773455Y-68337528D01*
X125677705Y-68435263D01*
X125596317Y-68518566D01*
X125531577Y-68585104D01*
X125485770Y-68632542D01*
X125461208Y-68658520D01*
X125420855Y-68699649D01*
X125387195Y-68728335D01*
X125369090Y-68737895D01*
X125345965Y-68726697D01*
X125312257Y-68698719D01*
X125300831Y-68687326D01*
X125252383Y-68636757D01*
X125519119Y-68365702D01*
X125587169Y-68296652D01*
X125674915Y-68207774D01*
X125778508Y-68102959D01*
X125894100Y-67986097D01*
X126017841Y-67861079D01*
X126145881Y-67731795D01*
X126274372Y-67602136D01*
X126366546Y-67509179D01*
X126506658Y-67367520D01*
X126624368Y-67247591D01*
X126721180Y-67147768D01*
X126798601Y-67066428D01*
X126858136Y-67001948D01*
X126887642Y-66968277D01*
X127124591Y-66968277D01*
X127154257Y-67347592D01*
X127163203Y-67458777D01*
X127171858Y-67560453D01*
X127179729Y-67647304D01*
X127186328Y-67714018D01*
X127191164Y-67755279D01*
X127192720Y-67764506D01*
X127201518Y-67802105D01*
X128463319Y-67802105D01*
X128471742Y-67697173D01*
X128497172Y-67573195D01*
X128550389Y-67463524D01*
X128628037Y-67372156D01*
X128726763Y-67303083D01*
X128837572Y-67261620D01*
X128873520Y-67242171D01*
X128891517Y-67200430D01*
X128891894Y-67198589D01*
X128894053Y-67180967D01*
X128891384Y-67162922D01*
X128881280Y-67141108D01*
X128861137Y-67112177D01*
X128828349Y-67072783D01*
X128780310Y-67019577D01*
X128714416Y-66949214D01*
X128628060Y-66858346D01*
X128622480Y-66852493D01*
X128529595Y-66754956D01*
X128430845Y-66651067D01*
X128333016Y-66547977D01*
X128242893Y-66452839D01*
X128167262Y-66372804D01*
X128150395Y-66354911D01*
X128085735Y-66287444D01*
X128028295Y-66229709D01*
X127982199Y-66185675D01*
X127951569Y-66159314D01*
X127941285Y-66153521D01*
X127925948Y-66165646D01*
X127890083Y-66198910D01*
X127836512Y-66250542D01*
X127768060Y-66317775D01*
X127687553Y-66397837D01*
X127597813Y-66487961D01*
X127524468Y-66562198D01*
X127124591Y-66968277D01*
X126887642Y-66968277D01*
X126901291Y-66952703D01*
X126929571Y-66917071D01*
X126944483Y-66893429D01*
X126947801Y-66882480D01*
X126946544Y-66858586D01*
X126942726Y-66804501D01*
X126936593Y-66723338D01*
X126928393Y-66618210D01*
X126918373Y-66492228D01*
X126906780Y-66348505D01*
X126893860Y-66190154D01*
X126879862Y-66020287D01*
X126868581Y-65884528D01*
X126804750Y-65119106D01*
X126968996Y-65119106D01*
X126969703Y-65135624D01*
X126973031Y-65182145D01*
X126978710Y-65255378D01*
X126986474Y-65352028D01*
X126996057Y-65468805D01*
X127007189Y-65602414D01*
X127019605Y-65749563D01*
X127031520Y-65889271D01*
X127045016Y-66047787D01*
X127057587Y-66197421D01*
X127068945Y-66334602D01*
X127078802Y-66455759D01*
X127086870Y-66557320D01*
X127092860Y-66635712D01*
X127096485Y-66687363D01*
X127097491Y-66707423D01*
X127099060Y-66719908D01*
X127105278Y-66724862D01*
X127118541Y-66720218D01*
X127141247Y-66703909D01*
X127175792Y-66673868D01*
X127224573Y-66628027D01*
X127289987Y-66564320D01*
X127374431Y-66480679D01*
X127464029Y-66391299D01*
X127830426Y-66025186D01*
X127827859Y-66022434D01*
X128070049Y-66022434D01*
X128081087Y-66037550D01*
X128111987Y-66073142D01*
X128159653Y-66125941D01*
X128220987Y-66192673D01*
X128292893Y-66270070D01*
X128372273Y-66354858D01*
X128456031Y-66443767D01*
X128541070Y-66533526D01*
X128624292Y-66620864D01*
X128702601Y-66702509D01*
X128772900Y-66775191D01*
X128832091Y-66835637D01*
X128877078Y-66880578D01*
X128904764Y-66906742D01*
X128912314Y-66912072D01*
X128914803Y-66894867D01*
X128919970Y-66847348D01*
X128927530Y-66772489D01*
X128937200Y-66673264D01*
X128948695Y-66552649D01*
X128961731Y-66413618D01*
X128976024Y-66259145D01*
X128991290Y-66092206D01*
X129003479Y-65957597D01*
X129019071Y-65783054D01*
X129033477Y-65618627D01*
X129046453Y-65467299D01*
X129057759Y-65332053D01*
X129067152Y-65215870D01*
X129074389Y-65121735D01*
X129079228Y-65052630D01*
X129081427Y-65011538D01*
X129081176Y-65000868D01*
X129068030Y-65010372D01*
X129034554Y-65040920D01*
X128983674Y-65089556D01*
X128918317Y-65153323D01*
X128841409Y-65229265D01*
X128755876Y-65314424D01*
X128664646Y-65405845D01*
X128570644Y-65500569D01*
X128476798Y-65595641D01*
X128386033Y-65688103D01*
X128301277Y-65774999D01*
X128225456Y-65853372D01*
X128161497Y-65920265D01*
X128112326Y-65972722D01*
X128080869Y-66007785D01*
X128070049Y-66022434D01*
X127827859Y-66022434D01*
X127693798Y-65878760D01*
X127624216Y-65804448D01*
X127546119Y-65721483D01*
X127462594Y-65633102D01*
X127376730Y-65542541D01*
X127291615Y-65453036D01*
X127210336Y-65367823D01*
X127135981Y-65290139D01*
X127071637Y-65223220D01*
X127020394Y-65170303D01*
X126985337Y-65134623D01*
X126969556Y-65119416D01*
X126968996Y-65119106D01*
X126804750Y-65119106D01*
X126788796Y-64927807D01*
X125990714Y-64088485D01*
X125192632Y-63249164D01*
X125193219Y-63131852D01*
X125193806Y-63014539D01*
X125322725Y-63152253D01*
X125394876Y-63229063D01*
X125480060Y-63319304D01*
X125575979Y-63420575D01*
X125680334Y-63530476D01*
X125790826Y-63646604D01*
X125905156Y-63766558D01*
X126021025Y-63887936D01*
X126136135Y-64008338D01*
X126248186Y-64125362D01*
X126354881Y-64236606D01*
X126453920Y-64339669D01*
X126543003Y-64432150D01*
X126619834Y-64511647D01*
X126682112Y-64575758D01*
X126727538Y-64622083D01*
X126753815Y-64648219D01*
X126759574Y-64653233D01*
X126759970Y-64635791D01*
X126757792Y-64591135D01*
X126753417Y-64525340D01*
X126747225Y-64444483D01*
X126744567Y-64412183D01*
X126724772Y-64175921D01*
X126879758Y-64175921D01*
X126887760Y-64213520D01*
X126891840Y-64243255D01*
X126897575Y-64299203D01*
X126904299Y-64374236D01*
X126911352Y-64461225D01*
X126913793Y-64493421D01*
X126920992Y-64585861D01*
X126928258Y-64671707D01*
X126934864Y-64742847D01*
X126940084Y-64791169D01*
X126941261Y-64799939D01*
X126945702Y-64817942D01*
X126955313Y-64839017D01*
X126972140Y-64865525D01*
X126998225Y-64899828D01*
X127035613Y-64944289D01*
X127086346Y-65001271D01*
X127152470Y-65073136D01*
X127236026Y-65162246D01*
X127339060Y-65270964D01*
X127444167Y-65381275D01*
X127548738Y-65490441D01*
X127646351Y-65591540D01*
X127734578Y-65682115D01*
X127810988Y-65759708D01*
X127873151Y-65821862D01*
X127918637Y-65866118D01*
X127945017Y-65890018D01*
X127950643Y-65893574D01*
X127965443Y-65880681D01*
X128000039Y-65847060D01*
X128051071Y-65796082D01*
X128115183Y-65731120D01*
X128189016Y-65655548D01*
X128242411Y-65600493D01*
X128521173Y-65312237D01*
X127699210Y-65312237D01*
X127699210Y-64994737D01*
X128701842Y-64994737D01*
X128701842Y-65136206D01*
X128885658Y-64952960D01*
X129016052Y-64822971D01*
X129270000Y-64822971D01*
X129272429Y-64843477D01*
X129284724Y-64854902D01*
X129314396Y-64859880D01*
X129368955Y-64861044D01*
X129378618Y-64861052D01*
X129487237Y-64861052D01*
X129487237Y-64569584D01*
X129378618Y-64677237D01*
X129317346Y-64742687D01*
X129280699Y-64792829D01*
X129270000Y-64822971D01*
X129016052Y-64822971D01*
X129069474Y-64769715D01*
X129069474Y-64606502D01*
X129069985Y-64531414D01*
X129072328Y-64483645D01*
X129077711Y-64457098D01*
X129087344Y-64445679D01*
X129101871Y-64443289D01*
X129118027Y-64439780D01*
X129129969Y-64425711D01*
X129139139Y-64395769D01*
X129146982Y-64344642D01*
X129154942Y-64267017D01*
X129157496Y-64238585D01*
X129163026Y-64175921D01*
X126879758Y-64175921D01*
X126724772Y-64175921D01*
X126512763Y-64175921D01*
X126512763Y-64025526D01*
X126602859Y-64025526D01*
X126655555Y-64024083D01*
X126684188Y-64017116D01*
X126687691Y-64012970D01*
X126872234Y-64012970D01*
X126881946Y-64022442D01*
X126915588Y-64025366D01*
X126938294Y-64025526D01*
X127014079Y-64025526D01*
X127296694Y-64025526D01*
X129176519Y-64025526D01*
X129112938Y-63960413D01*
X129014186Y-63880062D01*
X128891968Y-63818089D01*
X128744213Y-63773646D01*
X128597401Y-63749065D01*
X128501316Y-63737596D01*
X128501316Y-63858421D01*
X127732632Y-63858421D01*
X127732632Y-63721345D01*
X127619835Y-63732776D01*
X127541025Y-63742425D01*
X127457057Y-63755214D01*
X127406776Y-63764348D01*
X127306513Y-63784488D01*
X127301603Y-63905007D01*
X127296694Y-64025526D01*
X127014079Y-64025526D01*
X127014079Y-63958684D01*
X127011869Y-63916810D01*
X127006350Y-63893536D01*
X127004126Y-63891842D01*
X126979387Y-63902560D01*
X126943243Y-63928563D01*
X126907010Y-63960623D01*
X126882001Y-63989511D01*
X126879773Y-63993267D01*
X126872234Y-64012970D01*
X126687691Y-64012970D01*
X126698081Y-64000674D01*
X126703689Y-63982762D01*
X126726578Y-63936279D01*
X126770540Y-63880400D01*
X126828011Y-63822960D01*
X126891427Y-63771793D01*
X126933082Y-63745143D01*
X126980534Y-63715972D01*
X127004859Y-63691467D01*
X127013405Y-63662572D01*
X127014062Y-63645362D01*
X127014063Y-63641184D01*
X127866316Y-63641184D01*
X127866316Y-63724737D01*
X128367632Y-63724737D01*
X128367632Y-63641184D01*
X127866316Y-63641184D01*
X127014063Y-63641184D01*
X127014079Y-63591052D01*
X127154726Y-63591052D01*
X127219436Y-63592617D01*
X127269870Y-63596785D01*
X127297906Y-63602773D01*
X127300943Y-63605197D01*
X127318727Y-63608918D01*
X127362008Y-63607394D01*
X127423349Y-63601075D01*
X127465263Y-63595240D01*
X127541263Y-63583778D01*
X127610770Y-63573430D01*
X127663003Y-63565796D01*
X127678322Y-63563627D01*
X127718347Y-63551232D01*
X127732632Y-63531808D01*
X127736975Y-63523898D01*
X127752510Y-63517863D01*
X127782999Y-63513466D01*
X127832200Y-63510469D01*
X127903874Y-63508635D01*
X128001781Y-63507725D01*
X128116974Y-63507500D01*
X128239914Y-63507628D01*
X128333441Y-63508230D01*
X128401560Y-63509639D01*
X128448281Y-63512181D01*
X128477609Y-63516189D01*
X128493551Y-63521991D01*
X128500115Y-63529917D01*
X128501316Y-63539133D01*
X128511540Y-63568385D01*
X128545030Y-63585031D01*
X128606012Y-63590968D01*
X128616983Y-63591052D01*
X128720254Y-63601706D01*
X128837547Y-63631033D01*
X128958285Y-63675084D01*
X129071889Y-63729911D01*
X129167781Y-63791564D01*
X129180201Y-63801332D01*
X129220682Y-63833115D01*
X129244655Y-63845844D01*
X129261396Y-63841729D01*
X129278581Y-63824750D01*
X129329336Y-63791492D01*
X129395393Y-63778725D01*
X129466526Y-63785365D01*
X129532514Y-63810327D01*
X129583132Y-63852529D01*
X129586797Y-63857434D01*
X129624672Y-63936211D01*
X129631719Y-64017754D01*
X129608715Y-64095487D01*
X129556437Y-64162835D01*
X129550044Y-64168396D01*
X129512927Y-64194813D01*
X129475267Y-64206447D01*
X129422324Y-64207287D01*
X129409098Y-64206542D01*
X129357297Y-64204641D01*
X129330614Y-64208996D01*
X129320955Y-64222138D01*
X129319963Y-64234408D01*
X129317939Y-64270002D01*
X129312914Y-64323533D01*
X129309303Y-64355559D01*
X129304066Y-64406427D01*
X129306244Y-64432468D01*
X129318875Y-64441986D01*
X129341375Y-64443289D01*
X129354718Y-64438986D01*
X129376244Y-64425057D01*
X129407548Y-64399977D01*
X129450224Y-64362219D01*
X129505868Y-64310256D01*
X129576075Y-64242562D01*
X129662440Y-64157611D01*
X129766558Y-64053875D01*
X129890025Y-63929828D01*
X130034436Y-63783944D01*
X130104031Y-63713449D01*
X130824079Y-62983610D01*
X130823256Y-63099337D01*
G37*
X130823256Y-63099337D02*
X130822433Y-63215066D01*
X130222115Y-63825000D01*
X129621796Y-64434934D01*
X129621359Y-64714835D01*
X129620921Y-64994737D01*
X129255337Y-64994737D01*
X129245917Y-65065756D01*
X129242350Y-65098127D01*
X129236338Y-65159087D01*
X129228201Y-65244998D01*
X129218262Y-65352226D01*
X129206843Y-65477133D01*
X129194264Y-65616083D01*
X129180847Y-65765441D01*
X129166915Y-65921568D01*
X129152788Y-66080830D01*
X129138788Y-66239590D01*
X129125237Y-66394211D01*
X129112456Y-66541057D01*
X129100767Y-66676493D01*
X129090492Y-66796880D01*
X129081952Y-66898584D01*
X129075469Y-66977967D01*
X129071364Y-67031394D01*
X129069959Y-67055229D01*
X129069960Y-67055342D01*
X129080204Y-67074466D01*
X129110974Y-67113955D01*
X129162689Y-67174266D01*
X129235767Y-67255861D01*
X129330627Y-67359198D01*
X129447687Y-67484738D01*
X129587367Y-67632940D01*
X129750084Y-67804263D01*
X129795821Y-67852237D01*
X130521195Y-68612566D01*
X130462551Y-68671052D01*
X130403908Y-68729539D01*
X130309026Y-68626310D01*
X130274315Y-68589003D01*
X130220094Y-68531311D01*
X130149941Y-68457013D01*
X130067432Y-68369889D01*
X129976145Y-68273718D01*
X129879658Y-68172280D01*
X129821935Y-68111695D01*
X129713566Y-67998197D01*
X129625972Y-67907285D01*
X129556920Y-67837307D01*
X129504176Y-67786610D01*
X129465506Y-67753540D01*
X129438677Y-67736444D01*
X129421456Y-67733669D01*
X129411608Y-67743563D01*
X129406901Y-67764471D01*
X129405101Y-67794741D01*
X129404859Y-67803002D01*
X129392342Y-67859909D01*
X129361503Y-67928693D01*
X129318497Y-67998475D01*
X129269480Y-68058378D01*
X129249866Y-68076882D01*
X129149230Y-68141628D01*
X129031673Y-68177854D01*
X128927738Y-68186447D01*
X128809951Y-68170239D01*
X128701169Y-68122712D01*
X128604890Y-68045511D01*
X128587125Y-68026295D01*
X128522168Y-67952500D01*
X127398421Y-67952500D01*
X127398421Y-68186447D01*
X127097632Y-68186447D01*
X127097632Y-68077152D01*
X127093857Y-68002539D01*
X127081175Y-67950750D01*
X127065763Y-67922580D01*
X127054750Y-67902424D01*
X127045321Y-67873200D01*
X127036849Y-67830575D01*
X127028710Y-67770217D01*
X127020279Y-67687793D01*
X127010932Y-67578972D01*
X127004531Y-67498017D01*
X126975169Y-67118732D01*
X126254341Y-67848938D01*
X126124008Y-67981066D01*
X125998892Y-68108096D01*
X125881279Y-68227695D01*
X125773455Y-68337528D01*
X125677705Y-68435263D01*
X125596317Y-68518566D01*
X125531577Y-68585104D01*
X125485770Y-68632542D01*
X125461208Y-68658520D01*
X125420855Y-68699649D01*
X125387195Y-68728335D01*
X125369090Y-68737895D01*
X125345965Y-68726697D01*
X125312257Y-68698719D01*
X125300831Y-68687326D01*
X125252383Y-68636757D01*
X125519119Y-68365702D01*
X125587169Y-68296652D01*
X125674915Y-68207774D01*
X125778508Y-68102959D01*
X125894100Y-67986097D01*
X126017841Y-67861079D01*
X126145881Y-67731795D01*
X126274372Y-67602136D01*
X126366546Y-67509179D01*
X126506658Y-67367520D01*
X126624368Y-67247591D01*
X126721180Y-67147768D01*
X126798601Y-67066428D01*
X126858136Y-67001948D01*
X126887642Y-66968277D01*
X127124591Y-66968277D01*
X127154257Y-67347592D01*
X127163203Y-67458777D01*
X127171858Y-67560453D01*
X127179729Y-67647304D01*
X127186328Y-67714018D01*
X127191164Y-67755279D01*
X127192720Y-67764506D01*
X127201518Y-67802105D01*
X128463319Y-67802105D01*
X128471742Y-67697173D01*
X128497172Y-67573195D01*
X128550389Y-67463524D01*
X128628037Y-67372156D01*
X128726763Y-67303083D01*
X128837572Y-67261620D01*
X128873520Y-67242171D01*
X128891517Y-67200430D01*
X128891894Y-67198589D01*
X128894053Y-67180967D01*
X128891384Y-67162922D01*
X128881280Y-67141108D01*
X128861137Y-67112177D01*
X128828349Y-67072783D01*
X128780310Y-67019577D01*
X128714416Y-66949214D01*
X128628060Y-66858346D01*
X128622480Y-66852493D01*
X128529595Y-66754956D01*
X128430845Y-66651067D01*
X128333016Y-66547977D01*
X128242893Y-66452839D01*
X128167262Y-66372804D01*
X128150395Y-66354911D01*
X128085735Y-66287444D01*
X128028295Y-66229709D01*
X127982199Y-66185675D01*
X127951569Y-66159314D01*
X127941285Y-66153521D01*
X127925948Y-66165646D01*
X127890083Y-66198910D01*
X127836512Y-66250542D01*
X127768060Y-66317775D01*
X127687553Y-66397837D01*
X127597813Y-66487961D01*
X127524468Y-66562198D01*
X127124591Y-66968277D01*
X126887642Y-66968277D01*
X126901291Y-66952703D01*
X126929571Y-66917071D01*
X126944483Y-66893429D01*
X126947801Y-66882480D01*
X126946544Y-66858586D01*
X126942726Y-66804501D01*
X126936593Y-66723338D01*
X126928393Y-66618210D01*
X126918373Y-66492228D01*
X126906780Y-66348505D01*
X126893860Y-66190154D01*
X126879862Y-66020287D01*
X126868581Y-65884528D01*
X126804750Y-65119106D01*
X126968996Y-65119106D01*
X126969703Y-65135624D01*
X126973031Y-65182145D01*
X126978710Y-65255378D01*
X126986474Y-65352028D01*
X126996057Y-65468805D01*
X127007189Y-65602414D01*
X127019605Y-65749563D01*
X127031520Y-65889271D01*
X127045016Y-66047787D01*
X127057587Y-66197421D01*
X127068945Y-66334602D01*
X127078802Y-66455759D01*
X127086870Y-66557320D01*
X127092860Y-66635712D01*
X127096485Y-66687363D01*
X127097491Y-66707423D01*
X127099060Y-66719908D01*
X127105278Y-66724862D01*
X127118541Y-66720218D01*
X127141247Y-66703909D01*
X127175792Y-66673868D01*
X127224573Y-66628027D01*
X127289987Y-66564320D01*
X127374431Y-66480679D01*
X127464029Y-66391299D01*
X127830426Y-66025186D01*
X127827859Y-66022434D01*
X128070049Y-66022434D01*
X128081087Y-66037550D01*
X128111987Y-66073142D01*
X128159653Y-66125941D01*
X128220987Y-66192673D01*
X128292893Y-66270070D01*
X128372273Y-66354858D01*
X128456031Y-66443767D01*
X128541070Y-66533526D01*
X128624292Y-66620864D01*
X128702601Y-66702509D01*
X128772900Y-66775191D01*
X128832091Y-66835637D01*
X128877078Y-66880578D01*
X128904764Y-66906742D01*
X128912314Y-66912072D01*
X128914803Y-66894867D01*
X128919970Y-66847348D01*
X128927530Y-66772489D01*
X128937200Y-66673264D01*
X128948695Y-66552649D01*
X128961731Y-66413618D01*
X128976024Y-66259145D01*
X128991290Y-66092206D01*
X129003479Y-65957597D01*
X129019071Y-65783054D01*
X129033477Y-65618627D01*
X129046453Y-65467299D01*
X129057759Y-65332053D01*
X129067152Y-65215870D01*
X129074389Y-65121735D01*
X129079228Y-65052630D01*
X129081427Y-65011538D01*
X129081176Y-65000868D01*
X129068030Y-65010372D01*
X129034554Y-65040920D01*
X128983674Y-65089556D01*
X128918317Y-65153323D01*
X128841409Y-65229265D01*
X128755876Y-65314424D01*
X128664646Y-65405845D01*
X128570644Y-65500569D01*
X128476798Y-65595641D01*
X128386033Y-65688103D01*
X128301277Y-65774999D01*
X128225456Y-65853372D01*
X128161497Y-65920265D01*
X128112326Y-65972722D01*
X128080869Y-66007785D01*
X128070049Y-66022434D01*
X127827859Y-66022434D01*
X127693798Y-65878760D01*
X127624216Y-65804448D01*
X127546119Y-65721483D01*
X127462594Y-65633102D01*
X127376730Y-65542541D01*
X127291615Y-65453036D01*
X127210336Y-65367823D01*
X127135981Y-65290139D01*
X127071637Y-65223220D01*
X127020394Y-65170303D01*
X126985337Y-65134623D01*
X126969556Y-65119416D01*
X126968996Y-65119106D01*
X126804750Y-65119106D01*
X126788796Y-64927807D01*
X125990714Y-64088485D01*
X125192632Y-63249164D01*
X125193219Y-63131852D01*
X125193806Y-63014539D01*
X125322725Y-63152253D01*
X125394876Y-63229063D01*
X125480060Y-63319304D01*
X125575979Y-63420575D01*
X125680334Y-63530476D01*
X125790826Y-63646604D01*
X125905156Y-63766558D01*
X126021025Y-63887936D01*
X126136135Y-64008338D01*
X126248186Y-64125362D01*
X126354881Y-64236606D01*
X126453920Y-64339669D01*
X126543003Y-64432150D01*
X126619834Y-64511647D01*
X126682112Y-64575758D01*
X126727538Y-64622083D01*
X126753815Y-64648219D01*
X126759574Y-64653233D01*
X126759970Y-64635791D01*
X126757792Y-64591135D01*
X126753417Y-64525340D01*
X126747225Y-64444483D01*
X126744567Y-64412183D01*
X126724772Y-64175921D01*
X126879758Y-64175921D01*
X126887760Y-64213520D01*
X126891840Y-64243255D01*
X126897575Y-64299203D01*
X126904299Y-64374236D01*
X126911352Y-64461225D01*
X126913793Y-64493421D01*
X126920992Y-64585861D01*
X126928258Y-64671707D01*
X126934864Y-64742847D01*
X126940084Y-64791169D01*
X126941261Y-64799939D01*
X126945702Y-64817942D01*
X126955313Y-64839017D01*
X126972140Y-64865525D01*
X126998225Y-64899828D01*
X127035613Y-64944289D01*
X127086346Y-65001271D01*
X127152470Y-65073136D01*
X127236026Y-65162246D01*
X127339060Y-65270964D01*
X127444167Y-65381275D01*
X127548738Y-65490441D01*
X127646351Y-65591540D01*
X127734578Y-65682115D01*
X127810988Y-65759708D01*
X127873151Y-65821862D01*
X127918637Y-65866118D01*
X127945017Y-65890018D01*
X127950643Y-65893574D01*
X127965443Y-65880681D01*
X128000039Y-65847060D01*
X128051071Y-65796082D01*
X128115183Y-65731120D01*
X128189016Y-65655548D01*
X128242411Y-65600493D01*
X128521173Y-65312237D01*
X127699210Y-65312237D01*
X127699210Y-64994737D01*
X128701842Y-64994737D01*
X128701842Y-65136206D01*
X128885658Y-64952960D01*
X129016052Y-64822971D01*
X129270000Y-64822971D01*
X129272429Y-64843477D01*
X129284724Y-64854902D01*
X129314396Y-64859880D01*
X129368955Y-64861044D01*
X129378618Y-64861052D01*
X129487237Y-64861052D01*
X129487237Y-64569584D01*
X129378618Y-64677237D01*
X129317346Y-64742687D01*
X129280699Y-64792829D01*
X129270000Y-64822971D01*
X129016052Y-64822971D01*
X129069474Y-64769715D01*
X129069474Y-64606502D01*
X129069985Y-64531414D01*
X129072328Y-64483645D01*
X129077711Y-64457098D01*
X129087344Y-64445679D01*
X129101871Y-64443289D01*
X129118027Y-64439780D01*
X129129969Y-64425711D01*
X129139139Y-64395769D01*
X129146982Y-64344642D01*
X129154942Y-64267017D01*
X129157496Y-64238585D01*
X129163026Y-64175921D01*
X126879758Y-64175921D01*
X126724772Y-64175921D01*
X126512763Y-64175921D01*
X126512763Y-64025526D01*
X126602859Y-64025526D01*
X126655555Y-64024083D01*
X126684188Y-64017116D01*
X126687691Y-64012970D01*
X126872234Y-64012970D01*
X126881946Y-64022442D01*
X126915588Y-64025366D01*
X126938294Y-64025526D01*
X127014079Y-64025526D01*
X127296694Y-64025526D01*
X129176519Y-64025526D01*
X129112938Y-63960413D01*
X129014186Y-63880062D01*
X128891968Y-63818089D01*
X128744213Y-63773646D01*
X128597401Y-63749065D01*
X128501316Y-63737596D01*
X128501316Y-63858421D01*
X127732632Y-63858421D01*
X127732632Y-63721345D01*
X127619835Y-63732776D01*
X127541025Y-63742425D01*
X127457057Y-63755214D01*
X127406776Y-63764348D01*
X127306513Y-63784488D01*
X127301603Y-63905007D01*
X127296694Y-64025526D01*
X127014079Y-64025526D01*
X127014079Y-63958684D01*
X127011869Y-63916810D01*
X127006350Y-63893536D01*
X127004126Y-63891842D01*
X126979387Y-63902560D01*
X126943243Y-63928563D01*
X126907010Y-63960623D01*
X126882001Y-63989511D01*
X126879773Y-63993267D01*
X126872234Y-64012970D01*
X126687691Y-64012970D01*
X126698081Y-64000674D01*
X126703689Y-63982762D01*
X126726578Y-63936279D01*
X126770540Y-63880400D01*
X126828011Y-63822960D01*
X126891427Y-63771793D01*
X126933082Y-63745143D01*
X126980534Y-63715972D01*
X127004859Y-63691467D01*
X127013405Y-63662572D01*
X127014062Y-63645362D01*
X127014063Y-63641184D01*
X127866316Y-63641184D01*
X127866316Y-63724737D01*
X128367632Y-63724737D01*
X128367632Y-63641184D01*
X127866316Y-63641184D01*
X127014063Y-63641184D01*
X127014079Y-63591052D01*
X127154726Y-63591052D01*
X127219436Y-63592617D01*
X127269870Y-63596785D01*
X127297906Y-63602773D01*
X127300943Y-63605197D01*
X127318727Y-63608918D01*
X127362008Y-63607394D01*
X127423349Y-63601075D01*
X127465263Y-63595240D01*
X127541263Y-63583778D01*
X127610770Y-63573430D01*
X127663003Y-63565796D01*
X127678322Y-63563627D01*
X127718347Y-63551232D01*
X127732632Y-63531808D01*
X127736975Y-63523898D01*
X127752510Y-63517863D01*
X127782999Y-63513466D01*
X127832200Y-63510469D01*
X127903874Y-63508635D01*
X128001781Y-63507725D01*
X128116974Y-63507500D01*
X128239914Y-63507628D01*
X128333441Y-63508230D01*
X128401560Y-63509639D01*
X128448281Y-63512181D01*
X128477609Y-63516189D01*
X128493551Y-63521991D01*
X128500115Y-63529917D01*
X128501316Y-63539133D01*
X128511540Y-63568385D01*
X128545030Y-63585031D01*
X128606012Y-63590968D01*
X128616983Y-63591052D01*
X128720254Y-63601706D01*
X128837547Y-63631033D01*
X128958285Y-63675084D01*
X129071889Y-63729911D01*
X129167781Y-63791564D01*
X129180201Y-63801332D01*
X129220682Y-63833115D01*
X129244655Y-63845844D01*
X129261396Y-63841729D01*
X129278581Y-63824750D01*
X129329336Y-63791492D01*
X129395393Y-63778725D01*
X129466526Y-63785365D01*
X129532514Y-63810327D01*
X129583132Y-63852529D01*
X129586797Y-63857434D01*
X129624672Y-63936211D01*
X129631719Y-64017754D01*
X129608715Y-64095487D01*
X129556437Y-64162835D01*
X129550044Y-64168396D01*
X129512927Y-64194813D01*
X129475267Y-64206447D01*
X129422324Y-64207287D01*
X129409098Y-64206542D01*
X129357297Y-64204641D01*
X129330614Y-64208996D01*
X129320955Y-64222138D01*
X129319963Y-64234408D01*
X129317939Y-64270002D01*
X129312914Y-64323533D01*
X129309303Y-64355559D01*
X129304066Y-64406427D01*
X129306244Y-64432468D01*
X129318875Y-64441986D01*
X129341375Y-64443289D01*
X129354718Y-64438986D01*
X129376244Y-64425057D01*
X129407548Y-64399977D01*
X129450224Y-64362219D01*
X129505868Y-64310256D01*
X129576075Y-64242562D01*
X129662440Y-64157611D01*
X129766558Y-64053875D01*
X129890025Y-63929828D01*
X130034436Y-63783944D01*
X130104031Y-63713449D01*
X130824079Y-62983610D01*
X130823256Y-63099337D01*
G36*
X130322763Y-71010526D02*
G01*
X125643816Y-71010526D01*
X125643816Y-69857500D01*
X130322763Y-69857500D01*
X130322763Y-71010526D01*
G37*
X130322763Y-71010526D02*
X125643816Y-71010526D01*
X125643816Y-69857500D01*
X130322763Y-69857500D01*
X130322763Y-71010526D01*
G36*
X118220878Y-63076166D02*
G01*
X118251876Y-63126538D01*
X118299634Y-63206341D01*
X118362194Y-63312180D01*
X118437597Y-63440659D01*
X118523885Y-63588384D01*
X118619101Y-63751958D01*
X118721285Y-63927987D01*
X118828481Y-64113075D01*
X118938729Y-64303827D01*
X119050071Y-64496847D01*
X119160550Y-64688741D01*
X119268207Y-64876111D01*
X119371084Y-65055565D01*
X119467223Y-65223705D01*
X119554665Y-65377137D01*
X119631453Y-65512465D01*
X119695628Y-65626294D01*
X119745233Y-65715229D01*
X119778309Y-65775874D01*
X119792897Y-65804833D01*
X119793431Y-65806644D01*
X119775321Y-65831217D01*
X119724980Y-65868807D01*
X119648395Y-65915722D01*
X119551552Y-65968274D01*
X119450167Y-66018213D01*
X119312215Y-66078769D01*
X119167142Y-66133179D01*
X119009950Y-66182651D01*
X118835643Y-66228395D01*
X118639222Y-66271620D01*
X118415689Y-66313534D01*
X118160048Y-66355347D01*
X117895606Y-66394284D01*
X117665852Y-66428828D01*
X117472917Y-66463026D01*
X117311964Y-66498577D01*
X117178155Y-66537182D01*
X117066650Y-66580539D01*
X116972614Y-66630348D01*
X116891206Y-66688309D01*
X116817590Y-66756120D01*
X116793851Y-66781312D01*
X116742397Y-66839958D01*
X116704334Y-66887815D01*
X116686677Y-66915958D01*
X116686206Y-66918265D01*
X116680028Y-66932416D01*
X116658590Y-66932575D01*
X116617533Y-66916861D01*
X116552501Y-66883391D01*
X116459137Y-66830281D01*
X116394252Y-66792088D01*
X116297501Y-66732385D01*
X116222312Y-66681263D01*
X116173739Y-66642399D01*
X116156835Y-66619472D01*
X116156845Y-66619305D01*
X116167328Y-66597456D01*
X116196931Y-66542739D01*
X116243938Y-66458136D01*
X116306629Y-66346629D01*
X116383286Y-66211201D01*
X116472191Y-66054833D01*
X116571626Y-65880507D01*
X116679872Y-65691206D01*
X116795211Y-65489911D01*
X116915924Y-65279605D01*
X117040294Y-65063271D01*
X117166601Y-64843889D01*
X117293127Y-64624442D01*
X117418155Y-64407912D01*
X117539965Y-64197281D01*
X117656839Y-63995532D01*
X117767060Y-63805647D01*
X117868908Y-63630606D01*
X117960665Y-63473394D01*
X118040613Y-63336991D01*
X118107034Y-63224380D01*
X118158209Y-63138543D01*
X118192420Y-63082462D01*
X118207948Y-63059119D01*
X118208598Y-63058621D01*
X118220878Y-63076166D01*
G37*
X118220878Y-63076166D02*
X118251876Y-63126538D01*
X118299634Y-63206341D01*
X118362194Y-63312180D01*
X118437597Y-63440659D01*
X118523885Y-63588384D01*
X118619101Y-63751958D01*
X118721285Y-63927987D01*
X118828481Y-64113075D01*
X118938729Y-64303827D01*
X119050071Y-64496847D01*
X119160550Y-64688741D01*
X119268207Y-64876111D01*
X119371084Y-65055565D01*
X119467223Y-65223705D01*
X119554665Y-65377137D01*
X119631453Y-65512465D01*
X119695628Y-65626294D01*
X119745233Y-65715229D01*
X119778309Y-65775874D01*
X119792897Y-65804833D01*
X119793431Y-65806644D01*
X119775321Y-65831217D01*
X119724980Y-65868807D01*
X119648395Y-65915722D01*
X119551552Y-65968274D01*
X119450167Y-66018213D01*
X119312215Y-66078769D01*
X119167142Y-66133179D01*
X119009950Y-66182651D01*
X118835643Y-66228395D01*
X118639222Y-66271620D01*
X118415689Y-66313534D01*
X118160048Y-66355347D01*
X117895606Y-66394284D01*
X117665852Y-66428828D01*
X117472917Y-66463026D01*
X117311964Y-66498577D01*
X117178155Y-66537182D01*
X117066650Y-66580539D01*
X116972614Y-66630348D01*
X116891206Y-66688309D01*
X116817590Y-66756120D01*
X116793851Y-66781312D01*
X116742397Y-66839958D01*
X116704334Y-66887815D01*
X116686677Y-66915958D01*
X116686206Y-66918265D01*
X116680028Y-66932416D01*
X116658590Y-66932575D01*
X116617533Y-66916861D01*
X116552501Y-66883391D01*
X116459137Y-66830281D01*
X116394252Y-66792088D01*
X116297501Y-66732385D01*
X116222312Y-66681263D01*
X116173739Y-66642399D01*
X116156835Y-66619472D01*
X116156845Y-66619305D01*
X116167328Y-66597456D01*
X116196931Y-66542739D01*
X116243938Y-66458136D01*
X116306629Y-66346629D01*
X116383286Y-66211201D01*
X116472191Y-66054833D01*
X116571626Y-65880507D01*
X116679872Y-65691206D01*
X116795211Y-65489911D01*
X116915924Y-65279605D01*
X117040294Y-65063271D01*
X117166601Y-64843889D01*
X117293127Y-64624442D01*
X117418155Y-64407912D01*
X117539965Y-64197281D01*
X117656839Y-63995532D01*
X117767060Y-63805647D01*
X117868908Y-63630606D01*
X117960665Y-63473394D01*
X118040613Y-63336991D01*
X118107034Y-63224380D01*
X118158209Y-63138543D01*
X118192420Y-63082462D01*
X118207948Y-63059119D01*
X118208598Y-63058621D01*
X118220878Y-63076166D01*
G36*
X120676146Y-67315908D02*
G01*
X120691469Y-67341590D01*
X120725911Y-67400469D01*
X120777769Y-67489602D01*
X120845340Y-67606049D01*
X120926921Y-67746867D01*
X121020809Y-67909114D01*
X121125299Y-68089849D01*
X121238690Y-68286130D01*
X121359278Y-68495016D01*
X121483313Y-68710017D01*
X121609987Y-68929649D01*
X121731608Y-69140495D01*
X121846412Y-69339499D01*
X121952638Y-69523607D01*
X122048523Y-69689765D01*
X122132302Y-69834917D01*
X122202214Y-69956009D01*
X122256496Y-70049988D01*
X122293385Y-70113797D01*
X122310731Y-70143719D01*
X122339007Y-70194271D01*
X122354382Y-70225914D01*
X122355224Y-70231420D01*
X122336488Y-70221082D01*
X122284386Y-70191407D01*
X122201640Y-70143968D01*
X122090975Y-70080333D01*
X121955114Y-70002074D01*
X121796781Y-69910759D01*
X121618698Y-69807960D01*
X121423590Y-69695247D01*
X121214180Y-69574189D01*
X120993191Y-69446357D01*
X120909113Y-69397702D01*
X120684170Y-69267567D01*
X120469524Y-69143497D01*
X120267932Y-69027077D01*
X120082148Y-68919893D01*
X119914928Y-68823531D01*
X119769027Y-68739578D01*
X119647201Y-68669620D01*
X119552204Y-68615243D01*
X119486792Y-68578034D01*
X119453720Y-68559578D01*
X119450262Y-68557830D01*
X119460339Y-68542005D01*
X119495407Y-68499692D01*
X119551885Y-68434790D01*
X119626193Y-68351196D01*
X119714752Y-68252809D01*
X119813980Y-68143525D01*
X119920298Y-68027244D01*
X120030125Y-67907862D01*
X120139882Y-67789277D01*
X120245988Y-67675388D01*
X120344862Y-67570092D01*
X120432926Y-67477287D01*
X120506599Y-67400870D01*
X120562300Y-67344740D01*
X120581403Y-67326335D01*
X120644708Y-67266872D01*
X120676146Y-67315908D01*
G37*
X120676146Y-67315908D02*
X120691469Y-67341590D01*
X120725911Y-67400469D01*
X120777769Y-67489602D01*
X120845340Y-67606049D01*
X120926921Y-67746867D01*
X121020809Y-67909114D01*
X121125299Y-68089849D01*
X121238690Y-68286130D01*
X121359278Y-68495016D01*
X121483313Y-68710017D01*
X121609987Y-68929649D01*
X121731608Y-69140495D01*
X121846412Y-69339499D01*
X121952638Y-69523607D01*
X122048523Y-69689765D01*
X122132302Y-69834917D01*
X122202214Y-69956009D01*
X122256496Y-70049988D01*
X122293385Y-70113797D01*
X122310731Y-70143719D01*
X122339007Y-70194271D01*
X122354382Y-70225914D01*
X122355224Y-70231420D01*
X122336488Y-70221082D01*
X122284386Y-70191407D01*
X122201640Y-70143968D01*
X122090975Y-70080333D01*
X121955114Y-70002074D01*
X121796781Y-69910759D01*
X121618698Y-69807960D01*
X121423590Y-69695247D01*
X121214180Y-69574189D01*
X120993191Y-69446357D01*
X120909113Y-69397702D01*
X120684170Y-69267567D01*
X120469524Y-69143497D01*
X120267932Y-69027077D01*
X120082148Y-68919893D01*
X119914928Y-68823531D01*
X119769027Y-68739578D01*
X119647201Y-68669620D01*
X119552204Y-68615243D01*
X119486792Y-68578034D01*
X119453720Y-68559578D01*
X119450262Y-68557830D01*
X119460339Y-68542005D01*
X119495407Y-68499692D01*
X119551885Y-68434790D01*
X119626193Y-68351196D01*
X119714752Y-68252809D01*
X119813980Y-68143525D01*
X119920298Y-68027244D01*
X120030125Y-67907862D01*
X120139882Y-67789277D01*
X120245988Y-67675388D01*
X120344862Y-67570092D01*
X120432926Y-67477287D01*
X120506599Y-67400870D01*
X120562300Y-67344740D01*
X120581403Y-67326335D01*
X120644708Y-67266872D01*
X120676146Y-67315908D01*
G36*
X115740749Y-67392036D02*
G01*
X115784544Y-67408972D01*
X115851293Y-67442601D01*
X115947137Y-67495334D01*
X115954599Y-67499525D01*
X116042871Y-67550001D01*
X116117363Y-67594223D01*
X116170760Y-67627731D01*
X116195746Y-67646064D01*
X116196445Y-67646962D01*
X116190409Y-67672414D01*
X116162723Y-67729255D01*
X116115188Y-67814389D01*
X116049611Y-67924717D01*
X115967797Y-68057144D01*
X115871548Y-68208571D01*
X115847594Y-68245707D01*
X115785183Y-68348757D01*
X115739737Y-68437432D01*
X115715246Y-68503714D01*
X115712733Y-68516807D01*
X115713848Y-68574443D01*
X115726343Y-68665865D01*
X115748660Y-68785208D01*
X115779240Y-68926609D01*
X115816528Y-69084203D01*
X115858965Y-69252126D01*
X115904994Y-69424514D01*
X115953057Y-69595501D01*
X116001597Y-69759224D01*
X116049057Y-69909818D01*
X116093878Y-70041420D01*
X116134503Y-70148163D01*
X116162823Y-70211494D01*
X116196183Y-70278957D01*
X116227682Y-70343511D01*
X116229387Y-70347045D01*
X116281498Y-70412250D01*
X116357554Y-70456156D01*
X116446092Y-70477197D01*
X116535648Y-70473807D01*
X116614758Y-70444423D01*
X116659264Y-70405736D01*
X116723356Y-70299636D01*
X116770322Y-70167405D01*
X116796090Y-70022527D01*
X116799741Y-69940394D01*
X116785039Y-69787105D01*
X116741890Y-69660166D01*
X116667972Y-69553418D01*
X116644921Y-69529657D01*
X116576325Y-69463009D01*
X116571614Y-68991916D01*
X116566903Y-68520822D01*
X116686946Y-68339106D01*
X116743277Y-68256856D01*
X116797528Y-68182865D01*
X116841959Y-68127448D01*
X116861056Y-68107056D01*
X116915124Y-68056723D01*
X116988350Y-68096158D01*
X117034633Y-68124415D01*
X117059957Y-68146354D01*
X117061576Y-68150299D01*
X117078884Y-68167023D01*
X117108497Y-68179476D01*
X117137114Y-68190700D01*
X117180934Y-68212024D01*
X117243718Y-68245529D01*
X117329228Y-68293296D01*
X117441226Y-68357407D01*
X117583473Y-68439944D01*
X117660773Y-68485065D01*
X117751702Y-68539111D01*
X117811339Y-68577604D01*
X117844961Y-68605044D01*
X117857844Y-68625934D01*
X117855265Y-68644775D01*
X117853115Y-68649152D01*
X117832197Y-68676714D01*
X117787440Y-68728416D01*
X117724057Y-68798475D01*
X117647262Y-68881107D01*
X117580844Y-68951156D01*
X117427790Y-69117414D01*
X117308056Y-69261519D01*
X117220573Y-69384921D01*
X117164274Y-69489068D01*
X117145284Y-69541954D01*
X117137440Y-69588250D01*
X117129338Y-69667221D01*
X117121691Y-69769846D01*
X117115212Y-69887103D01*
X117112163Y-69961248D01*
X117107908Y-70089427D01*
X117106036Y-70183138D01*
X117107099Y-70249583D01*
X117111646Y-70295961D01*
X117120227Y-70329474D01*
X117133394Y-70357321D01*
X117143735Y-70374324D01*
X117203456Y-70439862D01*
X117280411Y-70485532D01*
X117361380Y-70505450D01*
X117422058Y-70498244D01*
X117476999Y-70467066D01*
X117545867Y-70411230D01*
X117619005Y-70340474D01*
X117686752Y-70264537D01*
X117739450Y-70193159D01*
X117758853Y-70158668D01*
X117787919Y-70111441D01*
X117840783Y-70039506D01*
X117912616Y-69948485D01*
X117998588Y-69844000D01*
X118093868Y-69731675D01*
X118193627Y-69617130D01*
X118293034Y-69505990D01*
X118387259Y-69403875D01*
X118471473Y-69316408D01*
X118537591Y-69252198D01*
X118610999Y-69188057D01*
X118672753Y-69140763D01*
X118716066Y-69115235D01*
X118730445Y-69112429D01*
X118752479Y-69123752D01*
X118807438Y-69154144D01*
X118892152Y-69201780D01*
X119003448Y-69264835D01*
X119138156Y-69341485D01*
X119293103Y-69429905D01*
X119465119Y-69528270D01*
X119651032Y-69634756D01*
X119847670Y-69747537D01*
X120051863Y-69864789D01*
X120260439Y-69984687D01*
X120470225Y-70105407D01*
X120678052Y-70225123D01*
X120880747Y-70342011D01*
X121075140Y-70454246D01*
X121258058Y-70560004D01*
X121426330Y-70657460D01*
X121576785Y-70744788D01*
X121706251Y-70820165D01*
X121811557Y-70881765D01*
X121889532Y-70927764D01*
X121937004Y-70956337D01*
X121950763Y-70965304D01*
X121932231Y-70967076D01*
X121873933Y-70968799D01*
X121777809Y-70970464D01*
X121645799Y-70972063D01*
X121479846Y-70973587D01*
X121281889Y-70975029D01*
X121053870Y-70976380D01*
X120797729Y-70977632D01*
X120515408Y-70978776D01*
X120208847Y-70979804D01*
X119879987Y-70980708D01*
X119530769Y-70981479D01*
X119163135Y-70982109D01*
X118779024Y-70982590D01*
X118380377Y-70982914D01*
X117969137Y-70983072D01*
X117796580Y-70983087D01*
X113622586Y-70983087D01*
X113920268Y-70466954D01*
X113983286Y-70357665D01*
X114064406Y-70216940D01*
X114160916Y-70049486D01*
X114270103Y-69860012D01*
X114389255Y-69653223D01*
X114515660Y-69433828D01*
X114646605Y-69206533D01*
X114779379Y-68976046D01*
X114911269Y-68747073D01*
X114944624Y-68689163D01*
X115066247Y-68478232D01*
X115182228Y-68277535D01*
X115290825Y-68090059D01*
X115390294Y-67918792D01*
X115478892Y-67766723D01*
X115554878Y-67636838D01*
X115616507Y-67532125D01*
X115662037Y-67455573D01*
X115689725Y-67410169D01*
X115697472Y-67398609D01*
X115713772Y-67389385D01*
X115740749Y-67392036D01*
G37*
X115740749Y-67392036D02*
X115784544Y-67408972D01*
X115851293Y-67442601D01*
X115947137Y-67495334D01*
X115954599Y-67499525D01*
X116042871Y-67550001D01*
X116117363Y-67594223D01*
X116170760Y-67627731D01*
X116195746Y-67646064D01*
X116196445Y-67646962D01*
X116190409Y-67672414D01*
X116162723Y-67729255D01*
X116115188Y-67814389D01*
X116049611Y-67924717D01*
X115967797Y-68057144D01*
X115871548Y-68208571D01*
X115847594Y-68245707D01*
X115785183Y-68348757D01*
X115739737Y-68437432D01*
X115715246Y-68503714D01*
X115712733Y-68516807D01*
X115713848Y-68574443D01*
X115726343Y-68665865D01*
X115748660Y-68785208D01*
X115779240Y-68926609D01*
X115816528Y-69084203D01*
X115858965Y-69252126D01*
X115904994Y-69424514D01*
X115953057Y-69595501D01*
X116001597Y-69759224D01*
X116049057Y-69909818D01*
X116093878Y-70041420D01*
X116134503Y-70148163D01*
X116162823Y-70211494D01*
X116196183Y-70278957D01*
X116227682Y-70343511D01*
X116229387Y-70347045D01*
X116281498Y-70412250D01*
X116357554Y-70456156D01*
X116446092Y-70477197D01*
X116535648Y-70473807D01*
X116614758Y-70444423D01*
X116659264Y-70405736D01*
X116723356Y-70299636D01*
X116770322Y-70167405D01*
X116796090Y-70022527D01*
X116799741Y-69940394D01*
X116785039Y-69787105D01*
X116741890Y-69660166D01*
X116667972Y-69553418D01*
X116644921Y-69529657D01*
X116576325Y-69463009D01*
X116571614Y-68991916D01*
X116566903Y-68520822D01*
X116686946Y-68339106D01*
X116743277Y-68256856D01*
X116797528Y-68182865D01*
X116841959Y-68127448D01*
X116861056Y-68107056D01*
X116915124Y-68056723D01*
X116988350Y-68096158D01*
X117034633Y-68124415D01*
X117059957Y-68146354D01*
X117061576Y-68150299D01*
X117078884Y-68167023D01*
X117108497Y-68179476D01*
X117137114Y-68190700D01*
X117180934Y-68212024D01*
X117243718Y-68245529D01*
X117329228Y-68293296D01*
X117441226Y-68357407D01*
X117583473Y-68439944D01*
X117660773Y-68485065D01*
X117751702Y-68539111D01*
X117811339Y-68577604D01*
X117844961Y-68605044D01*
X117857844Y-68625934D01*
X117855265Y-68644775D01*
X117853115Y-68649152D01*
X117832197Y-68676714D01*
X117787440Y-68728416D01*
X117724057Y-68798475D01*
X117647262Y-68881107D01*
X117580844Y-68951156D01*
X117427790Y-69117414D01*
X117308056Y-69261519D01*
X117220573Y-69384921D01*
X117164274Y-69489068D01*
X117145284Y-69541954D01*
X117137440Y-69588250D01*
X117129338Y-69667221D01*
X117121691Y-69769846D01*
X117115212Y-69887103D01*
X117112163Y-69961248D01*
X117107908Y-70089427D01*
X117106036Y-70183138D01*
X117107099Y-70249583D01*
X117111646Y-70295961D01*
X117120227Y-70329474D01*
X117133394Y-70357321D01*
X117143735Y-70374324D01*
X117203456Y-70439862D01*
X117280411Y-70485532D01*
X117361380Y-70505450D01*
X117422058Y-70498244D01*
X117476999Y-70467066D01*
X117545867Y-70411230D01*
X117619005Y-70340474D01*
X117686752Y-70264537D01*
X117739450Y-70193159D01*
X117758853Y-70158668D01*
X117787919Y-70111441D01*
X117840783Y-70039506D01*
X117912616Y-69948485D01*
X117998588Y-69844000D01*
X118093868Y-69731675D01*
X118193627Y-69617130D01*
X118293034Y-69505990D01*
X118387259Y-69403875D01*
X118471473Y-69316408D01*
X118537591Y-69252198D01*
X118610999Y-69188057D01*
X118672753Y-69140763D01*
X118716066Y-69115235D01*
X118730445Y-69112429D01*
X118752479Y-69123752D01*
X118807438Y-69154144D01*
X118892152Y-69201780D01*
X119003448Y-69264835D01*
X119138156Y-69341485D01*
X119293103Y-69429905D01*
X119465119Y-69528270D01*
X119651032Y-69634756D01*
X119847670Y-69747537D01*
X120051863Y-69864789D01*
X120260439Y-69984687D01*
X120470225Y-70105407D01*
X120678052Y-70225123D01*
X120880747Y-70342011D01*
X121075140Y-70454246D01*
X121258058Y-70560004D01*
X121426330Y-70657460D01*
X121576785Y-70744788D01*
X121706251Y-70820165D01*
X121811557Y-70881765D01*
X121889532Y-70927764D01*
X121937004Y-70956337D01*
X121950763Y-70965304D01*
X121932231Y-70967076D01*
X121873933Y-70968799D01*
X121777809Y-70970464D01*
X121645799Y-70972063D01*
X121479846Y-70973587D01*
X121281889Y-70975029D01*
X121053870Y-70976380D01*
X120797729Y-70977632D01*
X120515408Y-70978776D01*
X120208847Y-70979804D01*
X119879987Y-70980708D01*
X119530769Y-70981479D01*
X119163135Y-70982109D01*
X118779024Y-70982590D01*
X118380377Y-70982914D01*
X117969137Y-70983072D01*
X117796580Y-70983087D01*
X113622586Y-70983087D01*
X113920268Y-70466954D01*
X113983286Y-70357665D01*
X114064406Y-70216940D01*
X114160916Y-70049486D01*
X114270103Y-69860012D01*
X114389255Y-69653223D01*
X114515660Y-69433828D01*
X114646605Y-69206533D01*
X114779379Y-68976046D01*
X114911269Y-68747073D01*
X114944624Y-68689163D01*
X115066247Y-68478232D01*
X115182228Y-68277535D01*
X115290825Y-68090059D01*
X115390294Y-67918792D01*
X115478892Y-67766723D01*
X115554878Y-67636838D01*
X115616507Y-67532125D01*
X115662037Y-67455573D01*
X115689725Y-67410169D01*
X115697472Y-67398609D01*
X115713772Y-67389385D01*
X115740749Y-67392036D01*
D12*
%TO.C,U2*%
X170180000Y-121470000D02*
X170180000Y-72270000D01*
X170180000Y-72270000D02*
X142280000Y-72270000D01*
X142280000Y-121470000D02*
X142280000Y-72270000D01*
%TO.C,SW4*%
X132715000Y-51435000D02*
X146685000Y-51435000D01*
X146685000Y-51435000D02*
X146685000Y-65405000D01*
X146685000Y-65405000D02*
X132715000Y-65405000D01*
X132715000Y-65405000D02*
X132715000Y-51435000D01*
%TO.C,SW3*%
X188595000Y-93345000D02*
X188595000Y-107315000D01*
X188595000Y-107315000D02*
X174625000Y-107315000D01*
X174625000Y-107315000D02*
X174625000Y-93345000D01*
X174625000Y-93345000D02*
X188595000Y-93345000D01*
%TO.C,SW2*%
X146685000Y-149225000D02*
X132715000Y-149225000D01*
X132715000Y-149225000D02*
X132715000Y-135255000D01*
X132715000Y-135255000D02*
X146685000Y-135255000D01*
X146685000Y-135255000D02*
X146685000Y-149225000D01*
%TO.C,SW1*%
X90805000Y-107315000D02*
X90805000Y-93345000D01*
X90805000Y-93345000D02*
X104775000Y-93345000D01*
X104775000Y-93345000D02*
X104775000Y-107315000D01*
X104775000Y-107315000D02*
X90805000Y-107315000D01*
%TO.C,R1*%
X115930000Y-88172936D02*
X115930000Y-89627064D01*
X117750000Y-88172936D02*
X117750000Y-89627064D01*
%TO.C,U1*%
X121220000Y-100220000D02*
X122620000Y-100220000D01*
X122620000Y-97900000D02*
X120720000Y-97900000D01*
%TO.C,TP8*%
X110310000Y-86540000D02*
X110310000Y-83640000D01*
X113210000Y-86540000D02*
X110310000Y-86540000D01*
X113210000Y-83640000D02*
X113210000Y-86540000D01*
X110310000Y-83640000D02*
X113210000Y-83640000D01*
%TO.C,TP7*%
X110310000Y-81460000D02*
X110310000Y-78560000D01*
X113210000Y-81460000D02*
X110310000Y-81460000D01*
X113210000Y-78560000D02*
X113210000Y-81460000D01*
X110310000Y-78560000D02*
X113210000Y-78560000D01*
%TO.C,TP6*%
X110310000Y-91620000D02*
X110310000Y-88720000D01*
X113210000Y-91620000D02*
X110310000Y-91620000D01*
X113210000Y-88720000D02*
X113210000Y-91620000D01*
X110310000Y-88720000D02*
X113210000Y-88720000D01*
%TO.C,TP3*%
X119200000Y-117020000D02*
X119200000Y-114120000D01*
X122100000Y-117020000D02*
X119200000Y-117020000D01*
X122100000Y-114120000D02*
X122100000Y-117020000D01*
X119200000Y-114120000D02*
X122100000Y-114120000D01*
%TO.C,TP2*%
X124280000Y-117020000D02*
X124280000Y-114120000D01*
X127180000Y-117020000D02*
X124280000Y-117020000D01*
X127180000Y-114120000D02*
X127180000Y-117020000D01*
X124280000Y-114120000D02*
X127180000Y-114120000D01*
%TO.C,L1*%
X121317936Y-95340000D02*
X122522064Y-95340000D01*
X121317936Y-92620000D02*
X122522064Y-92620000D01*
%TO.C,JP1*%
X115440000Y-92980000D02*
X118240000Y-92980000D01*
X118240000Y-92980000D02*
X118240000Y-94980000D01*
X118240000Y-94980000D02*
X115440000Y-94980000D01*
X115440000Y-94980000D02*
X115440000Y-92980000D01*
%TO.C,C2*%
X127735000Y-99321252D02*
X127735000Y-98798748D01*
X126265000Y-99321252D02*
X126265000Y-98798748D01*
%TO.C,C1*%
X118845000Y-99321252D02*
X118845000Y-98798748D01*
X117375000Y-99321252D02*
X117375000Y-98798748D01*
%TO.C,TP5*%
X166190000Y-139880000D02*
X166190000Y-136980000D01*
X169090000Y-139880000D02*
X166190000Y-139880000D01*
X169090000Y-136980000D02*
X169090000Y-139880000D01*
X166190000Y-136980000D02*
X169090000Y-136980000D01*
%TO.C,TP1*%
X138250000Y-92890000D02*
X138250000Y-89990000D01*
X141150000Y-92890000D02*
X138250000Y-92890000D01*
X141150000Y-89990000D02*
X141150000Y-92890000D01*
X138250000Y-89990000D02*
X141150000Y-89990000D01*
%TO.C,TP4*%
X110310000Y-76380000D02*
X110310000Y-73480000D01*
X113210000Y-76380000D02*
X110310000Y-76380000D01*
X113210000Y-73480000D02*
X113210000Y-76380000D01*
X110310000Y-73480000D02*
X113210000Y-73480000D01*
%TO.C,D5*%
X177640000Y-136100000D02*
X177640000Y-134950000D01*
X170340000Y-136100000D02*
X177640000Y-136100000D01*
X170340000Y-130600000D02*
X177640000Y-130600000D01*
%TO.C,D4*%
X176370000Y-70060000D02*
X176370000Y-68910000D01*
X169070000Y-70060000D02*
X176370000Y-70060000D01*
X169070000Y-64560000D02*
X176370000Y-64560000D01*
%TO.C,D3*%
X110330000Y-70060000D02*
X110330000Y-68910000D01*
X103030000Y-70060000D02*
X110330000Y-70060000D01*
X103030000Y-64560000D02*
X110330000Y-64560000D01*
%TO.C,D2*%
X110330000Y-136100000D02*
X110330000Y-134950000D01*
X103030000Y-136100000D02*
X110330000Y-136100000D01*
X103030000Y-130600000D02*
X110330000Y-130600000D01*
%TO.C,D1*%
X140810000Y-101810000D02*
X140810000Y-100660000D01*
X133510000Y-101810000D02*
X140810000Y-101810000D01*
X133510000Y-96310000D02*
X140810000Y-96310000D01*
%TO.C,H4*%
D13*
X119238095Y-56252380D02*
X119238095Y-55252380D01*
X119238095Y-55728571D02*
X119809523Y-55728571D01*
X119809523Y-56252380D02*
X119809523Y-55252380D01*
X120714285Y-55585714D02*
X120714285Y-56252380D01*
X120476190Y-55204761D02*
X120238095Y-55919047D01*
X120857142Y-55919047D01*
%TO.C,H3*%
X159238095Y-56252380D02*
X159238095Y-55252380D01*
X159238095Y-55728571D02*
X159809523Y-55728571D01*
X159809523Y-56252380D02*
X159809523Y-55252380D01*
X160190476Y-55252380D02*
X160809523Y-55252380D01*
X160476190Y-55633333D01*
X160619047Y-55633333D01*
X160714285Y-55680952D01*
X160761904Y-55728571D01*
X160809523Y-55823809D01*
X160809523Y-56061904D01*
X160761904Y-56157142D01*
X160714285Y-56204761D01*
X160619047Y-56252380D01*
X160333333Y-56252380D01*
X160238095Y-56204761D01*
X160190476Y-56157142D01*
%TO.C,H2*%
X159238095Y-136252380D02*
X159238095Y-135252380D01*
X159238095Y-135728571D02*
X159809523Y-135728571D01*
X159809523Y-136252380D02*
X159809523Y-135252380D01*
X160238095Y-135347619D02*
X160285714Y-135300000D01*
X160380952Y-135252380D01*
X160619047Y-135252380D01*
X160714285Y-135300000D01*
X160761904Y-135347619D01*
X160809523Y-135442857D01*
X160809523Y-135538095D01*
X160761904Y-135680952D01*
X160190476Y-136252380D01*
X160809523Y-136252380D01*
%TO.C,H1*%
X119238095Y-136252380D02*
X119238095Y-135252380D01*
X119238095Y-135728571D02*
X119809523Y-135728571D01*
X119809523Y-136252380D02*
X119809523Y-135252380D01*
X120809523Y-136252380D02*
X120238095Y-136252380D01*
X120523809Y-136252380D02*
X120523809Y-135252380D01*
X120428571Y-135395238D01*
X120333333Y-135490476D01*
X120238095Y-135538095D01*
%TO.C,U2*%
X139652380Y-126491904D02*
X140461904Y-126491904D01*
X140557142Y-126444285D01*
X140604761Y-126396666D01*
X140652380Y-126301428D01*
X140652380Y-126110952D01*
X140604761Y-126015714D01*
X140557142Y-125968095D01*
X140461904Y-125920476D01*
X139652380Y-125920476D01*
X139747619Y-125491904D02*
X139700000Y-125444285D01*
X139652380Y-125349047D01*
X139652380Y-125110952D01*
X139700000Y-125015714D01*
X139747619Y-124968095D01*
X139842857Y-124920476D01*
X139938095Y-124920476D01*
X140080952Y-124968095D01*
X140652380Y-125539523D01*
X140652380Y-124920476D01*
%TO.C,SW4*%
X138366666Y-50950761D02*
X138509523Y-50998380D01*
X138747619Y-50998380D01*
X138842857Y-50950761D01*
X138890476Y-50903142D01*
X138938095Y-50807904D01*
X138938095Y-50712666D01*
X138890476Y-50617428D01*
X138842857Y-50569809D01*
X138747619Y-50522190D01*
X138557142Y-50474571D01*
X138461904Y-50426952D01*
X138414285Y-50379333D01*
X138366666Y-50284095D01*
X138366666Y-50188857D01*
X138414285Y-50093619D01*
X138461904Y-50046000D01*
X138557142Y-49998380D01*
X138795238Y-49998380D01*
X138938095Y-50046000D01*
X139271428Y-49998380D02*
X139509523Y-50998380D01*
X139700000Y-50284095D01*
X139890476Y-50998380D01*
X140128571Y-49998380D01*
X140938095Y-50331714D02*
X140938095Y-50998380D01*
X140700000Y-49950761D02*
X140461904Y-50665047D01*
X141080952Y-50665047D01*
%TO.C,SW3*%
X189888761Y-101663333D02*
X189936380Y-101520476D01*
X189936380Y-101282380D01*
X189888761Y-101187142D01*
X189841142Y-101139523D01*
X189745904Y-101091904D01*
X189650666Y-101091904D01*
X189555428Y-101139523D01*
X189507809Y-101187142D01*
X189460190Y-101282380D01*
X189412571Y-101472857D01*
X189364952Y-101568095D01*
X189317333Y-101615714D01*
X189222095Y-101663333D01*
X189126857Y-101663333D01*
X189031619Y-101615714D01*
X188984000Y-101568095D01*
X188936380Y-101472857D01*
X188936380Y-101234761D01*
X188984000Y-101091904D01*
X188936380Y-100758571D02*
X189936380Y-100520476D01*
X189222095Y-100330000D01*
X189936380Y-100139523D01*
X188936380Y-99901428D01*
X188936380Y-99615714D02*
X188936380Y-98996666D01*
X189317333Y-99330000D01*
X189317333Y-99187142D01*
X189364952Y-99091904D01*
X189412571Y-99044285D01*
X189507809Y-98996666D01*
X189745904Y-98996666D01*
X189841142Y-99044285D01*
X189888761Y-99091904D01*
X189936380Y-99187142D01*
X189936380Y-99472857D01*
X189888761Y-99568095D01*
X189841142Y-99615714D01*
%TO.C,SW2*%
X138366666Y-150518761D02*
X138509523Y-150566380D01*
X138747619Y-150566380D01*
X138842857Y-150518761D01*
X138890476Y-150471142D01*
X138938095Y-150375904D01*
X138938095Y-150280666D01*
X138890476Y-150185428D01*
X138842857Y-150137809D01*
X138747619Y-150090190D01*
X138557142Y-150042571D01*
X138461904Y-149994952D01*
X138414285Y-149947333D01*
X138366666Y-149852095D01*
X138366666Y-149756857D01*
X138414285Y-149661619D01*
X138461904Y-149614000D01*
X138557142Y-149566380D01*
X138795238Y-149566380D01*
X138938095Y-149614000D01*
X139271428Y-149566380D02*
X139509523Y-150566380D01*
X139700000Y-149852095D01*
X139890476Y-150566380D01*
X140128571Y-149566380D01*
X140461904Y-149661619D02*
X140509523Y-149614000D01*
X140604761Y-149566380D01*
X140842857Y-149566380D01*
X140938095Y-149614000D01*
X140985714Y-149661619D01*
X141033333Y-149756857D01*
X141033333Y-149852095D01*
X140985714Y-149994952D01*
X140414285Y-150566380D01*
X141033333Y-150566380D01*
%TO.C,SW1*%
X90320761Y-101663333D02*
X90368380Y-101520476D01*
X90368380Y-101282380D01*
X90320761Y-101187142D01*
X90273142Y-101139523D01*
X90177904Y-101091904D01*
X90082666Y-101091904D01*
X89987428Y-101139523D01*
X89939809Y-101187142D01*
X89892190Y-101282380D01*
X89844571Y-101472857D01*
X89796952Y-101568095D01*
X89749333Y-101615714D01*
X89654095Y-101663333D01*
X89558857Y-101663333D01*
X89463619Y-101615714D01*
X89416000Y-101568095D01*
X89368380Y-101472857D01*
X89368380Y-101234761D01*
X89416000Y-101091904D01*
X89368380Y-100758571D02*
X90368380Y-100520476D01*
X89654095Y-100330000D01*
X90368380Y-100139523D01*
X89368380Y-99901428D01*
X90368380Y-98996666D02*
X90368380Y-99568095D01*
X90368380Y-99282380D02*
X89368380Y-99282380D01*
X89511238Y-99377619D01*
X89606476Y-99472857D01*
X89654095Y-99568095D01*
%TO.C,R1*%
X119112380Y-89066666D02*
X118636190Y-89400000D01*
X119112380Y-89638095D02*
X118112380Y-89638095D01*
X118112380Y-89257142D01*
X118160000Y-89161904D01*
X118207619Y-89114285D01*
X118302857Y-89066666D01*
X118445714Y-89066666D01*
X118540952Y-89114285D01*
X118588571Y-89161904D01*
X118636190Y-89257142D01*
X118636190Y-89638095D01*
X119112380Y-88114285D02*
X119112380Y-88685714D01*
X119112380Y-88400000D02*
X118112380Y-88400000D01*
X118255238Y-88495238D01*
X118350476Y-88590476D01*
X118398095Y-88685714D01*
%TO.C,U1*%
X121158095Y-96512380D02*
X121158095Y-97321904D01*
X121205714Y-97417142D01*
X121253333Y-97464761D01*
X121348571Y-97512380D01*
X121539047Y-97512380D01*
X121634285Y-97464761D01*
X121681904Y-97417142D01*
X121729523Y-97321904D01*
X121729523Y-96512380D01*
X122729523Y-97512380D02*
X122158095Y-97512380D01*
X122443809Y-97512380D02*
X122443809Y-96512380D01*
X122348571Y-96655238D01*
X122253333Y-96750476D01*
X122158095Y-96798095D01*
%TO.C,TP8*%
X110498095Y-82394380D02*
X111069523Y-82394380D01*
X110783809Y-83394380D02*
X110783809Y-82394380D01*
X111402857Y-83394380D02*
X111402857Y-82394380D01*
X111783809Y-82394380D01*
X111879047Y-82442000D01*
X111926666Y-82489619D01*
X111974285Y-82584857D01*
X111974285Y-82727714D01*
X111926666Y-82822952D01*
X111879047Y-82870571D01*
X111783809Y-82918190D01*
X111402857Y-82918190D01*
X112545714Y-82822952D02*
X112450476Y-82775333D01*
X112402857Y-82727714D01*
X112355238Y-82632476D01*
X112355238Y-82584857D01*
X112402857Y-82489619D01*
X112450476Y-82442000D01*
X112545714Y-82394380D01*
X112736190Y-82394380D01*
X112831428Y-82442000D01*
X112879047Y-82489619D01*
X112926666Y-82584857D01*
X112926666Y-82632476D01*
X112879047Y-82727714D01*
X112831428Y-82775333D01*
X112736190Y-82822952D01*
X112545714Y-82822952D01*
X112450476Y-82870571D01*
X112402857Y-82918190D01*
X112355238Y-83013428D01*
X112355238Y-83203904D01*
X112402857Y-83299142D01*
X112450476Y-83346761D01*
X112545714Y-83394380D01*
X112736190Y-83394380D01*
X112831428Y-83346761D01*
X112879047Y-83299142D01*
X112926666Y-83203904D01*
X112926666Y-83013428D01*
X112879047Y-82918190D01*
X112831428Y-82870571D01*
X112736190Y-82822952D01*
%TO.C,TP7*%
X110498095Y-77314380D02*
X111069523Y-77314380D01*
X110783809Y-78314380D02*
X110783809Y-77314380D01*
X111402857Y-78314380D02*
X111402857Y-77314380D01*
X111783809Y-77314380D01*
X111879047Y-77362000D01*
X111926666Y-77409619D01*
X111974285Y-77504857D01*
X111974285Y-77647714D01*
X111926666Y-77742952D01*
X111879047Y-77790571D01*
X111783809Y-77838190D01*
X111402857Y-77838190D01*
X112307619Y-77314380D02*
X112974285Y-77314380D01*
X112545714Y-78314380D01*
%TO.C,TP6*%
X110498095Y-87474380D02*
X111069523Y-87474380D01*
X110783809Y-88474380D02*
X110783809Y-87474380D01*
X111402857Y-88474380D02*
X111402857Y-87474380D01*
X111783809Y-87474380D01*
X111879047Y-87522000D01*
X111926666Y-87569619D01*
X111974285Y-87664857D01*
X111974285Y-87807714D01*
X111926666Y-87902952D01*
X111879047Y-87950571D01*
X111783809Y-87998190D01*
X111402857Y-87998190D01*
X112831428Y-87474380D02*
X112640952Y-87474380D01*
X112545714Y-87522000D01*
X112498095Y-87569619D01*
X112402857Y-87712476D01*
X112355238Y-87902952D01*
X112355238Y-88283904D01*
X112402857Y-88379142D01*
X112450476Y-88426761D01*
X112545714Y-88474380D01*
X112736190Y-88474380D01*
X112831428Y-88426761D01*
X112879047Y-88379142D01*
X112926666Y-88283904D01*
X112926666Y-88045809D01*
X112879047Y-87950571D01*
X112831428Y-87902952D01*
X112736190Y-87855333D01*
X112545714Y-87855333D01*
X112450476Y-87902952D01*
X112402857Y-87950571D01*
X112355238Y-88045809D01*
%TO.C,TP3*%
X119388095Y-112874380D02*
X119959523Y-112874380D01*
X119673809Y-113874380D02*
X119673809Y-112874380D01*
X120292857Y-113874380D02*
X120292857Y-112874380D01*
X120673809Y-112874380D01*
X120769047Y-112922000D01*
X120816666Y-112969619D01*
X120864285Y-113064857D01*
X120864285Y-113207714D01*
X120816666Y-113302952D01*
X120769047Y-113350571D01*
X120673809Y-113398190D01*
X120292857Y-113398190D01*
X121197619Y-112874380D02*
X121816666Y-112874380D01*
X121483333Y-113255333D01*
X121626190Y-113255333D01*
X121721428Y-113302952D01*
X121769047Y-113350571D01*
X121816666Y-113445809D01*
X121816666Y-113683904D01*
X121769047Y-113779142D01*
X121721428Y-113826761D01*
X121626190Y-113874380D01*
X121340476Y-113874380D01*
X121245238Y-113826761D01*
X121197619Y-113779142D01*
%TO.C,TP2*%
X124468095Y-112874380D02*
X125039523Y-112874380D01*
X124753809Y-113874380D02*
X124753809Y-112874380D01*
X125372857Y-113874380D02*
X125372857Y-112874380D01*
X125753809Y-112874380D01*
X125849047Y-112922000D01*
X125896666Y-112969619D01*
X125944285Y-113064857D01*
X125944285Y-113207714D01*
X125896666Y-113302952D01*
X125849047Y-113350571D01*
X125753809Y-113398190D01*
X125372857Y-113398190D01*
X126325238Y-112969619D02*
X126372857Y-112922000D01*
X126468095Y-112874380D01*
X126706190Y-112874380D01*
X126801428Y-112922000D01*
X126849047Y-112969619D01*
X126896666Y-113064857D01*
X126896666Y-113160095D01*
X126849047Y-113302952D01*
X126277619Y-113874380D01*
X126896666Y-113874380D01*
%TO.C,L1*%
X121753333Y-92152380D02*
X121277142Y-92152380D01*
X121277142Y-91152380D01*
X122610476Y-92152380D02*
X122039047Y-92152380D01*
X122324761Y-92152380D02*
X122324761Y-91152380D01*
X122229523Y-91295238D01*
X122134285Y-91390476D01*
X122039047Y-91438095D01*
%TO.C,JP1*%
X116006666Y-91632380D02*
X116006666Y-92346666D01*
X115959047Y-92489523D01*
X115863809Y-92584761D01*
X115720952Y-92632380D01*
X115625714Y-92632380D01*
X116482857Y-92632380D02*
X116482857Y-91632380D01*
X116863809Y-91632380D01*
X116959047Y-91680000D01*
X117006666Y-91727619D01*
X117054285Y-91822857D01*
X117054285Y-91965714D01*
X117006666Y-92060952D01*
X116959047Y-92108571D01*
X116863809Y-92156190D01*
X116482857Y-92156190D01*
X118006666Y-92632380D02*
X117435238Y-92632380D01*
X117720952Y-92632380D02*
X117720952Y-91632380D01*
X117625714Y-91775238D01*
X117530476Y-91870476D01*
X117435238Y-91918095D01*
%TO.C,C2*%
X125677142Y-99226666D02*
X125724761Y-99274285D01*
X125772380Y-99417142D01*
X125772380Y-99512380D01*
X125724761Y-99655238D01*
X125629523Y-99750476D01*
X125534285Y-99798095D01*
X125343809Y-99845714D01*
X125200952Y-99845714D01*
X125010476Y-99798095D01*
X124915238Y-99750476D01*
X124820000Y-99655238D01*
X124772380Y-99512380D01*
X124772380Y-99417142D01*
X124820000Y-99274285D01*
X124867619Y-99226666D01*
X124867619Y-98845714D02*
X124820000Y-98798095D01*
X124772380Y-98702857D01*
X124772380Y-98464761D01*
X124820000Y-98369523D01*
X124867619Y-98321904D01*
X124962857Y-98274285D01*
X125058095Y-98274285D01*
X125200952Y-98321904D01*
X125772380Y-98893333D01*
X125772380Y-98274285D01*
%TO.C,C1*%
X116787142Y-99226666D02*
X116834761Y-99274285D01*
X116882380Y-99417142D01*
X116882380Y-99512380D01*
X116834761Y-99655238D01*
X116739523Y-99750476D01*
X116644285Y-99798095D01*
X116453809Y-99845714D01*
X116310952Y-99845714D01*
X116120476Y-99798095D01*
X116025238Y-99750476D01*
X115930000Y-99655238D01*
X115882380Y-99512380D01*
X115882380Y-99417142D01*
X115930000Y-99274285D01*
X115977619Y-99226666D01*
X116882380Y-98274285D02*
X116882380Y-98845714D01*
X116882380Y-98560000D02*
X115882380Y-98560000D01*
X116025238Y-98655238D01*
X116120476Y-98750476D01*
X116168095Y-98845714D01*
%TO.C,TP5*%
X166378095Y-135734380D02*
X166949523Y-135734380D01*
X166663809Y-136734380D02*
X166663809Y-135734380D01*
X167282857Y-136734380D02*
X167282857Y-135734380D01*
X167663809Y-135734380D01*
X167759047Y-135782000D01*
X167806666Y-135829619D01*
X167854285Y-135924857D01*
X167854285Y-136067714D01*
X167806666Y-136162952D01*
X167759047Y-136210571D01*
X167663809Y-136258190D01*
X167282857Y-136258190D01*
X168759047Y-135734380D02*
X168282857Y-135734380D01*
X168235238Y-136210571D01*
X168282857Y-136162952D01*
X168378095Y-136115333D01*
X168616190Y-136115333D01*
X168711428Y-136162952D01*
X168759047Y-136210571D01*
X168806666Y-136305809D01*
X168806666Y-136543904D01*
X168759047Y-136639142D01*
X168711428Y-136686761D01*
X168616190Y-136734380D01*
X168378095Y-136734380D01*
X168282857Y-136686761D01*
X168235238Y-136639142D01*
%TO.C,TP1*%
X138438095Y-88744380D02*
X139009523Y-88744380D01*
X138723809Y-89744380D02*
X138723809Y-88744380D01*
X139342857Y-89744380D02*
X139342857Y-88744380D01*
X139723809Y-88744380D01*
X139819047Y-88792000D01*
X139866666Y-88839619D01*
X139914285Y-88934857D01*
X139914285Y-89077714D01*
X139866666Y-89172952D01*
X139819047Y-89220571D01*
X139723809Y-89268190D01*
X139342857Y-89268190D01*
X140866666Y-89744380D02*
X140295238Y-89744380D01*
X140580952Y-89744380D02*
X140580952Y-88744380D01*
X140485714Y-88887238D01*
X140390476Y-88982476D01*
X140295238Y-89030095D01*
%TO.C,TP4*%
X110498095Y-72234380D02*
X111069523Y-72234380D01*
X110783809Y-73234380D02*
X110783809Y-72234380D01*
X111402857Y-73234380D02*
X111402857Y-72234380D01*
X111783809Y-72234380D01*
X111879047Y-72282000D01*
X111926666Y-72329619D01*
X111974285Y-72424857D01*
X111974285Y-72567714D01*
X111926666Y-72662952D01*
X111879047Y-72710571D01*
X111783809Y-72758190D01*
X111402857Y-72758190D01*
X112831428Y-72567714D02*
X112831428Y-73234380D01*
X112593333Y-72186761D02*
X112355238Y-72901047D01*
X112974285Y-72901047D01*
%TO.C,D5*%
X173251904Y-130302380D02*
X173251904Y-129302380D01*
X173490000Y-129302380D01*
X173632857Y-129350000D01*
X173728095Y-129445238D01*
X173775714Y-129540476D01*
X173823333Y-129730952D01*
X173823333Y-129873809D01*
X173775714Y-130064285D01*
X173728095Y-130159523D01*
X173632857Y-130254761D01*
X173490000Y-130302380D01*
X173251904Y-130302380D01*
X174728095Y-129302380D02*
X174251904Y-129302380D01*
X174204285Y-129778571D01*
X174251904Y-129730952D01*
X174347142Y-129683333D01*
X174585238Y-129683333D01*
X174680476Y-129730952D01*
X174728095Y-129778571D01*
X174775714Y-129873809D01*
X174775714Y-130111904D01*
X174728095Y-130207142D01*
X174680476Y-130254761D01*
X174585238Y-130302380D01*
X174347142Y-130302380D01*
X174251904Y-130254761D01*
X174204285Y-130207142D01*
%TO.C,D4*%
X171981904Y-64262380D02*
X171981904Y-63262380D01*
X172220000Y-63262380D01*
X172362857Y-63310000D01*
X172458095Y-63405238D01*
X172505714Y-63500476D01*
X172553333Y-63690952D01*
X172553333Y-63833809D01*
X172505714Y-64024285D01*
X172458095Y-64119523D01*
X172362857Y-64214761D01*
X172220000Y-64262380D01*
X171981904Y-64262380D01*
X173410476Y-63595714D02*
X173410476Y-64262380D01*
X173172380Y-63214761D02*
X172934285Y-63929047D01*
X173553333Y-63929047D01*
%TO.C,D3*%
X105941904Y-64262380D02*
X105941904Y-63262380D01*
X106180000Y-63262380D01*
X106322857Y-63310000D01*
X106418095Y-63405238D01*
X106465714Y-63500476D01*
X106513333Y-63690952D01*
X106513333Y-63833809D01*
X106465714Y-64024285D01*
X106418095Y-64119523D01*
X106322857Y-64214761D01*
X106180000Y-64262380D01*
X105941904Y-64262380D01*
X106846666Y-63262380D02*
X107465714Y-63262380D01*
X107132380Y-63643333D01*
X107275238Y-63643333D01*
X107370476Y-63690952D01*
X107418095Y-63738571D01*
X107465714Y-63833809D01*
X107465714Y-64071904D01*
X107418095Y-64167142D01*
X107370476Y-64214761D01*
X107275238Y-64262380D01*
X106989523Y-64262380D01*
X106894285Y-64214761D01*
X106846666Y-64167142D01*
%TO.C,D2*%
X105941904Y-130302380D02*
X105941904Y-129302380D01*
X106180000Y-129302380D01*
X106322857Y-129350000D01*
X106418095Y-129445238D01*
X106465714Y-129540476D01*
X106513333Y-129730952D01*
X106513333Y-129873809D01*
X106465714Y-130064285D01*
X106418095Y-130159523D01*
X106322857Y-130254761D01*
X106180000Y-130302380D01*
X105941904Y-130302380D01*
X106894285Y-129397619D02*
X106941904Y-129350000D01*
X107037142Y-129302380D01*
X107275238Y-129302380D01*
X107370476Y-129350000D01*
X107418095Y-129397619D01*
X107465714Y-129492857D01*
X107465714Y-129588095D01*
X107418095Y-129730952D01*
X106846666Y-130302380D01*
X107465714Y-130302380D01*
%TO.C,D1*%
X136421904Y-96012380D02*
X136421904Y-95012380D01*
X136660000Y-95012380D01*
X136802857Y-95060000D01*
X136898095Y-95155238D01*
X136945714Y-95250476D01*
X136993333Y-95440952D01*
X136993333Y-95583809D01*
X136945714Y-95774285D01*
X136898095Y-95869523D01*
X136802857Y-95964761D01*
X136660000Y-96012380D01*
X136421904Y-96012380D01*
X137945714Y-96012380D02*
X137374285Y-96012380D01*
X137660000Y-96012380D02*
X137660000Y-95012380D01*
X137564761Y-95155238D01*
X137469523Y-95250476D01*
X137374285Y-95298095D01*
%TD*%
M02*
