ISO-10303-21;
HEADER;
/* Generated by software containing ST-Developer
 * from STEP Tools, Inc. (www.steptools.com) 
 */

FILE_DESCRIPTION(
/* description */ (''),
/* implementation_level */ '2;1');

FILE_NAME(
/* name */ 'C:/Users/bleim/Downloads/VL53L0_1XV2.step',
/* time_stamp */ '2022-04-10T13:23:51+02:00',
/* author */ (''),
/* organization */ (''),
/* preprocessor_version */ 'ST-DEVELOPER v18.1',
/* originating_system */ 'Autodesk Translation Framework v10.14.0.1471',

/* authorisation */ '');

FILE_SCHEMA (('AUTOMOTIVE_DESIGN { 1 0 10303 214 3 1 1 }'));
ENDSEC;

DATA;
#10=MECHANICAL_DESIGN_GEOMETRIC_PRESENTATION_REPRESENTATION('',(#77,#78,
#79,#80,#81,#82,#83,#84,#85,#86,#87,#88,#89),#2431);
#11=ITEM_DEFINED_TRANSFORMATION($,$,#1503,#1618);
#12=(
REPRESENTATION_RELATIONSHIP($,$,#2442,#2441)
REPRESENTATION_RELATIONSHIP_WITH_TRANSFORMATION(#11)
SHAPE_REPRESENTATION_RELATIONSHIP()
);
#13=CONTEXT_DEPENDENT_SHAPE_REPRESENTATION(#12,#2440);
#14=NEXT_ASSEMBLY_USAGE_OCCURRENCE('Components:1','Components:1',
'Components:1',#2444,#2445,'Components:1');
#15=FACE_BOUND('',#272,.T.);
#16=FACE_BOUND('',#273,.T.);
#17=FACE_BOUND('',#274,.T.);
#18=FACE_BOUND('',#275,.T.);
#19=FACE_BOUND('',#276,.T.);
#20=FACE_BOUND('',#277,.T.);
#21=FACE_BOUND('',#278,.T.);
#22=FACE_BOUND('',#279,.T.);
#23=FACE_BOUND('',#281,.T.);
#24=FACE_BOUND('',#282,.T.);
#25=FACE_BOUND('',#283,.T.);
#26=FACE_BOUND('',#284,.T.);
#27=FACE_BOUND('',#285,.T.);
#28=FACE_BOUND('',#286,.T.);
#29=FACE_BOUND('',#287,.T.);
#30=FACE_BOUND('',#288,.T.);
#31=CIRCLE('',#1565,0.8);
#32=CIRCLE('',#1566,0.8);
#33=CIRCLE('',#1569,0.8);
#34=CIRCLE('',#1570,0.8);
#35=CIRCLE('',#1573,0.8);
#36=CIRCLE('',#1574,0.8);
#37=CIRCLE('',#1577,0.8);
#38=CIRCLE('',#1578,0.8);
#39=CIRCLE('',#1581,0.600000000000001);
#40=CIRCLE('',#1582,0.600000000000001);
#41=CIRCLE('',#1584,0.600000000000001);
#42=CIRCLE('',#1585,0.600000000000001);
#43=CIRCLE('',#1587,0.600000000000001);
#44=CIRCLE('',#1588,0.600000000000001);
#45=CIRCLE('',#1590,0.600000000000001);
#46=CIRCLE('',#1591,0.600000000000001);
#47=CIRCLE('',#1593,0.600000000000001);
#48=CIRCLE('',#1594,0.600000000000001);
#49=CIRCLE('',#1596,0.600000000000001);
#50=CIRCLE('',#1597,0.600000000000001);
#51=CIRCLE('',#1599,1.5);
#52=CIRCLE('',#1600,1.5);
#53=CIRCLE('',#1602,1.5);
#54=CIRCLE('',#1603,1.5);
#55=CIRCLE('',#1606,2.6);
#56=CIRCLE('',#1607,2.6);
#57=CIRCLE('',#1612,2.6);
#58=CIRCLE('',#1613,2.6);
#59=CYLINDRICAL_SURFACE('',#1564,0.8);
#60=CYLINDRICAL_SURFACE('',#1568,0.8);
#61=CYLINDRICAL_SURFACE('',#1572,0.8);
#62=CYLINDRICAL_SURFACE('',#1576,0.8);
#63=CYLINDRICAL_SURFACE('',#1580,0.600000000000001);
#64=CYLINDRICAL_SURFACE('',#1583,0.600000000000001);
#65=CYLINDRICAL_SURFACE('',#1586,0.600000000000001);
#66=CYLINDRICAL_SURFACE('',#1589,0.600000000000001);
#67=CYLINDRICAL_SURFACE('',#1592,0.600000000000001);
#68=CYLINDRICAL_SURFACE('',#1595,0.600000000000001);
#69=CYLINDRICAL_SURFACE('',#1598,1.5);
#70=CYLINDRICAL_SURFACE('',#1601,1.5);
#71=CYLINDRICAL_SURFACE('',#1605,2.6);
#72=CYLINDRICAL_SURFACE('',#1611,2.6);
#73=SHAPE_REPRESENTATION_RELATIONSHIP('SRR','None',#2442,#75);
#74=SHAPE_REPRESENTATION_RELATIONSHIP('SRR','None',#2441,#76);
#75=ADVANCED_BREP_SHAPE_REPRESENTATION('',(#90,#91,#92,#93,#94,#95,#96,
#97,#98,#99),#2430);
#76=ADVANCED_BREP_SHAPE_REPRESENTATION('',(#100),#2429);
#77=STYLED_ITEM('',(#2458),#90);
#78=STYLED_ITEM('',(#2455),#91);
#79=STYLED_ITEM('',(#2459),#92);
#80=STYLED_ITEM('',(#2459),#93);
#81=STYLED_ITEM('',(#2459),#94);
#82=STYLED_ITEM('',(#2455),#95);
#83=STYLED_ITEM('',(#2455),#96);
#84=STYLED_ITEM('',(#2455),#97);
#85=STYLED_ITEM('',(#2455),#98);
#86=STYLED_ITEM('',(#2455),#99);
#87=STYLED_ITEM('',(#2457),#1467);
#88=STYLED_ITEM('',(#2457),#1468);
#89=STYLED_ITEM('',(#2456),#100);
#90=MANIFOLD_SOLID_BREP('LaserSensor',#1479);
#91=MANIFOLD_SOLID_BREP('K\X\F6rper5',#1480);
#92=MANIFOLD_SOLID_BREP('Res1',#1481);
#93=MANIFOLD_SOLID_BREP('Res2',#1482);
#94=MANIFOLD_SOLID_BREP('Res3',#1483);
#95=MANIFOLD_SOLID_BREP('K\X\F6rper6',#1484);
#96=MANIFOLD_SOLID_BREP('K\X\F6rper7',#1485);
#97=MANIFOLD_SOLID_BREP('K\X\F6rper8',#1486);
#98=MANIFOLD_SOLID_BREP('K\X\F6rper9',#1487);
#99=MANIFOLD_SOLID_BREP('K\X\F6rper10',#1488);
#100=MANIFOLD_SOLID_BREP('K\X\F6rper1',#1489);
#101=FACE_OUTER_BOUND('',#187,.T.);
#102=FACE_OUTER_BOUND('',#188,.T.);
#103=FACE_OUTER_BOUND('',#189,.T.);
#104=FACE_OUTER_BOUND('',#190,.T.);
#105=FACE_OUTER_BOUND('',#191,.T.);
#106=FACE_OUTER_BOUND('',#192,.T.);
#107=FACE_OUTER_BOUND('',#193,.T.);
#108=FACE_OUTER_BOUND('',#194,.T.);
#109=FACE_OUTER_BOUND('',#195,.T.);
#110=FACE_OUTER_BOUND('',#196,.T.);
#111=FACE_OUTER_BOUND('',#197,.T.);
#112=FACE_OUTER_BOUND('',#198,.T.);
#113=FACE_OUTER_BOUND('',#199,.T.);
#114=FACE_OUTER_BOUND('',#200,.T.);
#115=FACE_OUTER_BOUND('',#201,.T.);
#116=FACE_OUTER_BOUND('',#202,.T.);
#117=FACE_OUTER_BOUND('',#203,.T.);
#118=FACE_OUTER_BOUND('',#204,.T.);
#119=FACE_OUTER_BOUND('',#205,.T.);
#120=FACE_OUTER_BOUND('',#206,.T.);
#121=FACE_OUTER_BOUND('',#207,.T.);
#122=FACE_OUTER_BOUND('',#208,.T.);
#123=FACE_OUTER_BOUND('',#209,.T.);
#124=FACE_OUTER_BOUND('',#210,.T.);
#125=FACE_OUTER_BOUND('',#211,.T.);
#126=FACE_OUTER_BOUND('',#212,.T.);
#127=FACE_OUTER_BOUND('',#213,.T.);
#128=FACE_OUTER_BOUND('',#214,.T.);
#129=FACE_OUTER_BOUND('',#215,.T.);
#130=FACE_OUTER_BOUND('',#216,.T.);
#131=FACE_OUTER_BOUND('',#217,.T.);
#132=FACE_OUTER_BOUND('',#218,.T.);
#133=FACE_OUTER_BOUND('',#219,.T.);
#134=FACE_OUTER_BOUND('',#220,.T.);
#135=FACE_OUTER_BOUND('',#221,.T.);
#136=FACE_OUTER_BOUND('',#222,.T.);
#137=FACE_OUTER_BOUND('',#223,.T.);
#138=FACE_OUTER_BOUND('',#224,.T.);
#139=FACE_OUTER_BOUND('',#225,.T.);
#140=FACE_OUTER_BOUND('',#226,.T.);
#141=FACE_OUTER_BOUND('',#227,.T.);
#142=FACE_OUTER_BOUND('',#228,.T.);
#143=FACE_OUTER_BOUND('',#229,.T.);
#144=FACE_OUTER_BOUND('',#230,.T.);
#145=FACE_OUTER_BOUND('',#231,.T.);
#146=FACE_OUTER_BOUND('',#232,.T.);
#147=FACE_OUTER_BOUND('',#233,.T.);
#148=FACE_OUTER_BOUND('',#234,.T.);
#149=FACE_OUTER_BOUND('',#235,.T.);
#150=FACE_OUTER_BOUND('',#236,.T.);
#151=FACE_OUTER_BOUND('',#237,.T.);
#152=FACE_OUTER_BOUND('',#238,.T.);
#153=FACE_OUTER_BOUND('',#239,.T.);
#154=FACE_OUTER_BOUND('',#240,.T.);
#155=FACE_OUTER_BOUND('',#241,.T.);
#156=FACE_OUTER_BOUND('',#242,.T.);
#157=FACE_OUTER_BOUND('',#243,.T.);
#158=FACE_OUTER_BOUND('',#244,.T.);
#159=FACE_OUTER_BOUND('',#245,.T.);
#160=FACE_OUTER_BOUND('',#246,.T.);
#161=FACE_OUTER_BOUND('',#247,.T.);
#162=FACE_OUTER_BOUND('',#248,.T.);
#163=FACE_OUTER_BOUND('',#249,.T.);
#164=FACE_OUTER_BOUND('',#250,.T.);
#165=FACE_OUTER_BOUND('',#251,.T.);
#166=FACE_OUTER_BOUND('',#252,.T.);
#167=FACE_OUTER_BOUND('',#253,.T.);
#168=FACE_OUTER_BOUND('',#254,.T.);
#169=FACE_OUTER_BOUND('',#255,.T.);
#170=FACE_OUTER_BOUND('',#256,.T.);
#171=FACE_OUTER_BOUND('',#257,.T.);
#172=FACE_OUTER_BOUND('',#258,.T.);
#173=FACE_OUTER_BOUND('',#259,.T.);
#174=FACE_OUTER_BOUND('',#260,.T.);
#175=FACE_OUTER_BOUND('',#261,.T.);
#176=FACE_OUTER_BOUND('',#262,.T.);
#177=FACE_OUTER_BOUND('',#263,.T.);
#178=FACE_OUTER_BOUND('',#264,.T.);
#179=FACE_OUTER_BOUND('',#265,.T.);
#180=FACE_OUTER_BOUND('',#266,.T.);
#181=FACE_OUTER_BOUND('',#267,.T.);
#182=FACE_OUTER_BOUND('',#268,.T.);
#183=FACE_OUTER_BOUND('',#269,.T.);
#184=FACE_OUTER_BOUND('',#270,.T.);
#185=FACE_OUTER_BOUND('',#271,.T.);
#186=FACE_OUTER_BOUND('',#280,.T.);
#187=EDGE_LOOP('',(#937,#938,#939,#940));
#188=EDGE_LOOP('',(#941,#942,#943,#944));
#189=EDGE_LOOP('',(#945,#946,#947,#948));
#190=EDGE_LOOP('',(#949,#950,#951,#952));
#191=EDGE_LOOP('',(#953,#954,#955,#956));
#192=EDGE_LOOP('',(#957,#958,#959,#960));
#193=EDGE_LOOP('',(#961,#962,#963,#964));
#194=EDGE_LOOP('',(#965,#966,#967,#968));
#195=EDGE_LOOP('',(#969,#970,#971,#972));
#196=EDGE_LOOP('',(#973,#974,#975,#976));
#197=EDGE_LOOP('',(#977,#978,#979,#980));
#198=EDGE_LOOP('',(#981,#982,#983,#984));
#199=EDGE_LOOP('',(#985,#986,#987,#988));
#200=EDGE_LOOP('',(#989,#990,#991,#992));
#201=EDGE_LOOP('',(#993,#994,#995,#996));
#202=EDGE_LOOP('',(#997,#998,#999,#1000));
#203=EDGE_LOOP('',(#1001,#1002,#1003,#1004));
#204=EDGE_LOOP('',(#1005,#1006,#1007,#1008));
#205=EDGE_LOOP('',(#1009,#1010,#1011,#1012));
#206=EDGE_LOOP('',(#1013,#1014,#1015,#1016));
#207=EDGE_LOOP('',(#1017,#1018,#1019,#1020));
#208=EDGE_LOOP('',(#1021,#1022,#1023,#1024));
#209=EDGE_LOOP('',(#1025,#1026,#1027,#1028));
#210=EDGE_LOOP('',(#1029,#1030,#1031,#1032));
#211=EDGE_LOOP('',(#1033,#1034,#1035,#1036));
#212=EDGE_LOOP('',(#1037,#1038,#1039,#1040));
#213=EDGE_LOOP('',(#1041,#1042,#1043,#1044));
#214=EDGE_LOOP('',(#1045,#1046,#1047,#1048));
#215=EDGE_LOOP('',(#1049,#1050,#1051,#1052));
#216=EDGE_LOOP('',(#1053,#1054,#1055,#1056));
#217=EDGE_LOOP('',(#1057,#1058,#1059,#1060));
#218=EDGE_LOOP('',(#1061,#1062,#1063,#1064));
#219=EDGE_LOOP('',(#1065,#1066,#1067,#1068));
#220=EDGE_LOOP('',(#1069,#1070,#1071,#1072));
#221=EDGE_LOOP('',(#1073,#1074,#1075,#1076));
#222=EDGE_LOOP('',(#1077,#1078,#1079,#1080));
#223=EDGE_LOOP('',(#1081,#1082,#1083,#1084));
#224=EDGE_LOOP('',(#1085,#1086,#1087,#1088));
#225=EDGE_LOOP('',(#1089,#1090,#1091,#1092));
#226=EDGE_LOOP('',(#1093,#1094,#1095,#1096));
#227=EDGE_LOOP('',(#1097,#1098,#1099,#1100));
#228=EDGE_LOOP('',(#1101,#1102,#1103,#1104));
#229=EDGE_LOOP('',(#1105,#1106,#1107,#1108));
#230=EDGE_LOOP('',(#1109,#1110,#1111,#1112));
#231=EDGE_LOOP('',(#1113,#1114,#1115,#1116));
#232=EDGE_LOOP('',(#1117,#1118,#1119,#1120));
#233=EDGE_LOOP('',(#1121,#1122,#1123,#1124));
#234=EDGE_LOOP('',(#1125,#1126,#1127,#1128));
#235=EDGE_LOOP('',(#1129,#1130,#1131,#1132));
#236=EDGE_LOOP('',(#1133,#1134,#1135,#1136));
#237=EDGE_LOOP('',(#1137,#1138,#1139,#1140));
#238=EDGE_LOOP('',(#1141,#1142,#1143,#1144));
#239=EDGE_LOOP('',(#1145,#1146,#1147,#1148));
#240=EDGE_LOOP('',(#1149,#1150,#1151,#1152));
#241=EDGE_LOOP('',(#1153,#1154,#1155,#1156));
#242=EDGE_LOOP('',(#1157,#1158,#1159,#1160));
#243=EDGE_LOOP('',(#1161,#1162,#1163,#1164));
#244=EDGE_LOOP('',(#1165,#1166,#1167,#1168));
#245=EDGE_LOOP('',(#1169,#1170,#1171,#1172));
#246=EDGE_LOOP('',(#1173,#1174,#1175,#1176));
#247=EDGE_LOOP('',(#1177,#1178,#1179,#1180));
#248=EDGE_LOOP('',(#1181,#1182,#1183,#1184));
#249=EDGE_LOOP('',(#1185,#1186,#1187,#1188));
#250=EDGE_LOOP('',(#1189,#1190,#1191,#1192));
#251=EDGE_LOOP('',(#1193,#1194,#1195,#1196));
#252=EDGE_LOOP('',(#1197,#1198,#1199,#1200));
#253=EDGE_LOOP('',(#1201,#1202,#1203,#1204));
#254=EDGE_LOOP('',(#1205,#1206,#1207,#1208));
#255=EDGE_LOOP('',(#1209,#1210,#1211,#1212));
#256=EDGE_LOOP('',(#1213,#1214,#1215,#1216));
#257=EDGE_LOOP('',(#1217,#1218,#1219,#1220));
#258=EDGE_LOOP('',(#1221,#1222,#1223,#1224));
#259=EDGE_LOOP('',(#1225,#1226,#1227,#1228));
#260=EDGE_LOOP('',(#1229,#1230,#1231,#1232));
#261=EDGE_LOOP('',(#1233,#1234,#1235,#1236));
#262=EDGE_LOOP('',(#1237,#1238,#1239,#1240));
#263=EDGE_LOOP('',(#1241,#1242,#1243,#1244));
#264=EDGE_LOOP('',(#1245,#1246,#1247,#1248));
#265=EDGE_LOOP('',(#1249,#1250,#1251,#1252));
#266=EDGE_LOOP('',(#1253,#1254,#1255,#1256));
#267=EDGE_LOOP('',(#1257,#1258,#1259,#1260));
#268=EDGE_LOOP('',(#1261,#1262,#1263,#1264));
#269=EDGE_LOOP('',(#1265,#1266,#1267,#1268));
#270=EDGE_LOOP('',(#1269,#1270,#1271,#1272));
#271=EDGE_LOOP('',(#1273,#1274,#1275,#1276,#1277,#1278,#1279,#1280,#1281,
#1282,#1283,#1284,#1285,#1286,#1287,#1288));
#272=EDGE_LOOP('',(#1289));
#273=EDGE_LOOP('',(#1290));
#274=EDGE_LOOP('',(#1291));
#275=EDGE_LOOP('',(#1292));
#276=EDGE_LOOP('',(#1293));
#277=EDGE_LOOP('',(#1294));
#278=EDGE_LOOP('',(#1295));
#279=EDGE_LOOP('',(#1296));
#280=EDGE_LOOP('',(#1297,#1298,#1299,#1300,#1301,#1302,#1303,#1304,#1305,
#1306,#1307,#1308,#1309,#1310,#1311,#1312));
#281=EDGE_LOOP('',(#1313));
#282=EDGE_LOOP('',(#1314));
#283=EDGE_LOOP('',(#1315));
#284=EDGE_LOOP('',(#1316));
#285=EDGE_LOOP('',(#1317));
#286=EDGE_LOOP('',(#1318));
#287=EDGE_LOOP('',(#1319));
#288=EDGE_LOOP('',(#1320));
#289=LINE('',#2022,#453);
#290=LINE('',#2024,#454);
#291=LINE('',#2026,#455);
#292=LINE('',#2027,#456);
#293=LINE('',#2030,#457);
#294=LINE('',#2032,#458);
#295=LINE('',#2033,#459);
#296=LINE('',#2036,#460);
#297=LINE('',#2038,#461);
#298=LINE('',#2039,#462);
#299=LINE('',#2041,#463);
#300=LINE('',#2042,#464);
#301=LINE('',#2048,#465);
#302=LINE('',#2050,#466);
#303=LINE('',#2052,#467);
#304=LINE('',#2053,#468);
#305=LINE('',#2056,#469);
#306=LINE('',#2058,#470);
#307=LINE('',#2059,#471);
#308=LINE('',#2062,#472);
#309=LINE('',#2064,#473);
#310=LINE('',#2065,#474);
#311=LINE('',#2067,#475);
#312=LINE('',#2068,#476);
#313=LINE('',#2074,#477);
#314=LINE('',#2076,#478);
#315=LINE('',#2078,#479);
#316=LINE('',#2079,#480);
#317=LINE('',#2082,#481);
#318=LINE('',#2084,#482);
#319=LINE('',#2085,#483);
#320=LINE('',#2088,#484);
#321=LINE('',#2090,#485);
#322=LINE('',#2091,#486);
#323=LINE('',#2093,#487);
#324=LINE('',#2094,#488);
#325=LINE('',#2100,#489);
#326=LINE('',#2102,#490);
#327=LINE('',#2104,#491);
#328=LINE('',#2105,#492);
#329=LINE('',#2108,#493);
#330=LINE('',#2110,#494);
#331=LINE('',#2111,#495);
#332=LINE('',#2114,#496);
#333=LINE('',#2116,#497);
#334=LINE('',#2117,#498);
#335=LINE('',#2119,#499);
#336=LINE('',#2120,#500);
#337=LINE('',#2126,#501);
#338=LINE('',#2128,#502);
#339=LINE('',#2130,#503);
#340=LINE('',#2131,#504);
#341=LINE('',#2134,#505);
#342=LINE('',#2136,#506);
#343=LINE('',#2137,#507);
#344=LINE('',#2140,#508);
#345=LINE('',#2142,#509);
#346=LINE('',#2143,#510);
#347=LINE('',#2145,#511);
#348=LINE('',#2146,#512);
#349=LINE('',#2152,#513);
#350=LINE('',#2154,#514);
#351=LINE('',#2156,#515);
#352=LINE('',#2157,#516);
#353=LINE('',#2160,#517);
#354=LINE('',#2162,#518);
#355=LINE('',#2163,#519);
#356=LINE('',#2166,#520);
#357=LINE('',#2168,#521);
#358=LINE('',#2169,#522);
#359=LINE('',#2171,#523);
#360=LINE('',#2172,#524);
#361=LINE('',#2178,#525);
#362=LINE('',#2180,#526);
#363=LINE('',#2182,#527);
#364=LINE('',#2183,#528);
#365=LINE('',#2186,#529);
#366=LINE('',#2188,#530);
#367=LINE('',#2189,#531);
#368=LINE('',#2192,#532);
#369=LINE('',#2194,#533);
#370=LINE('',#2195,#534);
#371=LINE('',#2197,#535);
#372=LINE('',#2198,#536);
#373=LINE('',#2204,#537);
#374=LINE('',#2206,#538);
#375=LINE('',#2208,#539);
#376=LINE('',#2209,#540);
#377=LINE('',#2212,#541);
#378=LINE('',#2214,#542);
#379=LINE('',#2215,#543);
#380=LINE('',#2218,#544);
#381=LINE('',#2220,#545);
#382=LINE('',#2221,#546);
#383=LINE('',#2223,#547);
#384=LINE('',#2224,#548);
#385=LINE('',#2230,#549);
#386=LINE('',#2232,#550);
#387=LINE('',#2234,#551);
#388=LINE('',#2235,#552);
#389=LINE('',#2238,#553);
#390=LINE('',#2240,#554);
#391=LINE('',#2241,#555);
#392=LINE('',#2244,#556);
#393=LINE('',#2246,#557);
#394=LINE('',#2247,#558);
#395=LINE('',#2249,#559);
#396=LINE('',#2250,#560);
#397=LINE('',#2256,#561);
#398=LINE('',#2258,#562);
#399=LINE('',#2260,#563);
#400=LINE('',#2261,#564);
#401=LINE('',#2264,#565);
#402=LINE('',#2266,#566);
#403=LINE('',#2267,#567);
#404=LINE('',#2270,#568);
#405=LINE('',#2272,#569);
#406=LINE('',#2273,#570);
#407=LINE('',#2275,#571);
#408=LINE('',#2276,#572);
#409=LINE('',#2284,#573);
#410=LINE('',#2287,#574);
#411=LINE('',#2290,#575);
#412=LINE('',#2292,#576);
#413=LINE('',#2293,#577);
#414=LINE('',#2299,#578);
#415=LINE('',#2302,#579);
#416=LINE('',#2305,#580);
#417=LINE('',#2307,#581);
#418=LINE('',#2308,#582);
#419=LINE('',#2314,#583);
#420=LINE('',#2317,#584);
#421=LINE('',#2320,#585);
#422=LINE('',#2322,#586);
#423=LINE('',#2323,#587);
#424=LINE('',#2329,#588);
#425=LINE('',#2332,#589);
#426=LINE('',#2335,#590);
#427=LINE('',#2337,#591);
#428=LINE('',#2338,#592);
#429=LINE('',#2343,#593);
#430=LINE('',#2349,#594);
#431=LINE('',#2355,#595);
#432=LINE('',#2361,#596);
#433=LINE('',#2367,#597);
#434=LINE('',#2373,#598);
#435=LINE('',#2379,#599);
#436=LINE('',#2385,#600);
#437=LINE('',#2389,#601);
#438=LINE('',#2391,#602);
#439=LINE('',#2392,#603);
#440=LINE('',#2398,#604);
#441=LINE('',#2400,#605);
#442=LINE('',#2401,#606);
#443=LINE('',#2403,#607);
#444=LINE('',#2404,#608);
#445=LINE('',#2407,#609);
#446=LINE('',#2409,#610);
#447=LINE('',#2410,#611);
#448=LINE('',#2416,#612);
#449=LINE('',#2418,#613);
#450=LINE('',#2419,#614);
#451=LINE('',#2421,#615);
#452=LINE('',#2422,#616);
#453=VECTOR('',#1625,10.);
#454=VECTOR('',#1626,10.);
#455=VECTOR('',#1627,10.);
#456=VECTOR('',#1628,10.);
#457=VECTOR('',#1631,10.);
#458=VECTOR('',#1632,10.);
#459=VECTOR('',#1633,10.);
#460=VECTOR('',#1636,10.);
#461=VECTOR('',#1637,10.);
#462=VECTOR('',#1638,10.);
#463=VECTOR('',#1641,10.);
#464=VECTOR('',#1642,10.);
#465=VECTOR('',#1649,10.);
#466=VECTOR('',#1650,10.);
#467=VECTOR('',#1651,10.);
#468=VECTOR('',#1652,10.);
#469=VECTOR('',#1655,10.);
#470=VECTOR('',#1656,10.);
#471=VECTOR('',#1657,10.);
#472=VECTOR('',#1660,10.);
#473=VECTOR('',#1661,10.);
#474=VECTOR('',#1662,10.);
#475=VECTOR('',#1665,10.);
#476=VECTOR('',#1666,10.);
#477=VECTOR('',#1673,10.);
#478=VECTOR('',#1674,10.);
#479=VECTOR('',#1675,10.);
#480=VECTOR('',#1676,10.);
#481=VECTOR('',#1679,10.);
#482=VECTOR('',#1680,10.);
#483=VECTOR('',#1681,10.);
#484=VECTOR('',#1684,10.);
#485=VECTOR('',#1685,10.);
#486=VECTOR('',#1686,10.);
#487=VECTOR('',#1689,10.);
#488=VECTOR('',#1690,10.);
#489=VECTOR('',#1697,10.);
#490=VECTOR('',#1698,10.);
#491=VECTOR('',#1699,10.);
#492=VECTOR('',#1700,10.);
#493=VECTOR('',#1703,10.);
#494=VECTOR('',#1704,10.);
#495=VECTOR('',#1705,10.);
#496=VECTOR('',#1708,10.);
#497=VECTOR('',#1709,10.);
#498=VECTOR('',#1710,10.);
#499=VECTOR('',#1713,10.);
#500=VECTOR('',#1714,10.);
#501=VECTOR('',#1721,10.);
#502=VECTOR('',#1722,10.);
#503=VECTOR('',#1723,10.);
#504=VECTOR('',#1724,10.);
#505=VECTOR('',#1727,10.);
#506=VECTOR('',#1728,10.);
#507=VECTOR('',#1729,10.);
#508=VECTOR('',#1732,10.);
#509=VECTOR('',#1733,10.);
#510=VECTOR('',#1734,10.);
#511=VECTOR('',#1737,10.);
#512=VECTOR('',#1738,10.);
#513=VECTOR('',#1745,10.);
#514=VECTOR('',#1746,10.);
#515=VECTOR('',#1747,10.);
#516=VECTOR('',#1748,10.);
#517=VECTOR('',#1751,10.);
#518=VECTOR('',#1752,10.);
#519=VECTOR('',#1753,10.);
#520=VECTOR('',#1756,10.);
#521=VECTOR('',#1757,10.);
#522=VECTOR('',#1758,10.);
#523=VECTOR('',#1761,10.);
#524=VECTOR('',#1762,10.);
#525=VECTOR('',#1769,10.);
#526=VECTOR('',#1770,10.);
#527=VECTOR('',#1771,10.);
#528=VECTOR('',#1772,10.);
#529=VECTOR('',#1775,10.);
#530=VECTOR('',#1776,10.);
#531=VECTOR('',#1777,10.);
#532=VECTOR('',#1780,10.);
#533=VECTOR('',#1781,10.);
#534=VECTOR('',#1782,10.);
#535=VECTOR('',#1785,10.);
#536=VECTOR('',#1786,10.);
#537=VECTOR('',#1793,10.);
#538=VECTOR('',#1794,10.);
#539=VECTOR('',#1795,10.);
#540=VECTOR('',#1796,10.);
#541=VECTOR('',#1799,10.);
#542=VECTOR('',#1800,10.);
#543=VECTOR('',#1801,10.);
#544=VECTOR('',#1804,10.);
#545=VECTOR('',#1805,10.);
#546=VECTOR('',#1806,10.);
#547=VECTOR('',#1809,10.);
#548=VECTOR('',#1810,10.);
#549=VECTOR('',#1817,10.);
#550=VECTOR('',#1818,10.);
#551=VECTOR('',#1819,10.);
#552=VECTOR('',#1820,10.);
#553=VECTOR('',#1823,10.);
#554=VECTOR('',#1824,10.);
#555=VECTOR('',#1825,10.);
#556=VECTOR('',#1828,10.);
#557=VECTOR('',#1829,10.);
#558=VECTOR('',#1830,10.);
#559=VECTOR('',#1833,10.);
#560=VECTOR('',#1834,10.);
#561=VECTOR('',#1841,10.);
#562=VECTOR('',#1842,10.);
#563=VECTOR('',#1843,10.);
#564=VECTOR('',#1844,10.);
#565=VECTOR('',#1847,10.);
#566=VECTOR('',#1848,10.);
#567=VECTOR('',#1849,10.);
#568=VECTOR('',#1852,10.);
#569=VECTOR('',#1853,10.);
#570=VECTOR('',#1854,10.);
#571=VECTOR('',#1857,10.);
#572=VECTOR('',#1858,10.);
#573=VECTOR('',#1867,10.);
#574=VECTOR('',#1870,10.);
#575=VECTOR('',#1873,10.);
#576=VECTOR('',#1874,10.);
#577=VECTOR('',#1875,10.);
#578=VECTOR('',#1880,10.);
#579=VECTOR('',#1883,10.);
#580=VECTOR('',#1886,10.);
#581=VECTOR('',#1887,10.);
#582=VECTOR('',#1888,10.);
#583=VECTOR('',#1893,10.);
#584=VECTOR('',#1896,10.);
#585=VECTOR('',#1899,10.);
#586=VECTOR('',#1900,10.);
#587=VECTOR('',#1901,10.);
#588=VECTOR('',#1906,10.);
#589=VECTOR('',#1909,10.);
#590=VECTOR('',#1912,10.);
#591=VECTOR('',#1913,10.);
#592=VECTOR('',#1914,10.);
#593=VECTOR('',#1919,0.600000000000001);
#594=VECTOR('',#1926,0.600000000000001);
#595=VECTOR('',#1933,0.600000000000001);
#596=VECTOR('',#1940,0.600000000000001);
#597=VECTOR('',#1947,0.600000000000001);
#598=VECTOR('',#1954,0.600000000000001);
#599=VECTOR('',#1961,1.5);
#600=VECTOR('',#1968,1.5);
#601=VECTOR('',#1973,10.);
#602=VECTOR('',#1974,10.);
#603=VECTOR('',#1975,10.);
#604=VECTOR('',#1984,10.);
#605=VECTOR('',#1985,10.);
#606=VECTOR('',#1986,10.);
#607=VECTOR('',#1989,10.);
#608=VECTOR('',#1990,10.);
#609=VECTOR('',#1993,10.);
#610=VECTOR('',#1994,10.);
#611=VECTOR('',#1995,10.);
#612=VECTOR('',#2004,10.);
#613=VECTOR('',#2005,10.);
#614=VECTOR('',#2006,10.);
#615=VECTOR('',#2009,10.);
#616=VECTOR('',#2010,10.);
#617=VERTEX_POINT('',#2020);
#618=VERTEX_POINT('',#2021);
#619=VERTEX_POINT('',#2023);
#620=VERTEX_POINT('',#2025);
#621=VERTEX_POINT('',#2029);
#622=VERTEX_POINT('',#2031);
#623=VERTEX_POINT('',#2035);
#624=VERTEX_POINT('',#2037);
#625=VERTEX_POINT('',#2046);
#626=VERTEX_POINT('',#2047);
#627=VERTEX_POINT('',#2049);
#628=VERTEX_POINT('',#2051);
#629=VERTEX_POINT('',#2055);
#630=VERTEX_POINT('',#2057);
#631=VERTEX_POINT('',#2061);
#632=VERTEX_POINT('',#2063);
#633=VERTEX_POINT('',#2072);
#634=VERTEX_POINT('',#2073);
#635=VERTEX_POINT('',#2075);
#636=VERTEX_POINT('',#2077);
#637=VERTEX_POINT('',#2081);
#638=VERTEX_POINT('',#2083);
#639=VERTEX_POINT('',#2087);
#640=VERTEX_POINT('',#2089);
#641=VERTEX_POINT('',#2098);
#642=VERTEX_POINT('',#2099);
#643=VERTEX_POINT('',#2101);
#644=VERTEX_POINT('',#2103);
#645=VERTEX_POINT('',#2107);
#646=VERTEX_POINT('',#2109);
#647=VERTEX_POINT('',#2113);
#648=VERTEX_POINT('',#2115);
#649=VERTEX_POINT('',#2124);
#650=VERTEX_POINT('',#2125);
#651=VERTEX_POINT('',#2127);
#652=VERTEX_POINT('',#2129);
#653=VERTEX_POINT('',#2133);
#654=VERTEX_POINT('',#2135);
#655=VERTEX_POINT('',#2139);
#656=VERTEX_POINT('',#2141);
#657=VERTEX_POINT('',#2150);
#658=VERTEX_POINT('',#2151);
#659=VERTEX_POINT('',#2153);
#660=VERTEX_POINT('',#2155);
#661=VERTEX_POINT('',#2159);
#662=VERTEX_POINT('',#2161);
#663=VERTEX_POINT('',#2165);
#664=VERTEX_POINT('',#2167);
#665=VERTEX_POINT('',#2176);
#666=VERTEX_POINT('',#2177);
#667=VERTEX_POINT('',#2179);
#668=VERTEX_POINT('',#2181);
#669=VERTEX_POINT('',#2185);
#670=VERTEX_POINT('',#2187);
#671=VERTEX_POINT('',#2191);
#672=VERTEX_POINT('',#2193);
#673=VERTEX_POINT('',#2202);
#674=VERTEX_POINT('',#2203);
#675=VERTEX_POINT('',#2205);
#676=VERTEX_POINT('',#2207);
#677=VERTEX_POINT('',#2211);
#678=VERTEX_POINT('',#2213);
#679=VERTEX_POINT('',#2217);
#680=VERTEX_POINT('',#2219);
#681=VERTEX_POINT('',#2228);
#682=VERTEX_POINT('',#2229);
#683=VERTEX_POINT('',#2231);
#684=VERTEX_POINT('',#2233);
#685=VERTEX_POINT('',#2237);
#686=VERTEX_POINT('',#2239);
#687=VERTEX_POINT('',#2243);
#688=VERTEX_POINT('',#2245);
#689=VERTEX_POINT('',#2254);
#690=VERTEX_POINT('',#2255);
#691=VERTEX_POINT('',#2257);
#692=VERTEX_POINT('',#2259);
#693=VERTEX_POINT('',#2263);
#694=VERTEX_POINT('',#2265);
#695=VERTEX_POINT('',#2269);
#696=VERTEX_POINT('',#2271);
#697=VERTEX_POINT('',#2280);
#698=VERTEX_POINT('',#2281);
#699=VERTEX_POINT('',#2283);
#700=VERTEX_POINT('',#2285);
#701=VERTEX_POINT('',#2289);
#702=VERTEX_POINT('',#2291);
#703=VERTEX_POINT('',#2295);
#704=VERTEX_POINT('',#2296);
#705=VERTEX_POINT('',#2298);
#706=VERTEX_POINT('',#2300);
#707=VERTEX_POINT('',#2304);
#708=VERTEX_POINT('',#2306);
#709=VERTEX_POINT('',#2310);
#710=VERTEX_POINT('',#2311);
#711=VERTEX_POINT('',#2313);
#712=VERTEX_POINT('',#2315);
#713=VERTEX_POINT('',#2319);
#714=VERTEX_POINT('',#2321);
#715=VERTEX_POINT('',#2325);
#716=VERTEX_POINT('',#2326);
#717=VERTEX_POINT('',#2328);
#718=VERTEX_POINT('',#2330);
#719=VERTEX_POINT('',#2334);
#720=VERTEX_POINT('',#2336);
#721=VERTEX_POINT('',#2340);
#722=VERTEX_POINT('',#2342);
#723=VERTEX_POINT('',#2346);
#724=VERTEX_POINT('',#2348);
#725=VERTEX_POINT('',#2352);
#726=VERTEX_POINT('',#2354);
#727=VERTEX_POINT('',#2358);
#728=VERTEX_POINT('',#2360);
#729=VERTEX_POINT('',#2364);
#730=VERTEX_POINT('',#2366);
#731=VERTEX_POINT('',#2370);
#732=VERTEX_POINT('',#2372);
#733=VERTEX_POINT('',#2376);
#734=VERTEX_POINT('',#2378);
#735=VERTEX_POINT('',#2382);
#736=VERTEX_POINT('',#2384);
#737=VERTEX_POINT('',#2388);
#738=VERTEX_POINT('',#2390);
#739=VERTEX_POINT('',#2397);
#740=VERTEX_POINT('',#2399);
#741=VERTEX_POINT('',#2406);
#742=VERTEX_POINT('',#2408);
#743=VERTEX_POINT('',#2415);
#744=VERTEX_POINT('',#2417);
#745=EDGE_CURVE('',#617,#618,#289,.T.);
#746=EDGE_CURVE('',#617,#619,#290,.T.);
#747=EDGE_CURVE('',#620,#619,#291,.T.);
#748=EDGE_CURVE('',#618,#620,#292,.T.);
#749=EDGE_CURVE('',#618,#621,#293,.T.);
#750=EDGE_CURVE('',#622,#620,#294,.T.);
#751=EDGE_CURVE('',#621,#622,#295,.T.);
#752=EDGE_CURVE('',#621,#623,#296,.T.);
#753=EDGE_CURVE('',#624,#622,#297,.T.);
#754=EDGE_CURVE('',#623,#624,#298,.T.);
#755=EDGE_CURVE('',#623,#617,#299,.T.);
#756=EDGE_CURVE('',#619,#624,#300,.T.);
#757=EDGE_CURVE('',#625,#626,#301,.T.);
#758=EDGE_CURVE('',#625,#627,#302,.T.);
#759=EDGE_CURVE('',#628,#627,#303,.T.);
#760=EDGE_CURVE('',#626,#628,#304,.T.);
#761=EDGE_CURVE('',#626,#629,#305,.T.);
#762=EDGE_CURVE('',#630,#628,#306,.T.);
#763=EDGE_CURVE('',#629,#630,#307,.T.);
#764=EDGE_CURVE('',#629,#631,#308,.T.);
#765=EDGE_CURVE('',#632,#630,#309,.T.);
#766=EDGE_CURVE('',#631,#632,#310,.T.);
#767=EDGE_CURVE('',#631,#625,#311,.T.);
#768=EDGE_CURVE('',#627,#632,#312,.T.);
#769=EDGE_CURVE('',#633,#634,#313,.T.);
#770=EDGE_CURVE('',#634,#635,#314,.T.);
#771=EDGE_CURVE('',#636,#635,#315,.T.);
#772=EDGE_CURVE('',#633,#636,#316,.T.);
#773=EDGE_CURVE('',#637,#633,#317,.T.);
#774=EDGE_CURVE('',#638,#636,#318,.T.);
#775=EDGE_CURVE('',#637,#638,#319,.T.);
#776=EDGE_CURVE('',#639,#637,#320,.T.);
#777=EDGE_CURVE('',#640,#638,#321,.T.);
#778=EDGE_CURVE('',#639,#640,#322,.T.);
#779=EDGE_CURVE('',#634,#639,#323,.T.);
#780=EDGE_CURVE('',#635,#640,#324,.T.);
#781=EDGE_CURVE('',#641,#642,#325,.T.);
#782=EDGE_CURVE('',#642,#643,#326,.T.);
#783=EDGE_CURVE('',#644,#643,#327,.T.);
#784=EDGE_CURVE('',#641,#644,#328,.T.);
#785=EDGE_CURVE('',#645,#641,#329,.T.);
#786=EDGE_CURVE('',#646,#644,#330,.T.);
#787=EDGE_CURVE('',#645,#646,#331,.T.);
#788=EDGE_CURVE('',#647,#645,#332,.T.);
#789=EDGE_CURVE('',#648,#646,#333,.T.);
#790=EDGE_CURVE('',#647,#648,#334,.T.);
#791=EDGE_CURVE('',#642,#647,#335,.T.);
#792=EDGE_CURVE('',#643,#648,#336,.T.);
#793=EDGE_CURVE('',#649,#650,#337,.T.);
#794=EDGE_CURVE('',#650,#651,#338,.T.);
#795=EDGE_CURVE('',#652,#651,#339,.T.);
#796=EDGE_CURVE('',#649,#652,#340,.T.);
#797=EDGE_CURVE('',#653,#649,#341,.T.);
#798=EDGE_CURVE('',#654,#652,#342,.T.);
#799=EDGE_CURVE('',#653,#654,#343,.T.);
#800=EDGE_CURVE('',#655,#653,#344,.T.);
#801=EDGE_CURVE('',#656,#654,#345,.T.);
#802=EDGE_CURVE('',#655,#656,#346,.T.);
#803=EDGE_CURVE('',#650,#655,#347,.T.);
#804=EDGE_CURVE('',#651,#656,#348,.T.);
#805=EDGE_CURVE('',#657,#658,#349,.T.);
#806=EDGE_CURVE('',#657,#659,#350,.T.);
#807=EDGE_CURVE('',#660,#659,#351,.T.);
#808=EDGE_CURVE('',#658,#660,#352,.T.);
#809=EDGE_CURVE('',#658,#661,#353,.T.);
#810=EDGE_CURVE('',#662,#660,#354,.T.);
#811=EDGE_CURVE('',#661,#662,#355,.T.);
#812=EDGE_CURVE('',#661,#663,#356,.T.);
#813=EDGE_CURVE('',#664,#662,#357,.T.);
#814=EDGE_CURVE('',#663,#664,#358,.T.);
#815=EDGE_CURVE('',#663,#657,#359,.T.);
#816=EDGE_CURVE('',#659,#664,#360,.T.);
#817=EDGE_CURVE('',#665,#666,#361,.T.);
#818=EDGE_CURVE('',#665,#667,#362,.T.);
#819=EDGE_CURVE('',#668,#667,#363,.T.);
#820=EDGE_CURVE('',#666,#668,#364,.T.);
#821=EDGE_CURVE('',#666,#669,#365,.T.);
#822=EDGE_CURVE('',#670,#668,#366,.T.);
#823=EDGE_CURVE('',#669,#670,#367,.T.);
#824=EDGE_CURVE('',#669,#671,#368,.T.);
#825=EDGE_CURVE('',#672,#670,#369,.T.);
#826=EDGE_CURVE('',#671,#672,#370,.T.);
#827=EDGE_CURVE('',#671,#665,#371,.T.);
#828=EDGE_CURVE('',#667,#672,#372,.T.);
#829=EDGE_CURVE('',#673,#674,#373,.T.);
#830=EDGE_CURVE('',#673,#675,#374,.T.);
#831=EDGE_CURVE('',#676,#675,#375,.T.);
#832=EDGE_CURVE('',#674,#676,#376,.T.);
#833=EDGE_CURVE('',#674,#677,#377,.T.);
#834=EDGE_CURVE('',#678,#676,#378,.T.);
#835=EDGE_CURVE('',#677,#678,#379,.T.);
#836=EDGE_CURVE('',#677,#679,#380,.T.);
#837=EDGE_CURVE('',#680,#678,#381,.T.);
#838=EDGE_CURVE('',#679,#680,#382,.T.);
#839=EDGE_CURVE('',#679,#673,#383,.T.);
#840=EDGE_CURVE('',#675,#680,#384,.T.);
#841=EDGE_CURVE('',#681,#682,#385,.T.);
#842=EDGE_CURVE('',#682,#683,#386,.T.);
#843=EDGE_CURVE('',#684,#683,#387,.T.);
#844=EDGE_CURVE('',#681,#684,#388,.T.);
#845=EDGE_CURVE('',#685,#681,#389,.T.);
#846=EDGE_CURVE('',#686,#684,#390,.T.);
#847=EDGE_CURVE('',#685,#686,#391,.T.);
#848=EDGE_CURVE('',#687,#685,#392,.T.);
#849=EDGE_CURVE('',#688,#686,#393,.T.);
#850=EDGE_CURVE('',#687,#688,#394,.T.);
#851=EDGE_CURVE('',#682,#687,#395,.T.);
#852=EDGE_CURVE('',#683,#688,#396,.T.);
#853=EDGE_CURVE('',#689,#690,#397,.T.);
#854=EDGE_CURVE('',#689,#691,#398,.T.);
#855=EDGE_CURVE('',#692,#691,#399,.T.);
#856=EDGE_CURVE('',#690,#692,#400,.T.);
#857=EDGE_CURVE('',#690,#693,#401,.T.);
#858=EDGE_CURVE('',#694,#692,#402,.T.);
#859=EDGE_CURVE('',#693,#694,#403,.T.);
#860=EDGE_CURVE('',#693,#695,#404,.T.);
#861=EDGE_CURVE('',#696,#694,#405,.T.);
#862=EDGE_CURVE('',#695,#696,#406,.T.);
#863=EDGE_CURVE('',#695,#689,#407,.T.);
#864=EDGE_CURVE('',#691,#696,#408,.T.);
#865=EDGE_CURVE('',#697,#698,#31,.T.);
#866=EDGE_CURVE('',#698,#699,#409,.T.);
#867=EDGE_CURVE('',#699,#700,#32,.T.);
#868=EDGE_CURVE('',#700,#697,#410,.T.);
#869=EDGE_CURVE('',#698,#701,#411,.T.);
#870=EDGE_CURVE('',#701,#702,#412,.T.);
#871=EDGE_CURVE('',#699,#702,#413,.T.);
#872=EDGE_CURVE('',#703,#704,#33,.T.);
#873=EDGE_CURVE('',#704,#705,#414,.T.);
#874=EDGE_CURVE('',#705,#706,#34,.T.);
#875=EDGE_CURVE('',#706,#703,#415,.T.);
#876=EDGE_CURVE('',#704,#707,#416,.T.);
#877=EDGE_CURVE('',#707,#708,#417,.T.);
#878=EDGE_CURVE('',#705,#708,#418,.T.);
#879=EDGE_CURVE('',#709,#710,#35,.T.);
#880=EDGE_CURVE('',#710,#711,#419,.T.);
#881=EDGE_CURVE('',#711,#712,#36,.T.);
#882=EDGE_CURVE('',#712,#709,#420,.T.);
#883=EDGE_CURVE('',#710,#713,#421,.T.);
#884=EDGE_CURVE('',#713,#714,#422,.T.);
#885=EDGE_CURVE('',#711,#714,#423,.T.);
#886=EDGE_CURVE('',#715,#716,#37,.T.);
#887=EDGE_CURVE('',#716,#717,#424,.T.);
#888=EDGE_CURVE('',#717,#718,#38,.T.);
#889=EDGE_CURVE('',#718,#715,#425,.T.);
#890=EDGE_CURVE('',#716,#719,#426,.T.);
#891=EDGE_CURVE('',#719,#720,#427,.T.);
#892=EDGE_CURVE('',#717,#720,#428,.T.);
#893=EDGE_CURVE('',#721,#721,#39,.T.);
#894=EDGE_CURVE('',#721,#722,#429,.T.);
#895=EDGE_CURVE('',#722,#722,#40,.T.);
#896=EDGE_CURVE('',#723,#723,#41,.T.);
#897=EDGE_CURVE('',#723,#724,#430,.T.);
#898=EDGE_CURVE('',#724,#724,#42,.T.);
#899=EDGE_CURVE('',#725,#725,#43,.T.);
#900=EDGE_CURVE('',#725,#726,#431,.T.);
#901=EDGE_CURVE('',#726,#726,#44,.T.);
#902=EDGE_CURVE('',#727,#727,#45,.T.);
#903=EDGE_CURVE('',#727,#728,#432,.T.);
#904=EDGE_CURVE('',#728,#728,#46,.T.);
#905=EDGE_CURVE('',#729,#729,#47,.T.);
#906=EDGE_CURVE('',#729,#730,#433,.T.);
#907=EDGE_CURVE('',#730,#730,#48,.T.);
#908=EDGE_CURVE('',#731,#731,#49,.T.);
#909=EDGE_CURVE('',#731,#732,#434,.T.);
#910=EDGE_CURVE('',#732,#732,#50,.T.);
#911=EDGE_CURVE('',#733,#733,#51,.T.);
#912=EDGE_CURVE('',#733,#734,#435,.T.);
#913=EDGE_CURVE('',#734,#734,#52,.T.);
#914=EDGE_CURVE('',#735,#735,#53,.T.);
#915=EDGE_CURVE('',#735,#736,#436,.T.);
#916=EDGE_CURVE('',#736,#736,#54,.T.);
#917=EDGE_CURVE('',#737,#700,#437,.T.);
#918=EDGE_CURVE('',#738,#737,#438,.T.);
#919=EDGE_CURVE('',#697,#738,#439,.T.);
#920=EDGE_CURVE('',#707,#738,#55,.T.);
#921=EDGE_CURVE('',#708,#737,#56,.T.);
#922=EDGE_CURVE('',#739,#706,#440,.T.);
#923=EDGE_CURVE('',#740,#739,#441,.T.);
#924=EDGE_CURVE('',#703,#740,#442,.T.);
#925=EDGE_CURVE('',#713,#740,#443,.T.);
#926=EDGE_CURVE('',#714,#739,#444,.T.);
#927=EDGE_CURVE('',#741,#712,#445,.T.);
#928=EDGE_CURVE('',#742,#741,#446,.T.);
#929=EDGE_CURVE('',#709,#742,#447,.T.);
#930=EDGE_CURVE('',#719,#742,#57,.T.);
#931=EDGE_CURVE('',#720,#741,#58,.T.);
#932=EDGE_CURVE('',#743,#718,#448,.T.);
#933=EDGE_CURVE('',#744,#743,#449,.T.);
#934=EDGE_CURVE('',#715,#744,#450,.T.);
#935=EDGE_CURVE('',#701,#744,#451,.T.);
#936=EDGE_CURVE('',#702,#743,#452,.T.);
#937=ORIENTED_EDGE('',*,*,#745,.F.);
#938=ORIENTED_EDGE('',*,*,#746,.T.);
#939=ORIENTED_EDGE('',*,*,#747,.F.);
#940=ORIENTED_EDGE('',*,*,#748,.F.);
#941=ORIENTED_EDGE('',*,*,#749,.F.);
#942=ORIENTED_EDGE('',*,*,#748,.T.);
#943=ORIENTED_EDGE('',*,*,#750,.F.);
#944=ORIENTED_EDGE('',*,*,#751,.F.);
#945=ORIENTED_EDGE('',*,*,#752,.F.);
#946=ORIENTED_EDGE('',*,*,#751,.T.);
#947=ORIENTED_EDGE('',*,*,#753,.F.);
#948=ORIENTED_EDGE('',*,*,#754,.F.);
#949=ORIENTED_EDGE('',*,*,#755,.F.);
#950=ORIENTED_EDGE('',*,*,#754,.T.);
#951=ORIENTED_EDGE('',*,*,#756,.F.);
#952=ORIENTED_EDGE('',*,*,#746,.F.);
#953=ORIENTED_EDGE('',*,*,#756,.T.);
#954=ORIENTED_EDGE('',*,*,#753,.T.);
#955=ORIENTED_EDGE('',*,*,#750,.T.);
#956=ORIENTED_EDGE('',*,*,#747,.T.);
#957=ORIENTED_EDGE('',*,*,#755,.T.);
#958=ORIENTED_EDGE('',*,*,#745,.T.);
#959=ORIENTED_EDGE('',*,*,#749,.T.);
#960=ORIENTED_EDGE('',*,*,#752,.T.);
#961=ORIENTED_EDGE('',*,*,#757,.F.);
#962=ORIENTED_EDGE('',*,*,#758,.T.);
#963=ORIENTED_EDGE('',*,*,#759,.F.);
#964=ORIENTED_EDGE('',*,*,#760,.F.);
#965=ORIENTED_EDGE('',*,*,#761,.F.);
#966=ORIENTED_EDGE('',*,*,#760,.T.);
#967=ORIENTED_EDGE('',*,*,#762,.F.);
#968=ORIENTED_EDGE('',*,*,#763,.F.);
#969=ORIENTED_EDGE('',*,*,#764,.F.);
#970=ORIENTED_EDGE('',*,*,#763,.T.);
#971=ORIENTED_EDGE('',*,*,#765,.F.);
#972=ORIENTED_EDGE('',*,*,#766,.F.);
#973=ORIENTED_EDGE('',*,*,#767,.F.);
#974=ORIENTED_EDGE('',*,*,#766,.T.);
#975=ORIENTED_EDGE('',*,*,#768,.F.);
#976=ORIENTED_EDGE('',*,*,#758,.F.);
#977=ORIENTED_EDGE('',*,*,#768,.T.);
#978=ORIENTED_EDGE('',*,*,#765,.T.);
#979=ORIENTED_EDGE('',*,*,#762,.T.);
#980=ORIENTED_EDGE('',*,*,#759,.T.);
#981=ORIENTED_EDGE('',*,*,#767,.T.);
#982=ORIENTED_EDGE('',*,*,#757,.T.);
#983=ORIENTED_EDGE('',*,*,#761,.T.);
#984=ORIENTED_EDGE('',*,*,#764,.T.);
#985=ORIENTED_EDGE('',*,*,#769,.T.);
#986=ORIENTED_EDGE('',*,*,#770,.T.);
#987=ORIENTED_EDGE('',*,*,#771,.F.);
#988=ORIENTED_EDGE('',*,*,#772,.F.);
#989=ORIENTED_EDGE('',*,*,#773,.T.);
#990=ORIENTED_EDGE('',*,*,#772,.T.);
#991=ORIENTED_EDGE('',*,*,#774,.F.);
#992=ORIENTED_EDGE('',*,*,#775,.F.);
#993=ORIENTED_EDGE('',*,*,#776,.T.);
#994=ORIENTED_EDGE('',*,*,#775,.T.);
#995=ORIENTED_EDGE('',*,*,#777,.F.);
#996=ORIENTED_EDGE('',*,*,#778,.F.);
#997=ORIENTED_EDGE('',*,*,#779,.T.);
#998=ORIENTED_EDGE('',*,*,#778,.T.);
#999=ORIENTED_EDGE('',*,*,#780,.F.);
#1000=ORIENTED_EDGE('',*,*,#770,.F.);
#1001=ORIENTED_EDGE('',*,*,#780,.T.);
#1002=ORIENTED_EDGE('',*,*,#777,.T.);
#1003=ORIENTED_EDGE('',*,*,#774,.T.);
#1004=ORIENTED_EDGE('',*,*,#771,.T.);
#1005=ORIENTED_EDGE('',*,*,#779,.F.);
#1006=ORIENTED_EDGE('',*,*,#769,.F.);
#1007=ORIENTED_EDGE('',*,*,#773,.F.);
#1008=ORIENTED_EDGE('',*,*,#776,.F.);
#1009=ORIENTED_EDGE('',*,*,#781,.T.);
#1010=ORIENTED_EDGE('',*,*,#782,.T.);
#1011=ORIENTED_EDGE('',*,*,#783,.F.);
#1012=ORIENTED_EDGE('',*,*,#784,.F.);
#1013=ORIENTED_EDGE('',*,*,#785,.T.);
#1014=ORIENTED_EDGE('',*,*,#784,.T.);
#1015=ORIENTED_EDGE('',*,*,#786,.F.);
#1016=ORIENTED_EDGE('',*,*,#787,.F.);
#1017=ORIENTED_EDGE('',*,*,#788,.T.);
#1018=ORIENTED_EDGE('',*,*,#787,.T.);
#1019=ORIENTED_EDGE('',*,*,#789,.F.);
#1020=ORIENTED_EDGE('',*,*,#790,.F.);
#1021=ORIENTED_EDGE('',*,*,#791,.T.);
#1022=ORIENTED_EDGE('',*,*,#790,.T.);
#1023=ORIENTED_EDGE('',*,*,#792,.F.);
#1024=ORIENTED_EDGE('',*,*,#782,.F.);
#1025=ORIENTED_EDGE('',*,*,#792,.T.);
#1026=ORIENTED_EDGE('',*,*,#789,.T.);
#1027=ORIENTED_EDGE('',*,*,#786,.T.);
#1028=ORIENTED_EDGE('',*,*,#783,.T.);
#1029=ORIENTED_EDGE('',*,*,#791,.F.);
#1030=ORIENTED_EDGE('',*,*,#781,.F.);
#1031=ORIENTED_EDGE('',*,*,#785,.F.);
#1032=ORIENTED_EDGE('',*,*,#788,.F.);
#1033=ORIENTED_EDGE('',*,*,#793,.T.);
#1034=ORIENTED_EDGE('',*,*,#794,.T.);
#1035=ORIENTED_EDGE('',*,*,#795,.F.);
#1036=ORIENTED_EDGE('',*,*,#796,.F.);
#1037=ORIENTED_EDGE('',*,*,#797,.T.);
#1038=ORIENTED_EDGE('',*,*,#796,.T.);
#1039=ORIENTED_EDGE('',*,*,#798,.F.);
#1040=ORIENTED_EDGE('',*,*,#799,.F.);
#1041=ORIENTED_EDGE('',*,*,#800,.T.);
#1042=ORIENTED_EDGE('',*,*,#799,.T.);
#1043=ORIENTED_EDGE('',*,*,#801,.F.);
#1044=ORIENTED_EDGE('',*,*,#802,.F.);
#1045=ORIENTED_EDGE('',*,*,#803,.T.);
#1046=ORIENTED_EDGE('',*,*,#802,.T.);
#1047=ORIENTED_EDGE('',*,*,#804,.F.);
#1048=ORIENTED_EDGE('',*,*,#794,.F.);
#1049=ORIENTED_EDGE('',*,*,#804,.T.);
#1050=ORIENTED_EDGE('',*,*,#801,.T.);
#1051=ORIENTED_EDGE('',*,*,#798,.T.);
#1052=ORIENTED_EDGE('',*,*,#795,.T.);
#1053=ORIENTED_EDGE('',*,*,#803,.F.);
#1054=ORIENTED_EDGE('',*,*,#793,.F.);
#1055=ORIENTED_EDGE('',*,*,#797,.F.);
#1056=ORIENTED_EDGE('',*,*,#800,.F.);
#1057=ORIENTED_EDGE('',*,*,#805,.F.);
#1058=ORIENTED_EDGE('',*,*,#806,.T.);
#1059=ORIENTED_EDGE('',*,*,#807,.F.);
#1060=ORIENTED_EDGE('',*,*,#808,.F.);
#1061=ORIENTED_EDGE('',*,*,#809,.F.);
#1062=ORIENTED_EDGE('',*,*,#808,.T.);
#1063=ORIENTED_EDGE('',*,*,#810,.F.);
#1064=ORIENTED_EDGE('',*,*,#811,.F.);
#1065=ORIENTED_EDGE('',*,*,#812,.F.);
#1066=ORIENTED_EDGE('',*,*,#811,.T.);
#1067=ORIENTED_EDGE('',*,*,#813,.F.);
#1068=ORIENTED_EDGE('',*,*,#814,.F.);
#1069=ORIENTED_EDGE('',*,*,#815,.F.);
#1070=ORIENTED_EDGE('',*,*,#814,.T.);
#1071=ORIENTED_EDGE('',*,*,#816,.F.);
#1072=ORIENTED_EDGE('',*,*,#806,.F.);
#1073=ORIENTED_EDGE('',*,*,#816,.T.);
#1074=ORIENTED_EDGE('',*,*,#813,.T.);
#1075=ORIENTED_EDGE('',*,*,#810,.T.);
#1076=ORIENTED_EDGE('',*,*,#807,.T.);
#1077=ORIENTED_EDGE('',*,*,#815,.T.);
#1078=ORIENTED_EDGE('',*,*,#805,.T.);
#1079=ORIENTED_EDGE('',*,*,#809,.T.);
#1080=ORIENTED_EDGE('',*,*,#812,.T.);
#1081=ORIENTED_EDGE('',*,*,#817,.F.);
#1082=ORIENTED_EDGE('',*,*,#818,.T.);
#1083=ORIENTED_EDGE('',*,*,#819,.F.);
#1084=ORIENTED_EDGE('',*,*,#820,.F.);
#1085=ORIENTED_EDGE('',*,*,#821,.F.);
#1086=ORIENTED_EDGE('',*,*,#820,.T.);
#1087=ORIENTED_EDGE('',*,*,#822,.F.);
#1088=ORIENTED_EDGE('',*,*,#823,.F.);
#1089=ORIENTED_EDGE('',*,*,#824,.F.);
#1090=ORIENTED_EDGE('',*,*,#823,.T.);
#1091=ORIENTED_EDGE('',*,*,#825,.F.);
#1092=ORIENTED_EDGE('',*,*,#826,.F.);
#1093=ORIENTED_EDGE('',*,*,#827,.F.);
#1094=ORIENTED_EDGE('',*,*,#826,.T.);
#1095=ORIENTED_EDGE('',*,*,#828,.F.);
#1096=ORIENTED_EDGE('',*,*,#818,.F.);
#1097=ORIENTED_EDGE('',*,*,#828,.T.);
#1098=ORIENTED_EDGE('',*,*,#825,.T.);
#1099=ORIENTED_EDGE('',*,*,#822,.T.);
#1100=ORIENTED_EDGE('',*,*,#819,.T.);
#1101=ORIENTED_EDGE('',*,*,#827,.T.);
#1102=ORIENTED_EDGE('',*,*,#817,.T.);
#1103=ORIENTED_EDGE('',*,*,#821,.T.);
#1104=ORIENTED_EDGE('',*,*,#824,.T.);
#1105=ORIENTED_EDGE('',*,*,#829,.F.);
#1106=ORIENTED_EDGE('',*,*,#830,.T.);
#1107=ORIENTED_EDGE('',*,*,#831,.F.);
#1108=ORIENTED_EDGE('',*,*,#832,.F.);
#1109=ORIENTED_EDGE('',*,*,#833,.F.);
#1110=ORIENTED_EDGE('',*,*,#832,.T.);
#1111=ORIENTED_EDGE('',*,*,#834,.F.);
#1112=ORIENTED_EDGE('',*,*,#835,.F.);
#1113=ORIENTED_EDGE('',*,*,#836,.F.);
#1114=ORIENTED_EDGE('',*,*,#835,.T.);
#1115=ORIENTED_EDGE('',*,*,#837,.F.);
#1116=ORIENTED_EDGE('',*,*,#838,.F.);
#1117=ORIENTED_EDGE('',*,*,#839,.F.);
#1118=ORIENTED_EDGE('',*,*,#838,.T.);
#1119=ORIENTED_EDGE('',*,*,#840,.F.);
#1120=ORIENTED_EDGE('',*,*,#830,.F.);
#1121=ORIENTED_EDGE('',*,*,#840,.T.);
#1122=ORIENTED_EDGE('',*,*,#837,.T.);
#1123=ORIENTED_EDGE('',*,*,#834,.T.);
#1124=ORIENTED_EDGE('',*,*,#831,.T.);
#1125=ORIENTED_EDGE('',*,*,#839,.T.);
#1126=ORIENTED_EDGE('',*,*,#829,.T.);
#1127=ORIENTED_EDGE('',*,*,#833,.T.);
#1128=ORIENTED_EDGE('',*,*,#836,.T.);
#1129=ORIENTED_EDGE('',*,*,#841,.T.);
#1130=ORIENTED_EDGE('',*,*,#842,.T.);
#1131=ORIENTED_EDGE('',*,*,#843,.F.);
#1132=ORIENTED_EDGE('',*,*,#844,.F.);
#1133=ORIENTED_EDGE('',*,*,#845,.T.);
#1134=ORIENTED_EDGE('',*,*,#844,.T.);
#1135=ORIENTED_EDGE('',*,*,#846,.F.);
#1136=ORIENTED_EDGE('',*,*,#847,.F.);
#1137=ORIENTED_EDGE('',*,*,#848,.T.);
#1138=ORIENTED_EDGE('',*,*,#847,.T.);
#1139=ORIENTED_EDGE('',*,*,#849,.F.);
#1140=ORIENTED_EDGE('',*,*,#850,.F.);
#1141=ORIENTED_EDGE('',*,*,#851,.T.);
#1142=ORIENTED_EDGE('',*,*,#850,.T.);
#1143=ORIENTED_EDGE('',*,*,#852,.F.);
#1144=ORIENTED_EDGE('',*,*,#842,.F.);
#1145=ORIENTED_EDGE('',*,*,#852,.T.);
#1146=ORIENTED_EDGE('',*,*,#849,.T.);
#1147=ORIENTED_EDGE('',*,*,#846,.T.);
#1148=ORIENTED_EDGE('',*,*,#843,.T.);
#1149=ORIENTED_EDGE('',*,*,#851,.F.);
#1150=ORIENTED_EDGE('',*,*,#841,.F.);
#1151=ORIENTED_EDGE('',*,*,#845,.F.);
#1152=ORIENTED_EDGE('',*,*,#848,.F.);
#1153=ORIENTED_EDGE('',*,*,#853,.F.);
#1154=ORIENTED_EDGE('',*,*,#854,.T.);
#1155=ORIENTED_EDGE('',*,*,#855,.F.);
#1156=ORIENTED_EDGE('',*,*,#856,.F.);
#1157=ORIENTED_EDGE('',*,*,#857,.F.);
#1158=ORIENTED_EDGE('',*,*,#856,.T.);
#1159=ORIENTED_EDGE('',*,*,#858,.F.);
#1160=ORIENTED_EDGE('',*,*,#859,.F.);
#1161=ORIENTED_EDGE('',*,*,#860,.F.);
#1162=ORIENTED_EDGE('',*,*,#859,.T.);
#1163=ORIENTED_EDGE('',*,*,#861,.F.);
#1164=ORIENTED_EDGE('',*,*,#862,.F.);
#1165=ORIENTED_EDGE('',*,*,#863,.F.);
#1166=ORIENTED_EDGE('',*,*,#862,.T.);
#1167=ORIENTED_EDGE('',*,*,#864,.F.);
#1168=ORIENTED_EDGE('',*,*,#854,.F.);
#1169=ORIENTED_EDGE('',*,*,#864,.T.);
#1170=ORIENTED_EDGE('',*,*,#861,.T.);
#1171=ORIENTED_EDGE('',*,*,#858,.T.);
#1172=ORIENTED_EDGE('',*,*,#855,.T.);
#1173=ORIENTED_EDGE('',*,*,#863,.T.);
#1174=ORIENTED_EDGE('',*,*,#853,.T.);
#1175=ORIENTED_EDGE('',*,*,#857,.T.);
#1176=ORIENTED_EDGE('',*,*,#860,.T.);
#1177=ORIENTED_EDGE('',*,*,#865,.T.);
#1178=ORIENTED_EDGE('',*,*,#866,.T.);
#1179=ORIENTED_EDGE('',*,*,#867,.T.);
#1180=ORIENTED_EDGE('',*,*,#868,.T.);
#1181=ORIENTED_EDGE('',*,*,#866,.F.);
#1182=ORIENTED_EDGE('',*,*,#869,.T.);
#1183=ORIENTED_EDGE('',*,*,#870,.T.);
#1184=ORIENTED_EDGE('',*,*,#871,.F.);
#1185=ORIENTED_EDGE('',*,*,#872,.T.);
#1186=ORIENTED_EDGE('',*,*,#873,.T.);
#1187=ORIENTED_EDGE('',*,*,#874,.T.);
#1188=ORIENTED_EDGE('',*,*,#875,.T.);
#1189=ORIENTED_EDGE('',*,*,#873,.F.);
#1190=ORIENTED_EDGE('',*,*,#876,.T.);
#1191=ORIENTED_EDGE('',*,*,#877,.T.);
#1192=ORIENTED_EDGE('',*,*,#878,.F.);
#1193=ORIENTED_EDGE('',*,*,#879,.T.);
#1194=ORIENTED_EDGE('',*,*,#880,.T.);
#1195=ORIENTED_EDGE('',*,*,#881,.T.);
#1196=ORIENTED_EDGE('',*,*,#882,.T.);
#1197=ORIENTED_EDGE('',*,*,#880,.F.);
#1198=ORIENTED_EDGE('',*,*,#883,.T.);
#1199=ORIENTED_EDGE('',*,*,#884,.T.);
#1200=ORIENTED_EDGE('',*,*,#885,.F.);
#1201=ORIENTED_EDGE('',*,*,#886,.T.);
#1202=ORIENTED_EDGE('',*,*,#887,.T.);
#1203=ORIENTED_EDGE('',*,*,#888,.T.);
#1204=ORIENTED_EDGE('',*,*,#889,.T.);
#1205=ORIENTED_EDGE('',*,*,#887,.F.);
#1206=ORIENTED_EDGE('',*,*,#890,.T.);
#1207=ORIENTED_EDGE('',*,*,#891,.T.);
#1208=ORIENTED_EDGE('',*,*,#892,.F.);
#1209=ORIENTED_EDGE('',*,*,#893,.F.);
#1210=ORIENTED_EDGE('',*,*,#894,.T.);
#1211=ORIENTED_EDGE('',*,*,#895,.T.);
#1212=ORIENTED_EDGE('',*,*,#894,.F.);
#1213=ORIENTED_EDGE('',*,*,#896,.F.);
#1214=ORIENTED_EDGE('',*,*,#897,.T.);
#1215=ORIENTED_EDGE('',*,*,#898,.T.);
#1216=ORIENTED_EDGE('',*,*,#897,.F.);
#1217=ORIENTED_EDGE('',*,*,#899,.F.);
#1218=ORIENTED_EDGE('',*,*,#900,.T.);
#1219=ORIENTED_EDGE('',*,*,#901,.T.);
#1220=ORIENTED_EDGE('',*,*,#900,.F.);
#1221=ORIENTED_EDGE('',*,*,#902,.F.);
#1222=ORIENTED_EDGE('',*,*,#903,.T.);
#1223=ORIENTED_EDGE('',*,*,#904,.T.);
#1224=ORIENTED_EDGE('',*,*,#903,.F.);
#1225=ORIENTED_EDGE('',*,*,#905,.F.);
#1226=ORIENTED_EDGE('',*,*,#906,.T.);
#1227=ORIENTED_EDGE('',*,*,#907,.T.);
#1228=ORIENTED_EDGE('',*,*,#906,.F.);
#1229=ORIENTED_EDGE('',*,*,#908,.F.);
#1230=ORIENTED_EDGE('',*,*,#909,.T.);
#1231=ORIENTED_EDGE('',*,*,#910,.T.);
#1232=ORIENTED_EDGE('',*,*,#909,.F.);
#1233=ORIENTED_EDGE('',*,*,#911,.F.);
#1234=ORIENTED_EDGE('',*,*,#912,.T.);
#1235=ORIENTED_EDGE('',*,*,#913,.T.);
#1236=ORIENTED_EDGE('',*,*,#912,.F.);
#1237=ORIENTED_EDGE('',*,*,#914,.F.);
#1238=ORIENTED_EDGE('',*,*,#915,.T.);
#1239=ORIENTED_EDGE('',*,*,#916,.T.);
#1240=ORIENTED_EDGE('',*,*,#915,.F.);
#1241=ORIENTED_EDGE('',*,*,#868,.F.);
#1242=ORIENTED_EDGE('',*,*,#917,.F.);
#1243=ORIENTED_EDGE('',*,*,#918,.F.);
#1244=ORIENTED_EDGE('',*,*,#919,.F.);
#1245=ORIENTED_EDGE('',*,*,#920,.T.);
#1246=ORIENTED_EDGE('',*,*,#918,.T.);
#1247=ORIENTED_EDGE('',*,*,#921,.F.);
#1248=ORIENTED_EDGE('',*,*,#877,.F.);
#1249=ORIENTED_EDGE('',*,*,#875,.F.);
#1250=ORIENTED_EDGE('',*,*,#922,.F.);
#1251=ORIENTED_EDGE('',*,*,#923,.F.);
#1252=ORIENTED_EDGE('',*,*,#924,.F.);
#1253=ORIENTED_EDGE('',*,*,#925,.T.);
#1254=ORIENTED_EDGE('',*,*,#923,.T.);
#1255=ORIENTED_EDGE('',*,*,#926,.F.);
#1256=ORIENTED_EDGE('',*,*,#884,.F.);
#1257=ORIENTED_EDGE('',*,*,#882,.F.);
#1258=ORIENTED_EDGE('',*,*,#927,.F.);
#1259=ORIENTED_EDGE('',*,*,#928,.F.);
#1260=ORIENTED_EDGE('',*,*,#929,.F.);
#1261=ORIENTED_EDGE('',*,*,#930,.T.);
#1262=ORIENTED_EDGE('',*,*,#928,.T.);
#1263=ORIENTED_EDGE('',*,*,#931,.F.);
#1264=ORIENTED_EDGE('',*,*,#891,.F.);
#1265=ORIENTED_EDGE('',*,*,#889,.F.);
#1266=ORIENTED_EDGE('',*,*,#932,.F.);
#1267=ORIENTED_EDGE('',*,*,#933,.F.);
#1268=ORIENTED_EDGE('',*,*,#934,.F.);
#1269=ORIENTED_EDGE('',*,*,#935,.T.);
#1270=ORIENTED_EDGE('',*,*,#933,.T.);
#1271=ORIENTED_EDGE('',*,*,#936,.F.);
#1272=ORIENTED_EDGE('',*,*,#870,.F.);
#1273=ORIENTED_EDGE('',*,*,#871,.T.);
#1274=ORIENTED_EDGE('',*,*,#936,.T.);
#1275=ORIENTED_EDGE('',*,*,#932,.T.);
#1276=ORIENTED_EDGE('',*,*,#888,.F.);
#1277=ORIENTED_EDGE('',*,*,#892,.T.);
#1278=ORIENTED_EDGE('',*,*,#931,.T.);
#1279=ORIENTED_EDGE('',*,*,#927,.T.);
#1280=ORIENTED_EDGE('',*,*,#881,.F.);
#1281=ORIENTED_EDGE('',*,*,#885,.T.);
#1282=ORIENTED_EDGE('',*,*,#926,.T.);
#1283=ORIENTED_EDGE('',*,*,#922,.T.);
#1284=ORIENTED_EDGE('',*,*,#874,.F.);
#1285=ORIENTED_EDGE('',*,*,#878,.T.);
#1286=ORIENTED_EDGE('',*,*,#921,.T.);
#1287=ORIENTED_EDGE('',*,*,#917,.T.);
#1288=ORIENTED_EDGE('',*,*,#867,.F.);
#1289=ORIENTED_EDGE('',*,*,#914,.T.);
#1290=ORIENTED_EDGE('',*,*,#911,.T.);
#1291=ORIENTED_EDGE('',*,*,#908,.T.);
#1292=ORIENTED_EDGE('',*,*,#905,.T.);
#1293=ORIENTED_EDGE('',*,*,#902,.T.);
#1294=ORIENTED_EDGE('',*,*,#899,.T.);
#1295=ORIENTED_EDGE('',*,*,#896,.T.);
#1296=ORIENTED_EDGE('',*,*,#893,.T.);
#1297=ORIENTED_EDGE('',*,*,#865,.F.);
#1298=ORIENTED_EDGE('',*,*,#919,.T.);
#1299=ORIENTED_EDGE('',*,*,#920,.F.);
#1300=ORIENTED_EDGE('',*,*,#876,.F.);
#1301=ORIENTED_EDGE('',*,*,#872,.F.);
#1302=ORIENTED_EDGE('',*,*,#924,.T.);
#1303=ORIENTED_EDGE('',*,*,#925,.F.);
#1304=ORIENTED_EDGE('',*,*,#883,.F.);
#1305=ORIENTED_EDGE('',*,*,#879,.F.);
#1306=ORIENTED_EDGE('',*,*,#929,.T.);
#1307=ORIENTED_EDGE('',*,*,#930,.F.);
#1308=ORIENTED_EDGE('',*,*,#890,.F.);
#1309=ORIENTED_EDGE('',*,*,#886,.F.);
#1310=ORIENTED_EDGE('',*,*,#934,.T.);
#1311=ORIENTED_EDGE('',*,*,#935,.F.);
#1312=ORIENTED_EDGE('',*,*,#869,.F.);
#1313=ORIENTED_EDGE('',*,*,#916,.F.);
#1314=ORIENTED_EDGE('',*,*,#913,.F.);
#1315=ORIENTED_EDGE('',*,*,#910,.F.);
#1316=ORIENTED_EDGE('',*,*,#907,.F.);
#1317=ORIENTED_EDGE('',*,*,#904,.F.);
#1318=ORIENTED_EDGE('',*,*,#901,.F.);
#1319=ORIENTED_EDGE('',*,*,#898,.F.);
#1320=ORIENTED_EDGE('',*,*,#895,.F.);
#1321=PLANE('',#1504);
#1322=PLANE('',#1505);
#1323=PLANE('',#1506);
#1324=PLANE('',#1507);
#1325=PLANE('',#1508);
#1326=PLANE('',#1509);
#1327=PLANE('',#1510);
#1328=PLANE('',#1511);
#1329=PLANE('',#1512);
#1330=PLANE('',#1513);
#1331=PLANE('',#1514);
#1332=PLANE('',#1515);
#1333=PLANE('',#1516);
#1334=PLANE('',#1517);
#1335=PLANE('',#1518);
#1336=PLANE('',#1519);
#1337=PLANE('',#1520);
#1338=PLANE('',#1521);
#1339=PLANE('',#1522);
#1340=PLANE('',#1523);
#1341=PLANE('',#1524);
#1342=PLANE('',#1525);
#1343=PLANE('',#1526);
#1344=PLANE('',#1527);
#1345=PLANE('',#1528);
#1346=PLANE('',#1529);
#1347=PLANE('',#1530);
#1348=PLANE('',#1531);
#1349=PLANE('',#1532);
#1350=PLANE('',#1533);
#1351=PLANE('',#1534);
#1352=PLANE('',#1535);
#1353=PLANE('',#1536);
#1354=PLANE('',#1537);
#1355=PLANE('',#1538);
#1356=PLANE('',#1539);
#1357=PLANE('',#1540);
#1358=PLANE('',#1541);
#1359=PLANE('',#1542);
#1360=PLANE('',#1543);
#1361=PLANE('',#1544);
#1362=PLANE('',#1545);
#1363=PLANE('',#1546);
#1364=PLANE('',#1547);
#1365=PLANE('',#1548);
#1366=PLANE('',#1549);
#1367=PLANE('',#1550);
#1368=PLANE('',#1551);
#1369=PLANE('',#1552);
#1370=PLANE('',#1553);
#1371=PLANE('',#1554);
#1372=PLANE('',#1555);
#1373=PLANE('',#1556);
#1374=PLANE('',#1557);
#1375=PLANE('',#1558);
#1376=PLANE('',#1559);
#1377=PLANE('',#1560);
#1378=PLANE('',#1561);
#1379=PLANE('',#1562);
#1380=PLANE('',#1563);
#1381=PLANE('',#1567);
#1382=PLANE('',#1571);
#1383=PLANE('',#1575);
#1384=PLANE('',#1579);
#1385=PLANE('',#1604);
#1386=PLANE('',#1608);
#1387=PLANE('',#1609);
#1388=PLANE('',#1610);
#1389=PLANE('',#1614);
#1390=PLANE('',#1615);
#1391=PLANE('',#1616);
#1392=PLANE('',#1617);
#1393=ADVANCED_FACE('',(#101),#1321,.T.);
#1394=ADVANCED_FACE('',(#102),#1322,.T.);
#1395=ADVANCED_FACE('',(#103),#1323,.T.);
#1396=ADVANCED_FACE('',(#104),#1324,.T.);
#1397=ADVANCED_FACE('',(#105),#1325,.T.);
#1398=ADVANCED_FACE('',(#106),#1326,.F.);
#1399=ADVANCED_FACE('',(#107),#1327,.T.);
#1400=ADVANCED_FACE('',(#108),#1328,.T.);
#1401=ADVANCED_FACE('',(#109),#1329,.T.);
#1402=ADVANCED_FACE('',(#110),#1330,.T.);
#1403=ADVANCED_FACE('',(#111),#1331,.T.);
#1404=ADVANCED_FACE('',(#112),#1332,.F.);
#1405=ADVANCED_FACE('',(#113),#1333,.T.);
#1406=ADVANCED_FACE('',(#114),#1334,.T.);
#1407=ADVANCED_FACE('',(#115),#1335,.T.);
#1408=ADVANCED_FACE('',(#116),#1336,.T.);
#1409=ADVANCED_FACE('',(#117),#1337,.T.);
#1410=ADVANCED_FACE('',(#118),#1338,.F.);
#1411=ADVANCED_FACE('',(#119),#1339,.T.);
#1412=ADVANCED_FACE('',(#120),#1340,.T.);
#1413=ADVANCED_FACE('',(#121),#1341,.T.);
#1414=ADVANCED_FACE('',(#122),#1342,.T.);
#1415=ADVANCED_FACE('',(#123),#1343,.T.);
#1416=ADVANCED_FACE('',(#124),#1344,.F.);
#1417=ADVANCED_FACE('',(#125),#1345,.T.);
#1418=ADVANCED_FACE('',(#126),#1346,.T.);
#1419=ADVANCED_FACE('',(#127),#1347,.T.);
#1420=ADVANCED_FACE('',(#128),#1348,.T.);
#1421=ADVANCED_FACE('',(#129),#1349,.T.);
#1422=ADVANCED_FACE('',(#130),#1350,.F.);
#1423=ADVANCED_FACE('',(#131),#1351,.T.);
#1424=ADVANCED_FACE('',(#132),#1352,.T.);
#1425=ADVANCED_FACE('',(#133),#1353,.T.);
#1426=ADVANCED_FACE('',(#134),#1354,.T.);
#1427=ADVANCED_FACE('',(#135),#1355,.T.);
#1428=ADVANCED_FACE('',(#136),#1356,.F.);
#1429=ADVANCED_FACE('',(#137),#1357,.T.);
#1430=ADVANCED_FACE('',(#138),#1358,.T.);
#1431=ADVANCED_FACE('',(#139),#1359,.T.);
#1432=ADVANCED_FACE('',(#140),#1360,.T.);
#1433=ADVANCED_FACE('',(#141),#1361,.T.);
#1434=ADVANCED_FACE('',(#142),#1362,.F.);
#1435=ADVANCED_FACE('',(#143),#1363,.T.);
#1436=ADVANCED_FACE('',(#144),#1364,.T.);
#1437=ADVANCED_FACE('',(#145),#1365,.T.);
#1438=ADVANCED_FACE('',(#146),#1366,.T.);
#1439=ADVANCED_FACE('',(#147),#1367,.T.);
#1440=ADVANCED_FACE('',(#148),#1368,.F.);
#1441=ADVANCED_FACE('',(#149),#1369,.T.);
#1442=ADVANCED_FACE('',(#150),#1370,.T.);
#1443=ADVANCED_FACE('',(#151),#1371,.T.);
#1444=ADVANCED_FACE('',(#152),#1372,.T.);
#1445=ADVANCED_FACE('',(#153),#1373,.T.);
#1446=ADVANCED_FACE('',(#154),#1374,.F.);
#1447=ADVANCED_FACE('',(#155),#1375,.T.);
#1448=ADVANCED_FACE('',(#156),#1376,.T.);
#1449=ADVANCED_FACE('',(#157),#1377,.T.);
#1450=ADVANCED_FACE('',(#158),#1378,.T.);
#1451=ADVANCED_FACE('',(#159),#1379,.T.);
#1452=ADVANCED_FACE('',(#160),#1380,.F.);
#1453=ADVANCED_FACE('',(#161),#59,.F.);
#1454=ADVANCED_FACE('',(#162),#1381,.T.);
#1455=ADVANCED_FACE('',(#163),#60,.F.);
#1456=ADVANCED_FACE('',(#164),#1382,.T.);
#1457=ADVANCED_FACE('',(#165),#61,.F.);
#1458=ADVANCED_FACE('',(#166),#1383,.T.);
#1459=ADVANCED_FACE('',(#167),#62,.F.);
#1460=ADVANCED_FACE('',(#168),#1384,.T.);
#1461=ADVANCED_FACE('',(#169),#63,.F.);
#1462=ADVANCED_FACE('',(#170),#64,.F.);
#1463=ADVANCED_FACE('',(#171),#65,.F.);
#1464=ADVANCED_FACE('',(#172),#66,.F.);
#1465=ADVANCED_FACE('',(#173),#67,.F.);
#1466=ADVANCED_FACE('',(#174),#68,.F.);
#1467=ADVANCED_FACE('',(#175),#69,.F.);
#1468=ADVANCED_FACE('',(#176),#70,.F.);
#1469=ADVANCED_FACE('',(#177),#1385,.T.);
#1470=ADVANCED_FACE('',(#178),#71,.T.);
#1471=ADVANCED_FACE('',(#179),#1386,.T.);
#1472=ADVANCED_FACE('',(#180),#1387,.T.);
#1473=ADVANCED_FACE('',(#181),#1388,.T.);
#1474=ADVANCED_FACE('',(#182),#72,.T.);
#1475=ADVANCED_FACE('',(#183),#1389,.T.);
#1476=ADVANCED_FACE('',(#184),#1390,.T.);
#1477=ADVANCED_FACE('',(#185,#15,#16,#17,#18,#19,#20,#21,#22),#1391,.T.);
#1478=ADVANCED_FACE('',(#186,#23,#24,#25,#26,#27,#28,#29,#30),#1392,.F.);
#1479=CLOSED_SHELL('',(#1393,#1394,#1395,#1396,#1397,#1398));
#1480=CLOSED_SHELL('',(#1399,#1400,#1401,#1402,#1403,#1404));
#1481=CLOSED_SHELL('',(#1405,#1406,#1407,#1408,#1409,#1410));
#1482=CLOSED_SHELL('',(#1411,#1412,#1413,#1414,#1415,#1416));
#1483=CLOSED_SHELL('',(#1417,#1418,#1419,#1420,#1421,#1422));
#1484=CLOSED_SHELL('',(#1423,#1424,#1425,#1426,#1427,#1428));
#1485=CLOSED_SHELL('',(#1429,#1430,#1431,#1432,#1433,#1434));
#1486=CLOSED_SHELL('',(#1435,#1436,#1437,#1438,#1439,#1440));
#1487=CLOSED_SHELL('',(#1441,#1442,#1443,#1444,#1445,#1446));
#1488=CLOSED_SHELL('',(#1447,#1448,#1449,#1450,#1451,#1452));
#1489=CLOSED_SHELL('',(#1453,#1454,#1455,#1456,#1457,#1458,#1459,#1460,
#1461,#1462,#1463,#1464,#1465,#1466,#1467,#1468,#1469,#1470,#1471,#1472,
#1473,#1474,#1475,#1476,#1477,#1478));
#1490=DERIVED_UNIT_ELEMENT(#1492,1.);
#1491=DERIVED_UNIT_ELEMENT(#2433,-3.);
#1492=(
MASS_UNIT()
NAMED_UNIT(*)
SI_UNIT(.KILO.,.GRAM.)
);
#1493=DERIVED_UNIT((#1490,#1491));
#1494=MEASURE_REPRESENTATION_ITEM('density measure',
POSITIVE_RATIO_MEASURE(7850.),#1493);
#1495=PROPERTY_DEFINITION_REPRESENTATION(#1500,#1497);
#1496=PROPERTY_DEFINITION_REPRESENTATION(#1501,#1498);
#1497=REPRESENTATION('material name',(#1499),#2430);
#1498=REPRESENTATION('density',(#1494),#2430);
#1499=DESCRIPTIVE_REPRESENTATION_ITEM('Stahl','Stahl');
#1500=PROPERTY_DEFINITION('material property','material name',#2445);
#1501=PROPERTY_DEFINITION('material property','density of part',#2445);
#1502=AXIS2_PLACEMENT_3D('placement',#2017,#1619,#1620);
#1503=AXIS2_PLACEMENT_3D('placement',#2018,#1621,#1622);
#1504=AXIS2_PLACEMENT_3D('',#2019,#1623,#1624);
#1505=AXIS2_PLACEMENT_3D('',#2028,#1629,#1630);
#1506=AXIS2_PLACEMENT_3D('',#2034,#1634,#1635);
#1507=AXIS2_PLACEMENT_3D('',#2040,#1639,#1640);
#1508=AXIS2_PLACEMENT_3D('',#2043,#1643,#1644);
#1509=AXIS2_PLACEMENT_3D('',#2044,#1645,#1646);
#1510=AXIS2_PLACEMENT_3D('',#2045,#1647,#1648);
#1511=AXIS2_PLACEMENT_3D('',#2054,#1653,#1654);
#1512=AXIS2_PLACEMENT_3D('',#2060,#1658,#1659);
#1513=AXIS2_PLACEMENT_3D('',#2066,#1663,#1664);
#1514=AXIS2_PLACEMENT_3D('',#2069,#1667,#1668);
#1515=AXIS2_PLACEMENT_3D('',#2070,#1669,#1670);
#1516=AXIS2_PLACEMENT_3D('',#2071,#1671,#1672);
#1517=AXIS2_PLACEMENT_3D('',#2080,#1677,#1678);
#1518=AXIS2_PLACEMENT_3D('',#2086,#1682,#1683);
#1519=AXIS2_PLACEMENT_3D('',#2092,#1687,#1688);
#1520=AXIS2_PLACEMENT_3D('',#2095,#1691,#1692);
#1521=AXIS2_PLACEMENT_3D('',#2096,#1693,#1694);
#1522=AXIS2_PLACEMENT_3D('',#2097,#1695,#1696);
#1523=AXIS2_PLACEMENT_3D('',#2106,#1701,#1702);
#1524=AXIS2_PLACEMENT_3D('',#2112,#1706,#1707);
#1525=AXIS2_PLACEMENT_3D('',#2118,#1711,#1712);
#1526=AXIS2_PLACEMENT_3D('',#2121,#1715,#1716);
#1527=AXIS2_PLACEMENT_3D('',#2122,#1717,#1718);
#1528=AXIS2_PLACEMENT_3D('',#2123,#1719,#1720);
#1529=AXIS2_PLACEMENT_3D('',#2132,#1725,#1726);
#1530=AXIS2_PLACEMENT_3D('',#2138,#1730,#1731);
#1531=AXIS2_PLACEMENT_3D('',#2144,#1735,#1736);
#1532=AXIS2_PLACEMENT_3D('',#2147,#1739,#1740);
#1533=AXIS2_PLACEMENT_3D('',#2148,#1741,#1742);
#1534=AXIS2_PLACEMENT_3D('',#2149,#1743,#1744);
#1535=AXIS2_PLACEMENT_3D('',#2158,#1749,#1750);
#1536=AXIS2_PLACEMENT_3D('',#2164,#1754,#1755);
#1537=AXIS2_PLACEMENT_3D('',#2170,#1759,#1760);
#1538=AXIS2_PLACEMENT_3D('',#2173,#1763,#1764);
#1539=AXIS2_PLACEMENT_3D('',#2174,#1765,#1766);
#1540=AXIS2_PLACEMENT_3D('',#2175,#1767,#1768);
#1541=AXIS2_PLACEMENT_3D('',#2184,#1773,#1774);
#1542=AXIS2_PLACEMENT_3D('',#2190,#1778,#1779);
#1543=AXIS2_PLACEMENT_3D('',#2196,#1783,#1784);
#1544=AXIS2_PLACEMENT_3D('',#2199,#1787,#1788);
#1545=AXIS2_PLACEMENT_3D('',#2200,#1789,#1790);
#1546=AXIS2_PLACEMENT_3D('',#2201,#1791,#1792);
#1547=AXIS2_PLACEMENT_3D('',#2210,#1797,#1798);
#1548=AXIS2_PLACEMENT_3D('',#2216,#1802,#1803);
#1549=AXIS2_PLACEMENT_3D('',#2222,#1807,#1808);
#1550=AXIS2_PLACEMENT_3D('',#2225,#1811,#1812);
#1551=AXIS2_PLACEMENT_3D('',#2226,#1813,#1814);
#1552=AXIS2_PLACEMENT_3D('',#2227,#1815,#1816);
#1553=AXIS2_PLACEMENT_3D('',#2236,#1821,#1822);
#1554=AXIS2_PLACEMENT_3D('',#2242,#1826,#1827);
#1555=AXIS2_PLACEMENT_3D('',#2248,#1831,#1832);
#1556=AXIS2_PLACEMENT_3D('',#2251,#1835,#1836);
#1557=AXIS2_PLACEMENT_3D('',#2252,#1837,#1838);
#1558=AXIS2_PLACEMENT_3D('',#2253,#1839,#1840);
#1559=AXIS2_PLACEMENT_3D('',#2262,#1845,#1846);
#1560=AXIS2_PLACEMENT_3D('',#2268,#1850,#1851);
#1561=AXIS2_PLACEMENT_3D('',#2274,#1855,#1856);
#1562=AXIS2_PLACEMENT_3D('',#2277,#1859,#1860);
#1563=AXIS2_PLACEMENT_3D('',#2278,#1861,#1862);
#1564=AXIS2_PLACEMENT_3D('',#2279,#1863,#1864);
#1565=AXIS2_PLACEMENT_3D('',#2282,#1865,#1866);
#1566=AXIS2_PLACEMENT_3D('',#2286,#1868,#1869);
#1567=AXIS2_PLACEMENT_3D('',#2288,#1871,#1872);
#1568=AXIS2_PLACEMENT_3D('',#2294,#1876,#1877);
#1569=AXIS2_PLACEMENT_3D('',#2297,#1878,#1879);
#1570=AXIS2_PLACEMENT_3D('',#2301,#1881,#1882);
#1571=AXIS2_PLACEMENT_3D('',#2303,#1884,#1885);
#1572=AXIS2_PLACEMENT_3D('',#2309,#1889,#1890);
#1573=AXIS2_PLACEMENT_3D('',#2312,#1891,#1892);
#1574=AXIS2_PLACEMENT_3D('',#2316,#1894,#1895);
#1575=AXIS2_PLACEMENT_3D('',#2318,#1897,#1898);
#1576=AXIS2_PLACEMENT_3D('',#2324,#1902,#1903);
#1577=AXIS2_PLACEMENT_3D('',#2327,#1904,#1905);
#1578=AXIS2_PLACEMENT_3D('',#2331,#1907,#1908);
#1579=AXIS2_PLACEMENT_3D('',#2333,#1910,#1911);
#1580=AXIS2_PLACEMENT_3D('',#2339,#1915,#1916);
#1581=AXIS2_PLACEMENT_3D('',#2341,#1917,#1918);
#1582=AXIS2_PLACEMENT_3D('',#2344,#1920,#1921);
#1583=AXIS2_PLACEMENT_3D('',#2345,#1922,#1923);
#1584=AXIS2_PLACEMENT_3D('',#2347,#1924,#1925);
#1585=AXIS2_PLACEMENT_3D('',#2350,#1927,#1928);
#1586=AXIS2_PLACEMENT_3D('',#2351,#1929,#1930);
#1587=AXIS2_PLACEMENT_3D('',#2353,#1931,#1932);
#1588=AXIS2_PLACEMENT_3D('',#2356,#1934,#1935);
#1589=AXIS2_PLACEMENT_3D('',#2357,#1936,#1937);
#1590=AXIS2_PLACEMENT_3D('',#2359,#1938,#1939);
#1591=AXIS2_PLACEMENT_3D('',#2362,#1941,#1942);
#1592=AXIS2_PLACEMENT_3D('',#2363,#1943,#1944);
#1593=AXIS2_PLACEMENT_3D('',#2365,#1945,#1946);
#1594=AXIS2_PLACEMENT_3D('',#2368,#1948,#1949);
#1595=AXIS2_PLACEMENT_3D('',#2369,#1950,#1951);
#1596=AXIS2_PLACEMENT_3D('',#2371,#1952,#1953);
#1597=AXIS2_PLACEMENT_3D('',#2374,#1955,#1956);
#1598=AXIS2_PLACEMENT_3D('',#2375,#1957,#1958);
#1599=AXIS2_PLACEMENT_3D('',#2377,#1959,#1960);
#1600=AXIS2_PLACEMENT_3D('',#2380,#1962,#1963);
#1601=AXIS2_PLACEMENT_3D('',#2381,#1964,#1965);
#1602=AXIS2_PLACEMENT_3D('',#2383,#1966,#1967);
#1603=AXIS2_PLACEMENT_3D('',#2386,#1969,#1970);
#1604=AXIS2_PLACEMENT_3D('',#2387,#1971,#1972);
#1605=AXIS2_PLACEMENT_3D('',#2393,#1976,#1977);
#1606=AXIS2_PLACEMENT_3D('',#2394,#1978,#1979);
#1607=AXIS2_PLACEMENT_3D('',#2395,#1980,#1981);
#1608=AXIS2_PLACEMENT_3D('',#2396,#1982,#1983);
#1609=AXIS2_PLACEMENT_3D('',#2402,#1987,#1988);
#1610=AXIS2_PLACEMENT_3D('',#2405,#1991,#1992);
#1611=AXIS2_PLACEMENT_3D('',#2411,#1996,#1997);
#1612=AXIS2_PLACEMENT_3D('',#2412,#1998,#1999);
#1613=AXIS2_PLACEMENT_3D('',#2413,#2000,#2001);
#1614=AXIS2_PLACEMENT_3D('',#2414,#2002,#2003);
#1615=AXIS2_PLACEMENT_3D('',#2420,#2007,#2008);
#1616=AXIS2_PLACEMENT_3D('',#2423,#2011,#2012);
#1617=AXIS2_PLACEMENT_3D('',#2424,#2013,#2014);
#1618=AXIS2_PLACEMENT_3D('',#2425,#2015,#2016);
#1619=DIRECTION('axis',(0.,0.,1.));
#1620=DIRECTION('refdir',(1.,0.,0.));
#1621=DIRECTION('axis',(0.,0.,1.));
#1622=DIRECTION('refdir',(1.,0.,0.));
#1623=DIRECTION('center_axis',(-1.,0.,0.));
#1624=DIRECTION('ref_axis',(0.,-1.,0.));
#1625=DIRECTION('',(0.,1.,0.));
#1626=DIRECTION('',(0.,0.,1.));
#1627=DIRECTION('',(0.,-1.,0.));
#1628=DIRECTION('',(0.,0.,1.));
#1629=DIRECTION('center_axis',(0.,1.,0.));
#1630=DIRECTION('ref_axis',(-1.,0.,0.));
#1631=DIRECTION('',(1.,0.,0.));
#1632=DIRECTION('',(-1.,0.,0.));
#1633=DIRECTION('',(0.,0.,1.));
#1634=DIRECTION('center_axis',(1.,0.,0.));
#1635=DIRECTION('ref_axis',(0.,1.,0.));
#1636=DIRECTION('',(0.,-1.,0.));
#1637=DIRECTION('',(0.,1.,0.));
#1638=DIRECTION('',(0.,0.,1.));
#1639=DIRECTION('center_axis',(0.,-1.,0.));
#1640=DIRECTION('ref_axis',(1.,0.,0.));
#1641=DIRECTION('',(-1.,0.,0.));
#1642=DIRECTION('',(1.,0.,0.));
#1643=DIRECTION('center_axis',(0.,0.,1.));
#1644=DIRECTION('ref_axis',(1.,0.,0.));
#1645=DIRECTION('center_axis',(0.,0.,1.));
#1646=DIRECTION('ref_axis',(1.,0.,0.));
#1647=DIRECTION('center_axis',(1.,0.,0.));
#1648=DIRECTION('ref_axis',(0.,-1.,0.));
#1649=DIRECTION('',(0.,1.,0.));
#1650=DIRECTION('',(0.,0.,-1.));
#1651=DIRECTION('',(0.,-1.,0.));
#1652=DIRECTION('',(0.,0.,-1.));
#1653=DIRECTION('center_axis',(0.,1.,0.));
#1654=DIRECTION('ref_axis',(1.,0.,0.));
#1655=DIRECTION('',(-1.,0.,0.));
#1656=DIRECTION('',(1.,0.,0.));
#1657=DIRECTION('',(0.,0.,-1.));
#1658=DIRECTION('center_axis',(-1.,0.,0.));
#1659=DIRECTION('ref_axis',(0.,1.,0.));
#1660=DIRECTION('',(0.,-1.,0.));
#1661=DIRECTION('',(0.,1.,0.));
#1662=DIRECTION('',(0.,0.,-1.));
#1663=DIRECTION('center_axis',(0.,-1.,0.));
#1664=DIRECTION('ref_axis',(-1.,0.,0.));
#1665=DIRECTION('',(1.,0.,0.));
#1666=DIRECTION('',(-1.,0.,0.));
#1667=DIRECTION('center_axis',(0.,0.,-1.));
#1668=DIRECTION('ref_axis',(-1.,0.,0.));
#1669=DIRECTION('center_axis',(0.,0.,-1.));
#1670=DIRECTION('ref_axis',(-1.,0.,0.));
#1671=DIRECTION('center_axis',(0.,1.,0.));
#1672=DIRECTION('ref_axis',(1.,0.,0.));
#1673=DIRECTION('',(1.,0.,0.));
#1674=DIRECTION('',(0.,0.,-1.));
#1675=DIRECTION('',(1.,0.,0.));
#1676=DIRECTION('',(0.,0.,-1.));
#1677=DIRECTION('center_axis',(-1.,0.,0.));
#1678=DIRECTION('ref_axis',(0.,1.,0.));
#1679=DIRECTION('',(0.,1.,0.));
#1680=DIRECTION('',(0.,1.,0.));
#1681=DIRECTION('',(0.,0.,-1.));
#1682=DIRECTION('center_axis',(0.,-1.,0.));
#1683=DIRECTION('ref_axis',(-1.,0.,0.));
#1684=DIRECTION('',(-1.,0.,0.));
#1685=DIRECTION('',(-1.,0.,0.));
#1686=DIRECTION('',(0.,0.,-1.));
#1687=DIRECTION('center_axis',(1.,0.,0.));
#1688=DIRECTION('ref_axis',(0.,-1.,0.));
#1689=DIRECTION('',(0.,-1.,0.));
#1690=DIRECTION('',(0.,-1.,0.));
#1691=DIRECTION('center_axis',(0.,0.,-1.));
#1692=DIRECTION('ref_axis',(-1.,0.,0.));
#1693=DIRECTION('center_axis',(0.,0.,-1.));
#1694=DIRECTION('ref_axis',(-1.,0.,0.));
#1695=DIRECTION('center_axis',(-1.,0.,0.));
#1696=DIRECTION('ref_axis',(0.,1.,0.));
#1697=DIRECTION('',(0.,1.,0.));
#1698=DIRECTION('',(0.,0.,-1.));
#1699=DIRECTION('',(0.,1.,0.));
#1700=DIRECTION('',(0.,0.,-1.));
#1701=DIRECTION('center_axis',(0.,-1.,0.));
#1702=DIRECTION('ref_axis',(-1.,0.,0.));
#1703=DIRECTION('',(-1.,0.,0.));
#1704=DIRECTION('',(-1.,0.,0.));
#1705=DIRECTION('',(0.,0.,-1.));
#1706=DIRECTION('center_axis',(1.,0.,0.));
#1707=DIRECTION('ref_axis',(0.,-1.,0.));
#1708=DIRECTION('',(0.,-1.,0.));
#1709=DIRECTION('',(0.,-1.,0.));
#1710=DIRECTION('',(0.,0.,-1.));
#1711=DIRECTION('center_axis',(0.,1.,0.));
#1712=DIRECTION('ref_axis',(1.,0.,0.));
#1713=DIRECTION('',(1.,0.,0.));
#1714=DIRECTION('',(1.,0.,0.));
#1715=DIRECTION('center_axis',(0.,0.,-1.));
#1716=DIRECTION('ref_axis',(-1.,0.,0.));
#1717=DIRECTION('center_axis',(0.,0.,-1.));
#1718=DIRECTION('ref_axis',(-1.,0.,0.));
#1719=DIRECTION('center_axis',(-1.,0.,0.));
#1720=DIRECTION('ref_axis',(0.,1.,0.));
#1721=DIRECTION('',(0.,1.,0.));
#1722=DIRECTION('',(0.,0.,-1.));
#1723=DIRECTION('',(0.,1.,0.));
#1724=DIRECTION('',(0.,0.,-1.));
#1725=DIRECTION('center_axis',(0.,-1.,0.));
#1726=DIRECTION('ref_axis',(-1.,0.,0.));
#1727=DIRECTION('',(-1.,0.,0.));
#1728=DIRECTION('',(-1.,0.,0.));
#1729=DIRECTION('',(0.,0.,-1.));
#1730=DIRECTION('center_axis',(1.,0.,0.));
#1731=DIRECTION('ref_axis',(0.,-1.,0.));
#1732=DIRECTION('',(0.,-1.,0.));
#1733=DIRECTION('',(0.,-1.,0.));
#1734=DIRECTION('',(0.,0.,-1.));
#1735=DIRECTION('center_axis',(0.,1.,0.));
#1736=DIRECTION('ref_axis',(1.,0.,0.));
#1737=DIRECTION('',(1.,0.,0.));
#1738=DIRECTION('',(1.,0.,0.));
#1739=DIRECTION('center_axis',(0.,0.,-1.));
#1740=DIRECTION('ref_axis',(-1.,0.,0.));
#1741=DIRECTION('center_axis',(0.,0.,-1.));
#1742=DIRECTION('ref_axis',(-1.,0.,0.));
#1743=DIRECTION('center_axis',(1.,0.,0.));
#1744=DIRECTION('ref_axis',(0.,-1.,0.));
#1745=DIRECTION('',(0.,1.,0.));
#1746=DIRECTION('',(0.,0.,-1.));
#1747=DIRECTION('',(0.,-1.,0.));
#1748=DIRECTION('',(0.,0.,-1.));
#1749=DIRECTION('center_axis',(0.,1.,0.));
#1750=DIRECTION('ref_axis',(1.,0.,0.));
#1751=DIRECTION('',(-1.,0.,0.));
#1752=DIRECTION('',(1.,0.,0.));
#1753=DIRECTION('',(0.,0.,-1.));
#1754=DIRECTION('center_axis',(-1.,0.,0.));
#1755=DIRECTION('ref_axis',(0.,1.,0.));
#1756=DIRECTION('',(0.,-1.,0.));
#1757=DIRECTION('',(0.,1.,0.));
#1758=DIRECTION('',(0.,0.,-1.));
#1759=DIRECTION('center_axis',(0.,-1.,0.));
#1760=DIRECTION('ref_axis',(-1.,0.,0.));
#1761=DIRECTION('',(1.,0.,0.));
#1762=DIRECTION('',(-1.,0.,0.));
#1763=DIRECTION('center_axis',(0.,0.,-1.));
#1764=DIRECTION('ref_axis',(-1.,0.,0.));
#1765=DIRECTION('center_axis',(0.,0.,-1.));
#1766=DIRECTION('ref_axis',(-1.,0.,0.));
#1767=DIRECTION('center_axis',(1.,0.,0.));
#1768=DIRECTION('ref_axis',(0.,-1.,0.));
#1769=DIRECTION('',(0.,1.,0.));
#1770=DIRECTION('',(0.,0.,-1.));
#1771=DIRECTION('',(0.,-1.,0.));
#1772=DIRECTION('',(0.,0.,-1.));
#1773=DIRECTION('center_axis',(0.,1.,0.));
#1774=DIRECTION('ref_axis',(1.,0.,0.));
#1775=DIRECTION('',(-1.,0.,0.));
#1776=DIRECTION('',(1.,0.,0.));
#1777=DIRECTION('',(0.,0.,-1.));
#1778=DIRECTION('center_axis',(-1.,0.,0.));
#1779=DIRECTION('ref_axis',(0.,1.,0.));
#1780=DIRECTION('',(0.,-1.,0.));
#1781=DIRECTION('',(0.,1.,0.));
#1782=DIRECTION('',(0.,0.,-1.));
#1783=DIRECTION('center_axis',(0.,-1.,0.));
#1784=DIRECTION('ref_axis',(-1.,0.,0.));
#1785=DIRECTION('',(1.,0.,0.));
#1786=DIRECTION('',(-1.,0.,0.));
#1787=DIRECTION('center_axis',(0.,0.,-1.));
#1788=DIRECTION('ref_axis',(-1.,0.,0.));
#1789=DIRECTION('center_axis',(0.,0.,-1.));
#1790=DIRECTION('ref_axis',(-1.,0.,0.));
#1791=DIRECTION('center_axis',(1.,0.,0.));
#1792=DIRECTION('ref_axis',(0.,-1.,0.));
#1793=DIRECTION('',(0.,1.,0.));
#1794=DIRECTION('',(0.,0.,-1.));
#1795=DIRECTION('',(0.,-1.,0.));
#1796=DIRECTION('',(0.,0.,-1.));
#1797=DIRECTION('center_axis',(0.,1.,0.));
#1798=DIRECTION('ref_axis',(1.,0.,0.));
#1799=DIRECTION('',(-1.,0.,0.));
#1800=DIRECTION('',(1.,0.,0.));
#1801=DIRECTION('',(0.,0.,-1.));
#1802=DIRECTION('center_axis',(-1.,0.,0.));
#1803=DIRECTION('ref_axis',(0.,1.,0.));
#1804=DIRECTION('',(0.,-1.,0.));
#1805=DIRECTION('',(0.,1.,0.));
#1806=DIRECTION('',(0.,0.,-1.));
#1807=DIRECTION('center_axis',(0.,-1.,0.));
#1808=DIRECTION('ref_axis',(-1.,0.,0.));
#1809=DIRECTION('',(1.,0.,0.));
#1810=DIRECTION('',(-1.,0.,0.));
#1811=DIRECTION('center_axis',(0.,0.,-1.));
#1812=DIRECTION('ref_axis',(-1.,0.,0.));
#1813=DIRECTION('center_axis',(0.,0.,-1.));
#1814=DIRECTION('ref_axis',(-1.,0.,0.));
#1815=DIRECTION('center_axis',(0.,1.,0.));
#1816=DIRECTION('ref_axis',(1.,0.,0.));
#1817=DIRECTION('',(1.,0.,0.));
#1818=DIRECTION('',(0.,0.,-1.));
#1819=DIRECTION('',(1.,0.,0.));
#1820=DIRECTION('',(0.,0.,-1.));
#1821=DIRECTION('center_axis',(-1.,0.,0.));
#1822=DIRECTION('ref_axis',(0.,1.,0.));
#1823=DIRECTION('',(0.,1.,0.));
#1824=DIRECTION('',(0.,1.,0.));
#1825=DIRECTION('',(0.,0.,-1.));
#1826=DIRECTION('center_axis',(0.,-1.,0.));
#1827=DIRECTION('ref_axis',(-1.,0.,0.));
#1828=DIRECTION('',(-1.,0.,0.));
#1829=DIRECTION('',(-1.,0.,0.));
#1830=DIRECTION('',(0.,0.,-1.));
#1831=DIRECTION('center_axis',(1.,0.,0.));
#1832=DIRECTION('ref_axis',(0.,-1.,0.));
#1833=DIRECTION('',(0.,-1.,0.));
#1834=DIRECTION('',(0.,-1.,0.));
#1835=DIRECTION('center_axis',(0.,0.,-1.));
#1836=DIRECTION('ref_axis',(-1.,0.,0.));
#1837=DIRECTION('center_axis',(0.,0.,-1.));
#1838=DIRECTION('ref_axis',(-1.,0.,0.));
#1839=DIRECTION('center_axis',(1.,0.,0.));
#1840=DIRECTION('ref_axis',(0.,-1.,0.));
#1841=DIRECTION('',(0.,1.,0.));
#1842=DIRECTION('',(0.,0.,-1.));
#1843=DIRECTION('',(0.,-1.,0.));
#1844=DIRECTION('',(0.,0.,-1.));
#1845=DIRECTION('center_axis',(0.,1.,0.));
#1846=DIRECTION('ref_axis',(1.,0.,0.));
#1847=DIRECTION('',(-1.,0.,0.));
#1848=DIRECTION('',(1.,0.,0.));
#1849=DIRECTION('',(0.,0.,-1.));
#1850=DIRECTION('center_axis',(-1.,0.,0.));
#1851=DIRECTION('ref_axis',(0.,1.,0.));
#1852=DIRECTION('',(0.,-1.,0.));
#1853=DIRECTION('',(0.,1.,0.));
#1854=DIRECTION('',(0.,0.,-1.));
#1855=DIRECTION('center_axis',(0.,-1.,0.));
#1856=DIRECTION('ref_axis',(-1.,0.,0.));
#1857=DIRECTION('',(1.,0.,0.));
#1858=DIRECTION('',(-1.,0.,0.));
#1859=DIRECTION('center_axis',(0.,0.,-1.));
#1860=DIRECTION('ref_axis',(-1.,0.,0.));
#1861=DIRECTION('center_axis',(0.,0.,-1.));
#1862=DIRECTION('ref_axis',(-1.,0.,0.));
#1863=DIRECTION('center_axis',(0.,0.,1.));
#1864=DIRECTION('ref_axis',(-0.707106781186548,-0.707106781186548,0.));
#1865=DIRECTION('center_axis',(0.,0.,-1.));
#1866=DIRECTION('ref_axis',(-0.707106781186548,-0.707106781186548,0.));
#1867=DIRECTION('',(0.,0.,1.));
#1868=DIRECTION('center_axis',(0.,0.,1.));
#1869=DIRECTION('ref_axis',(-0.707106781186548,-0.707106781186548,0.));
#1870=DIRECTION('',(0.,0.,-1.));
#1871=DIRECTION('center_axis',(1.,0.,0.));
#1872=DIRECTION('ref_axis',(0.,1.,0.));
#1873=DIRECTION('',(0.,1.,0.));
#1874=DIRECTION('',(0.,0.,1.));
#1875=DIRECTION('',(0.,1.,0.));
#1876=DIRECTION('center_axis',(0.,0.,1.));
#1877=DIRECTION('ref_axis',(-0.707106781186548,0.707106781186547,0.));
#1878=DIRECTION('center_axis',(0.,0.,-1.));
#1879=DIRECTION('ref_axis',(-0.707106781186548,0.707106781186547,0.));
#1880=DIRECTION('',(0.,0.,1.));
#1881=DIRECTION('center_axis',(0.,0.,1.));
#1882=DIRECTION('ref_axis',(-0.707106781186548,0.707106781186547,0.));
#1883=DIRECTION('',(0.,0.,-1.));
#1884=DIRECTION('center_axis',(5.41572207134222E-16,-1.,0.));
#1885=DIRECTION('ref_axis',(1.,5.41572207134222E-16,0.));
#1886=DIRECTION('',(1.,5.41572207134222E-16,0.));
#1887=DIRECTION('',(0.,0.,1.));
#1888=DIRECTION('',(1.,5.41572207134222E-16,0.));
#1889=DIRECTION('center_axis',(0.,0.,1.));
#1890=DIRECTION('ref_axis',(0.707106781186548,0.707106781186547,0.));
#1891=DIRECTION('center_axis',(0.,0.,-1.));
#1892=DIRECTION('ref_axis',(0.707106781186548,0.707106781186547,0.));
#1893=DIRECTION('',(0.,0.,1.));
#1894=DIRECTION('center_axis',(0.,0.,1.));
#1895=DIRECTION('ref_axis',(0.707106781186548,0.707106781186547,0.));
#1896=DIRECTION('',(0.,0.,-1.));
#1897=DIRECTION('center_axis',(-1.,0.,0.));
#1898=DIRECTION('ref_axis',(0.,-1.,0.));
#1899=DIRECTION('',(0.,-1.,0.));
#1900=DIRECTION('',(0.,0.,1.));
#1901=DIRECTION('',(0.,-1.,0.));
#1902=DIRECTION('center_axis',(0.,0.,1.));
#1903=DIRECTION('ref_axis',(0.707106781186548,-0.707106781186548,0.));
#1904=DIRECTION('center_axis',(0.,0.,-1.));
#1905=DIRECTION('ref_axis',(0.707106781186548,-0.707106781186548,0.));
#1906=DIRECTION('',(0.,0.,1.));
#1907=DIRECTION('center_axis',(0.,0.,1.));
#1908=DIRECTION('ref_axis',(0.707106781186548,-0.707106781186548,0.));
#1909=DIRECTION('',(0.,0.,-1.));
#1910=DIRECTION('center_axis',(0.,1.,0.));
#1911=DIRECTION('ref_axis',(-1.,0.,0.));
#1912=DIRECTION('',(-1.,0.,0.));
#1913=DIRECTION('',(0.,0.,1.));
#1914=DIRECTION('',(-1.,0.,0.));
#1915=DIRECTION('center_axis',(0.,0.,1.));
#1916=DIRECTION('ref_axis',(1.,0.,0.));
#1917=DIRECTION('center_axis',(0.,0.,-1.));
#1918=DIRECTION('ref_axis',(1.,0.,0.));
#1919=DIRECTION('',(0.,0.,-1.));
#1920=DIRECTION('center_axis',(0.,0.,-1.));
#1921=DIRECTION('ref_axis',(1.,0.,0.));
#1922=DIRECTION('center_axis',(0.,0.,1.));
#1923=DIRECTION('ref_axis',(1.,0.,0.));
#1924=DIRECTION('center_axis',(0.,0.,-1.));
#1925=DIRECTION('ref_axis',(1.,0.,0.));
#1926=DIRECTION('',(0.,0.,-1.));
#1927=DIRECTION('center_axis',(0.,0.,-1.));
#1928=DIRECTION('ref_axis',(1.,0.,0.));
#1929=DIRECTION('center_axis',(0.,0.,1.));
#1930=DIRECTION('ref_axis',(1.,0.,0.));
#1931=DIRECTION('center_axis',(0.,0.,-1.));
#1932=DIRECTION('ref_axis',(1.,0.,0.));
#1933=DIRECTION('',(0.,0.,-1.));
#1934=DIRECTION('center_axis',(0.,0.,-1.));
#1935=DIRECTION('ref_axis',(1.,0.,0.));
#1936=DIRECTION('center_axis',(0.,0.,1.));
#1937=DIRECTION('ref_axis',(1.,0.,0.));
#1938=DIRECTION('center_axis',(0.,0.,-1.));
#1939=DIRECTION('ref_axis',(1.,0.,0.));
#1940=DIRECTION('',(0.,0.,-1.));
#1941=DIRECTION('center_axis',(0.,0.,-1.));
#1942=DIRECTION('ref_axis',(1.,0.,0.));
#1943=DIRECTION('center_axis',(0.,0.,1.));
#1944=DIRECTION('ref_axis',(1.,0.,0.));
#1945=DIRECTION('center_axis',(0.,0.,-1.));
#1946=DIRECTION('ref_axis',(1.,0.,0.));
#1947=DIRECTION('',(0.,0.,-1.));
#1948=DIRECTION('center_axis',(0.,0.,-1.));
#1949=DIRECTION('ref_axis',(1.,0.,0.));
#1950=DIRECTION('center_axis',(0.,0.,1.));
#1951=DIRECTION('ref_axis',(1.,0.,0.));
#1952=DIRECTION('center_axis',(0.,0.,-1.));
#1953=DIRECTION('ref_axis',(1.,0.,0.));
#1954=DIRECTION('',(0.,0.,-1.));
#1955=DIRECTION('center_axis',(0.,0.,-1.));
#1956=DIRECTION('ref_axis',(1.,0.,0.));
#1957=DIRECTION('center_axis',(0.,0.,1.));
#1958=DIRECTION('ref_axis',(1.,0.,0.));
#1959=DIRECTION('center_axis',(0.,0.,-1.));
#1960=DIRECTION('ref_axis',(1.,0.,0.));
#1961=DIRECTION('',(0.,0.,-1.));
#1962=DIRECTION('center_axis',(0.,0.,-1.));
#1963=DIRECTION('ref_axis',(1.,0.,0.));
#1964=DIRECTION('center_axis',(0.,0.,1.));
#1965=DIRECTION('ref_axis',(1.,0.,0.));
#1966=DIRECTION('center_axis',(0.,0.,-1.));
#1967=DIRECTION('ref_axis',(1.,0.,0.));
#1968=DIRECTION('',(0.,0.,-1.));
#1969=DIRECTION('center_axis',(0.,0.,-1.));
#1970=DIRECTION('ref_axis',(1.,0.,0.));
#1971=DIRECTION('center_axis',(0.,1.,0.));
#1972=DIRECTION('ref_axis',(-1.,0.,0.));
#1973=DIRECTION('',(-1.,0.,0.));
#1974=DIRECTION('',(0.,0.,1.));
#1975=DIRECTION('',(1.,0.,0.));
#1976=DIRECTION('center_axis',(0.,0.,1.));
#1977=DIRECTION('ref_axis',(0.,-1.,0.));
#1978=DIRECTION('center_axis',(0.,0.,1.));
#1979=DIRECTION('ref_axis',(0.,-1.,0.));
#1980=DIRECTION('center_axis',(0.,0.,1.));
#1981=DIRECTION('ref_axis',(0.,-1.,0.));
#1982=DIRECTION('center_axis',(1.,0.,0.));
#1983=DIRECTION('ref_axis',(0.,1.,0.));
#1984=DIRECTION('',(0.,1.,0.));
#1985=DIRECTION('',(0.,0.,1.));
#1986=DIRECTION('',(0.,-1.,0.));
#1987=DIRECTION('center_axis',(0.,-1.,0.));
#1988=DIRECTION('ref_axis',(1.,0.,0.));
#1989=DIRECTION('',(1.,0.,0.));
#1990=DIRECTION('',(1.,0.,0.));
#1991=DIRECTION('center_axis',(-5.41572207134223E-16,-1.,0.));
#1992=DIRECTION('ref_axis',(1.,-5.41572207134223E-16,0.));
#1993=DIRECTION('',(1.,-5.41572207134223E-16,0.));
#1994=DIRECTION('',(0.,0.,1.));
#1995=DIRECTION('',(-1.,5.41572207134223E-16,0.));
#1996=DIRECTION('center_axis',(0.,0.,1.));
#1997=DIRECTION('ref_axis',(0.,1.,0.));
#1998=DIRECTION('center_axis',(0.,0.,1.));
#1999=DIRECTION('ref_axis',(0.,1.,0.));
#2000=DIRECTION('center_axis',(0.,0.,1.));
#2001=DIRECTION('ref_axis',(0.,1.,0.));
#2002=DIRECTION('center_axis',(-1.,0.,0.));
#2003=DIRECTION('ref_axis',(0.,-1.,0.));
#2004=DIRECTION('',(0.,-1.,0.));
#2005=DIRECTION('',(0.,0.,1.));
#2006=DIRECTION('',(0.,1.,0.));
#2007=DIRECTION('center_axis',(0.,1.,0.));
#2008=DIRECTION('ref_axis',(-1.,0.,0.));
#2009=DIRECTION('',(-1.,0.,0.));
#2010=DIRECTION('',(-1.,0.,0.));
#2011=DIRECTION('center_axis',(0.,0.,1.));
#2012=DIRECTION('ref_axis',(1.,0.,0.));
#2013=DIRECTION('center_axis',(0.,0.,1.));
#2014=DIRECTION('ref_axis',(1.,0.,0.));
#2015=DIRECTION('',(0.,0.,1.));
#2016=DIRECTION('',(1.,0.,0.));
#2017=CARTESIAN_POINT('',(0.,0.,0.));
#2018=CARTESIAN_POINT('',(0.,0.,0.));
#2019=CARTESIAN_POINT('Origin',(10.3,4.7,1.65));
#2020=CARTESIAN_POINT('',(10.3,2.3,1.65));
#2021=CARTESIAN_POINT('',(10.3,4.7,1.65));
#2022=CARTESIAN_POINT('',(10.3,2.3,1.65));
#2023=CARTESIAN_POINT('',(10.3,2.3,2.95));
#2024=CARTESIAN_POINT('',(10.3,2.3,1.65));
#2025=CARTESIAN_POINT('',(10.3,4.7,2.95));
#2026=CARTESIAN_POINT('',(10.3,2.3,2.95));
#2027=CARTESIAN_POINT('',(10.3,4.7,1.65));
#2028=CARTESIAN_POINT('Origin',(14.7,4.7,1.65));
#2029=CARTESIAN_POINT('',(14.7,4.7,1.65));
#2030=CARTESIAN_POINT('',(10.3,4.7,1.65));
#2031=CARTESIAN_POINT('',(14.7,4.7,2.95));
#2032=CARTESIAN_POINT('',(10.3,4.7,2.95));
#2033=CARTESIAN_POINT('',(14.7,4.7,1.65));
#2034=CARTESIAN_POINT('Origin',(14.7,2.3,1.65));
#2035=CARTESIAN_POINT('',(14.7,2.3,1.65));
#2036=CARTESIAN_POINT('',(14.7,4.7,1.65));
#2037=CARTESIAN_POINT('',(14.7,2.3,2.95));
#2038=CARTESIAN_POINT('',(14.7,4.7,2.95));
#2039=CARTESIAN_POINT('',(14.7,2.3,1.65));
#2040=CARTESIAN_POINT('Origin',(10.3,2.3,1.65));
#2041=CARTESIAN_POINT('',(14.7,2.3,1.65));
#2042=CARTESIAN_POINT('',(14.7,2.3,2.95));
#2043=CARTESIAN_POINT('Origin',(12.5,3.5,2.95));
#2044=CARTESIAN_POINT('Origin',(12.5,3.5,1.65));
#2045=CARTESIAN_POINT('Origin',(15.45,7.55,0.));
#2046=CARTESIAN_POINT('',(15.45,4.33,0.));
#2047=CARTESIAN_POINT('',(15.45,7.55,0.));
#2048=CARTESIAN_POINT('',(15.45,4.33,0.));
#2049=CARTESIAN_POINT('',(15.45,4.33,-0.7));
#2050=CARTESIAN_POINT('',(15.45,4.33,0.));
#2051=CARTESIAN_POINT('',(15.45,7.55,-0.7));
#2052=CARTESIAN_POINT('',(15.45,4.33,-0.7));
#2053=CARTESIAN_POINT('',(15.45,7.55,0.));
#2054=CARTESIAN_POINT('Origin',(13.65,7.55,0.));
#2055=CARTESIAN_POINT('',(13.65,7.55,0.));
#2056=CARTESIAN_POINT('',(15.45,7.55,0.));
#2057=CARTESIAN_POINT('',(13.65,7.55,-0.7));
#2058=CARTESIAN_POINT('',(15.45,7.55,-0.7));
#2059=CARTESIAN_POINT('',(13.65,7.55,0.));
#2060=CARTESIAN_POINT('Origin',(13.65,4.33,0.));
#2061=CARTESIAN_POINT('',(13.65,4.33,0.));
#2062=CARTESIAN_POINT('',(13.65,7.55,0.));
#2063=CARTESIAN_POINT('',(13.65,4.33,-0.7));
#2064=CARTESIAN_POINT('',(13.65,7.55,-0.7));
#2065=CARTESIAN_POINT('',(13.65,4.33,0.));
#2066=CARTESIAN_POINT('Origin',(15.45,4.33,0.));
#2067=CARTESIAN_POINT('',(13.65,4.33,0.));
#2068=CARTESIAN_POINT('',(13.65,4.33,-0.7));
#2069=CARTESIAN_POINT('Origin',(14.55,5.94,-0.7));
#2070=CARTESIAN_POINT('Origin',(14.55,5.94,0.));
#2071=CARTESIAN_POINT('Origin',(13.8499996714294,2.9,0.));
#2072=CARTESIAN_POINT('',(13.8499996714294,2.9,0.));
#2073=CARTESIAN_POINT('',(14.6999996714294,2.9,0.));
#2074=CARTESIAN_POINT('',(13.8499996714294,2.9,0.));
#2075=CARTESIAN_POINT('',(14.6999996714294,2.9,-0.85));
#2076=CARTESIAN_POINT('',(14.6999996714294,2.9,0.));
#2077=CARTESIAN_POINT('',(13.8499996714294,2.9,-0.85));
#2078=CARTESIAN_POINT('',(13.8499996714294,2.9,-0.85));
#2079=CARTESIAN_POINT('',(13.8499996714294,2.9,0.));
#2080=CARTESIAN_POINT('Origin',(13.8499996714294,1.1,0.));
#2081=CARTESIAN_POINT('',(13.8499996714294,1.1,0.));
#2082=CARTESIAN_POINT('',(13.8499996714294,1.1,0.));
#2083=CARTESIAN_POINT('',(13.8499996714294,1.1,-0.85));
#2084=CARTESIAN_POINT('',(13.8499996714294,1.1,-0.85));
#2085=CARTESIAN_POINT('',(13.8499996714294,1.1,0.));
#2086=CARTESIAN_POINT('Origin',(14.6999996714294,1.1,0.));
#2087=CARTESIAN_POINT('',(14.6999996714294,1.1,0.));
#2088=CARTESIAN_POINT('',(14.6999996714294,1.1,0.));
#2089=CARTESIAN_POINT('',(14.6999996714294,1.1,-0.85));
#2090=CARTESIAN_POINT('',(14.6999996714294,1.1,-0.85));
#2091=CARTESIAN_POINT('',(14.6999996714294,1.1,0.));
#2092=CARTESIAN_POINT('Origin',(14.6999996714294,2.9,0.));
#2093=CARTESIAN_POINT('',(14.6999996714294,2.9,0.));
#2094=CARTESIAN_POINT('',(14.6999996714294,2.9,-0.85));
#2095=CARTESIAN_POINT('Origin',(14.2749996714294,2.,-0.85));
#2096=CARTESIAN_POINT('Origin',(14.2749996714294,2.,0.));
#2097=CARTESIAN_POINT('Origin',(12.2499996714294,1.1,0.));
#2098=CARTESIAN_POINT('',(12.2499996714294,1.1,0.));
#2099=CARTESIAN_POINT('',(12.2499996714294,2.9,0.));
#2100=CARTESIAN_POINT('',(12.2499996714294,1.1,0.));
#2101=CARTESIAN_POINT('',(12.2499996714294,2.9,-0.85));
#2102=CARTESIAN_POINT('',(12.2499996714294,2.9,0.));
#2103=CARTESIAN_POINT('',(12.2499996714294,1.1,-0.85));
#2104=CARTESIAN_POINT('',(12.2499996714294,1.1,-0.85));
#2105=CARTESIAN_POINT('',(12.2499996714294,1.1,0.));
#2106=CARTESIAN_POINT('Origin',(13.0999996714294,1.1,0.));
#2107=CARTESIAN_POINT('',(13.0999996714294,1.1,0.));
#2108=CARTESIAN_POINT('',(13.0999996714294,1.1,0.));
#2109=CARTESIAN_POINT('',(13.0999996714294,1.1,-0.85));
#2110=CARTESIAN_POINT('',(13.0999996714294,1.1,-0.85));
#2111=CARTESIAN_POINT('',(13.0999996714294,1.1,0.));
#2112=CARTESIAN_POINT('Origin',(13.0999996714294,2.9,0.));
#2113=CARTESIAN_POINT('',(13.0999996714294,2.9,0.));
#2114=CARTESIAN_POINT('',(13.0999996714294,2.9,0.));
#2115=CARTESIAN_POINT('',(13.0999996714294,2.9,-0.85));
#2116=CARTESIAN_POINT('',(13.0999996714294,2.9,-0.85));
#2117=CARTESIAN_POINT('',(13.0999996714294,2.9,0.));
#2118=CARTESIAN_POINT('Origin',(12.2499996714294,2.9,0.));
#2119=CARTESIAN_POINT('',(12.2499996714294,2.9,0.));
#2120=CARTESIAN_POINT('',(12.2499996714294,2.9,-0.85));
#2121=CARTESIAN_POINT('Origin',(12.6749996714294,2.,-0.85));
#2122=CARTESIAN_POINT('Origin',(12.6749996714294,2.,0.));
#2123=CARTESIAN_POINT('Origin',(10.6499996714294,1.1,0.));
#2124=CARTESIAN_POINT('',(10.6499996714294,1.1,0.));
#2125=CARTESIAN_POINT('',(10.6499996714294,2.9,0.));
#2126=CARTESIAN_POINT('',(10.6499996714294,1.1,0.));
#2127=CARTESIAN_POINT('',(10.6499996714294,2.9,-0.85));
#2128=CARTESIAN_POINT('',(10.6499996714294,2.9,0.));
#2129=CARTESIAN_POINT('',(10.6499996714294,1.1,-0.85));
#2130=CARTESIAN_POINT('',(10.6499996714294,1.1,-0.85));
#2131=CARTESIAN_POINT('',(10.6499996714294,1.1,0.));
#2132=CARTESIAN_POINT('Origin',(11.4999996714294,1.1,0.));
#2133=CARTESIAN_POINT('',(11.4999996714294,1.1,0.));
#2134=CARTESIAN_POINT('',(11.4999996714294,1.1,0.));
#2135=CARTESIAN_POINT('',(11.4999996714294,1.1,-0.85));
#2136=CARTESIAN_POINT('',(11.4999996714294,1.1,-0.85));
#2137=CARTESIAN_POINT('',(11.4999996714294,1.1,0.));
#2138=CARTESIAN_POINT('Origin',(11.4999996714294,2.9,0.));
#2139=CARTESIAN_POINT('',(11.4999996714294,2.9,0.));
#2140=CARTESIAN_POINT('',(11.4999996714294,2.9,0.));
#2141=CARTESIAN_POINT('',(11.4999996714294,2.9,-0.85));
#2142=CARTESIAN_POINT('',(11.4999996714294,2.9,-0.85));
#2143=CARTESIAN_POINT('',(11.4999996714294,2.9,0.));
#2144=CARTESIAN_POINT('Origin',(10.6499996714294,2.9,0.));
#2145=CARTESIAN_POINT('',(10.6499996714294,2.9,0.));
#2146=CARTESIAN_POINT('',(10.6499996714294,2.9,-0.85));
#2147=CARTESIAN_POINT('Origin',(11.0749996714294,2.,-0.85));
#2148=CARTESIAN_POINT('Origin',(11.0749996714294,2.,0.));
#2149=CARTESIAN_POINT('Origin',(8.4,5.6,0.));
#2150=CARTESIAN_POINT('',(8.4,3.7,0.));
#2151=CARTESIAN_POINT('',(8.4,5.6,0.));
#2152=CARTESIAN_POINT('',(8.4,3.7,0.));
#2153=CARTESIAN_POINT('',(8.4,3.7,-0.5));
#2154=CARTESIAN_POINT('',(8.4,3.7,0.));
#2155=CARTESIAN_POINT('',(8.4,5.6,-0.5));
#2156=CARTESIAN_POINT('',(8.4,3.7,-0.5));
#2157=CARTESIAN_POINT('',(8.4,5.6,0.));
#2158=CARTESIAN_POINT('Origin',(7.58,5.6,0.));
#2159=CARTESIAN_POINT('',(7.58,5.6,0.));
#2160=CARTESIAN_POINT('',(8.4,5.6,0.));
#2161=CARTESIAN_POINT('',(7.58,5.6,-0.5));
#2162=CARTESIAN_POINT('',(8.4,5.6,-0.5));
#2163=CARTESIAN_POINT('',(7.58,5.6,0.));
#2164=CARTESIAN_POINT('Origin',(7.58,3.7,0.));
#2165=CARTESIAN_POINT('',(7.58,3.7,0.));
#2166=CARTESIAN_POINT('',(7.58,5.6,0.));
#2167=CARTESIAN_POINT('',(7.58,3.7,-0.5));
#2168=CARTESIAN_POINT('',(7.58,5.6,-0.5));
#2169=CARTESIAN_POINT('',(7.58,3.7,0.));
#2170=CARTESIAN_POINT('Origin',(8.4,3.7,0.));
#2171=CARTESIAN_POINT('',(7.58,3.7,0.));
#2172=CARTESIAN_POINT('',(7.58,3.7,-0.5));
#2173=CARTESIAN_POINT('Origin',(7.99,4.65,-0.5));
#2174=CARTESIAN_POINT('Origin',(7.99,4.65,0.));
#2175=CARTESIAN_POINT('Origin',(6.98,5.6,0.));
#2176=CARTESIAN_POINT('',(6.98,3.7,0.));
#2177=CARTESIAN_POINT('',(6.98,5.6,0.));
#2178=CARTESIAN_POINT('',(6.98,3.7,0.));
#2179=CARTESIAN_POINT('',(6.98,3.7,-0.5));
#2180=CARTESIAN_POINT('',(6.98,3.7,0.));
#2181=CARTESIAN_POINT('',(6.98,5.6,-0.5));
#2182=CARTESIAN_POINT('',(6.98,3.7,-0.5));
#2183=CARTESIAN_POINT('',(6.98,5.6,0.));
#2184=CARTESIAN_POINT('Origin',(6.16,5.6,0.));
#2185=CARTESIAN_POINT('',(6.16,5.6,0.));
#2186=CARTESIAN_POINT('',(6.98,5.6,0.));
#2187=CARTESIAN_POINT('',(6.16,5.6,-0.5));
#2188=CARTESIAN_POINT('',(6.98,5.6,-0.5));
#2189=CARTESIAN_POINT('',(6.16,5.6,0.));
#2190=CARTESIAN_POINT('Origin',(6.16,3.7,0.));
#2191=CARTESIAN_POINT('',(6.16,3.7,0.));
#2192=CARTESIAN_POINT('',(6.16,5.6,0.));
#2193=CARTESIAN_POINT('',(6.16,3.7,-0.5));
#2194=CARTESIAN_POINT('',(6.16,5.6,-0.5));
#2195=CARTESIAN_POINT('',(6.16,3.7,0.));
#2196=CARTESIAN_POINT('Origin',(6.98,3.7,0.));
#2197=CARTESIAN_POINT('',(6.16,3.7,0.));
#2198=CARTESIAN_POINT('',(6.16,3.7,-0.5));
#2199=CARTESIAN_POINT('Origin',(6.57,4.65,-0.5));
#2200=CARTESIAN_POINT('Origin',(6.57,4.65,0.));
#2201=CARTESIAN_POINT('Origin',(12.15,6.85,0.));
#2202=CARTESIAN_POINT('',(12.15,5.2,0.));
#2203=CARTESIAN_POINT('',(12.15,6.85,0.));
#2204=CARTESIAN_POINT('',(12.15,5.2,0.));
#2205=CARTESIAN_POINT('',(12.15,5.2,-1.2));
#2206=CARTESIAN_POINT('',(12.15,5.2,0.));
#2207=CARTESIAN_POINT('',(12.15,6.85,-1.2));
#2208=CARTESIAN_POINT('',(12.15,5.2,-1.2));
#2209=CARTESIAN_POINT('',(12.15,6.85,0.));
#2210=CARTESIAN_POINT('Origin',(10.05,6.85,0.));
#2211=CARTESIAN_POINT('',(10.05,6.85,0.));
#2212=CARTESIAN_POINT('',(12.15,6.85,0.));
#2213=CARTESIAN_POINT('',(10.05,6.85,-1.2));
#2214=CARTESIAN_POINT('',(12.15,6.85,-1.2));
#2215=CARTESIAN_POINT('',(10.05,6.85,0.));
#2216=CARTESIAN_POINT('Origin',(10.05,5.2,0.));
#2217=CARTESIAN_POINT('',(10.05,5.2,0.));
#2218=CARTESIAN_POINT('',(10.05,6.85,0.));
#2219=CARTESIAN_POINT('',(10.05,5.2,-1.2));
#2220=CARTESIAN_POINT('',(10.05,6.85,-1.2));
#2221=CARTESIAN_POINT('',(10.05,5.2,0.));
#2222=CARTESIAN_POINT('Origin',(12.15,5.2,0.));
#2223=CARTESIAN_POINT('',(10.05,5.2,0.));
#2224=CARTESIAN_POINT('',(10.05,5.2,-1.2));
#2225=CARTESIAN_POINT('Origin',(11.1,6.025,-1.2));
#2226=CARTESIAN_POINT('Origin',(11.1,6.025,0.));
#2227=CARTESIAN_POINT('Origin',(17.15,7.55,0.));
#2228=CARTESIAN_POINT('',(17.15,7.55,0.));
#2229=CARTESIAN_POINT('',(18.85,7.55,0.));
#2230=CARTESIAN_POINT('',(17.15,7.55,0.));
#2231=CARTESIAN_POINT('',(18.85,7.55,-0.85));
#2232=CARTESIAN_POINT('',(18.85,7.55,0.));
#2233=CARTESIAN_POINT('',(17.15,7.55,-0.85));
#2234=CARTESIAN_POINT('',(17.15,7.55,-0.85));
#2235=CARTESIAN_POINT('',(17.15,7.55,0.));
#2236=CARTESIAN_POINT('Origin',(17.15,6.75,0.));
#2237=CARTESIAN_POINT('',(17.15,6.75,0.));
#2238=CARTESIAN_POINT('',(17.15,6.75,0.));
#2239=CARTESIAN_POINT('',(17.15,6.75,-0.85));
#2240=CARTESIAN_POINT('',(17.15,6.75,-0.85));
#2241=CARTESIAN_POINT('',(17.15,6.75,0.));
#2242=CARTESIAN_POINT('Origin',(18.85,6.75,0.));
#2243=CARTESIAN_POINT('',(18.85,6.75,0.));
#2244=CARTESIAN_POINT('',(18.85,6.75,0.));
#2245=CARTESIAN_POINT('',(18.85,6.75,-0.85));
#2246=CARTESIAN_POINT('',(18.85,6.75,-0.85));
#2247=CARTESIAN_POINT('',(18.85,6.75,0.));
#2248=CARTESIAN_POINT('Origin',(18.85,7.55,0.));
#2249=CARTESIAN_POINT('',(18.85,7.55,0.));
#2250=CARTESIAN_POINT('',(18.85,7.55,-0.85));
#2251=CARTESIAN_POINT('Origin',(18.,7.15,-0.85));
#2252=CARTESIAN_POINT('Origin',(18.,7.15,0.));
#2253=CARTESIAN_POINT('Origin',(19.05,4.9,0.));
#2254=CARTESIAN_POINT('',(19.05,3.6,0.));
#2255=CARTESIAN_POINT('',(19.05,4.9,0.));
#2256=CARTESIAN_POINT('',(19.05,3.6,0.));
#2257=CARTESIAN_POINT('',(19.05,3.6,-0.85));
#2258=CARTESIAN_POINT('',(19.05,3.6,0.));
#2259=CARTESIAN_POINT('',(19.05,4.9,-0.85));
#2260=CARTESIAN_POINT('',(19.05,3.6,-0.85));
#2261=CARTESIAN_POINT('',(19.05,4.9,0.));
#2262=CARTESIAN_POINT('Origin',(16.15,4.9,0.));
#2263=CARTESIAN_POINT('',(16.15,4.9,0.));
#2264=CARTESIAN_POINT('',(19.05,4.9,0.));
#2265=CARTESIAN_POINT('',(16.15,4.9,-0.85));
#2266=CARTESIAN_POINT('',(19.05,4.9,-0.85));
#2267=CARTESIAN_POINT('',(16.15,4.9,0.));
#2268=CARTESIAN_POINT('Origin',(16.15,3.6,0.));
#2269=CARTESIAN_POINT('',(16.15,3.6,0.));
#2270=CARTESIAN_POINT('',(16.15,4.9,0.));
#2271=CARTESIAN_POINT('',(16.15,3.6,-0.85));
#2272=CARTESIAN_POINT('',(16.15,4.9,-0.85));
#2273=CARTESIAN_POINT('',(16.15,3.6,0.));
#2274=CARTESIAN_POINT('Origin',(19.05,3.6,0.));
#2275=CARTESIAN_POINT('',(16.15,3.6,0.));
#2276=CARTESIAN_POINT('',(16.15,3.6,-0.85));
#2277=CARTESIAN_POINT('Origin',(17.6,4.25,-0.85));
#2278=CARTESIAN_POINT('Origin',(17.6,4.25,0.));
#2279=CARTESIAN_POINT('Origin',(21.15,8.75,0.));
#2280=CARTESIAN_POINT('',(21.15,7.95,0.));
#2281=CARTESIAN_POINT('',(20.35,8.75,0.));
#2282=CARTESIAN_POINT('Origin',(21.15,8.75,0.));
#2283=CARTESIAN_POINT('',(20.35,8.75,1.65));
#2284=CARTESIAN_POINT('',(20.35,8.75,0.));
#2285=CARTESIAN_POINT('',(21.15,7.95,1.65));
#2286=CARTESIAN_POINT('Origin',(21.15,8.75,1.65));
#2287=CARTESIAN_POINT('',(21.15,7.95,0.));
#2288=CARTESIAN_POINT('Origin',(20.35,7.95,0.));
#2289=CARTESIAN_POINT('',(20.35,10.7,0.));
#2290=CARTESIAN_POINT('',(20.35,7.95,0.));
#2291=CARTESIAN_POINT('',(20.35,10.7,1.65));
#2292=CARTESIAN_POINT('',(20.35,10.7,0.));
#2293=CARTESIAN_POINT('',(20.35,7.95,1.65));
#2294=CARTESIAN_POINT('Origin',(21.15,1.95,0.));
#2295=CARTESIAN_POINT('',(20.35,1.95,0.));
#2296=CARTESIAN_POINT('',(21.15,2.75,0.));
#2297=CARTESIAN_POINT('Origin',(21.15,1.95,0.));
#2298=CARTESIAN_POINT('',(21.15,2.75,1.65));
#2299=CARTESIAN_POINT('',(21.15,2.75,0.));
#2300=CARTESIAN_POINT('',(20.35,1.95,1.65));
#2301=CARTESIAN_POINT('Origin',(21.15,1.95,1.65));
#2302=CARTESIAN_POINT('',(20.35,1.95,0.));
#2303=CARTESIAN_POINT('Origin',(20.35,2.75,0.));
#2304=CARTESIAN_POINT('',(22.4,2.75,0.));
#2305=CARTESIAN_POINT('',(20.35,2.75,0.));
#2306=CARTESIAN_POINT('',(22.4,2.75,1.65));
#2307=CARTESIAN_POINT('',(22.4,2.75,0.));
#2308=CARTESIAN_POINT('',(20.35,2.75,1.65));
#2309=CARTESIAN_POINT('Origin',(3.85,1.95,0.));
#2310=CARTESIAN_POINT('',(3.85,2.75,0.));
#2311=CARTESIAN_POINT('',(4.65,1.95,0.));
#2312=CARTESIAN_POINT('Origin',(3.85,1.95,0.));
#2313=CARTESIAN_POINT('',(4.65,1.95,1.65));
#2314=CARTESIAN_POINT('',(4.65,1.95,0.));
#2315=CARTESIAN_POINT('',(3.85,2.75,1.65));
#2316=CARTESIAN_POINT('Origin',(3.85,1.95,1.65));
#2317=CARTESIAN_POINT('',(3.85,2.75,0.));
#2318=CARTESIAN_POINT('Origin',(4.65,2.75,0.));
#2319=CARTESIAN_POINT('',(4.65,0.,0.));
#2320=CARTESIAN_POINT('',(4.65,2.75,0.));
#2321=CARTESIAN_POINT('',(4.65,0.,1.65));
#2322=CARTESIAN_POINT('',(4.65,0.,0.));
#2323=CARTESIAN_POINT('',(4.65,2.75,1.65));
#2324=CARTESIAN_POINT('Origin',(3.85,8.75,0.));
#2325=CARTESIAN_POINT('',(4.65,8.75,0.));
#2326=CARTESIAN_POINT('',(3.85,7.95,0.));
#2327=CARTESIAN_POINT('Origin',(3.85,8.75,0.));
#2328=CARTESIAN_POINT('',(3.85,7.95,1.65));
#2329=CARTESIAN_POINT('',(3.85,7.95,0.));
#2330=CARTESIAN_POINT('',(4.65,8.75,1.65));
#2331=CARTESIAN_POINT('Origin',(3.85,8.75,1.65));
#2332=CARTESIAN_POINT('',(4.65,8.75,0.));
#2333=CARTESIAN_POINT('Origin',(4.65,7.95,0.));
#2334=CARTESIAN_POINT('',(2.6,7.95,0.));
#2335=CARTESIAN_POINT('',(4.65,7.95,0.));
#2336=CARTESIAN_POINT('',(2.6,7.95,1.65));
#2337=CARTESIAN_POINT('',(2.6,7.95,0.));
#2338=CARTESIAN_POINT('',(4.65,7.95,1.65));
#2339=CARTESIAN_POINT('Origin',(6.1,9.25,0.));
#2340=CARTESIAN_POINT('',(5.5,9.25,1.65));
#2341=CARTESIAN_POINT('Origin',(6.1,9.25,1.65));
#2342=CARTESIAN_POINT('',(5.5,9.25,0.));
#2343=CARTESIAN_POINT('',(5.5,9.25,0.));
#2344=CARTESIAN_POINT('Origin',(6.1,9.25,0.));
#2345=CARTESIAN_POINT('Origin',(8.66,9.25,0.));
#2346=CARTESIAN_POINT('',(8.06,9.25,1.65));
#2347=CARTESIAN_POINT('Origin',(8.66,9.25,1.65));
#2348=CARTESIAN_POINT('',(8.06,9.25,0.));
#2349=CARTESIAN_POINT('',(8.06,9.25,0.));
#2350=CARTESIAN_POINT('Origin',(8.66,9.25,0.));
#2351=CARTESIAN_POINT('Origin',(11.22,9.25,0.));
#2352=CARTESIAN_POINT('',(10.62,9.25,1.65));
#2353=CARTESIAN_POINT('Origin',(11.22,9.25,1.65));
#2354=CARTESIAN_POINT('',(10.62,9.25,0.));
#2355=CARTESIAN_POINT('',(10.62,9.25,0.));
#2356=CARTESIAN_POINT('Origin',(11.22,9.25,0.));
#2357=CARTESIAN_POINT('Origin',(13.78,9.25,0.));
#2358=CARTESIAN_POINT('',(13.18,9.25,1.65));
#2359=CARTESIAN_POINT('Origin',(13.78,9.25,1.65));
#2360=CARTESIAN_POINT('',(13.18,9.25,0.));
#2361=CARTESIAN_POINT('',(13.18,9.25,0.));
#2362=CARTESIAN_POINT('Origin',(13.78,9.25,0.));
#2363=CARTESIAN_POINT('Origin',(18.9,9.25,0.));
#2364=CARTESIAN_POINT('',(18.3,9.25,1.65));
#2365=CARTESIAN_POINT('Origin',(18.9,9.25,1.65));
#2366=CARTESIAN_POINT('',(18.3,9.25,0.));
#2367=CARTESIAN_POINT('',(18.3,9.25,0.));
#2368=CARTESIAN_POINT('Origin',(18.9,9.25,0.));
#2369=CARTESIAN_POINT('Origin',(16.34,9.25,0.));
#2370=CARTESIAN_POINT('',(15.74,9.25,1.65));
#2371=CARTESIAN_POINT('Origin',(16.34,9.25,1.65));
#2372=CARTESIAN_POINT('',(15.74,9.25,0.));
#2373=CARTESIAN_POINT('',(15.74,9.25,0.));
#2374=CARTESIAN_POINT('Origin',(16.34,9.25,0.));
#2375=CARTESIAN_POINT('Origin',(22.4,5.35,0.));
#2376=CARTESIAN_POINT('',(20.9,5.35,1.65));
#2377=CARTESIAN_POINT('Origin',(22.4,5.35,1.65));
#2378=CARTESIAN_POINT('',(20.9,5.35,0.));
#2379=CARTESIAN_POINT('',(20.9,5.35,0.));
#2380=CARTESIAN_POINT('Origin',(22.4,5.35,0.));
#2381=CARTESIAN_POINT('Origin',(2.6,5.35,0.));
#2382=CARTESIAN_POINT('',(1.1,5.35,1.65));
#2383=CARTESIAN_POINT('Origin',(2.6,5.35,1.65));
#2384=CARTESIAN_POINT('',(1.1,5.35,0.));
#2385=CARTESIAN_POINT('',(1.1,5.35,0.));
#2386=CARTESIAN_POINT('Origin',(2.6,5.35,0.));
#2387=CARTESIAN_POINT('Origin',(22.4,7.95,0.));
#2388=CARTESIAN_POINT('',(22.4,7.95,1.65));
#2389=CARTESIAN_POINT('',(20.35,7.95,1.65));
#2390=CARTESIAN_POINT('',(22.4,7.95,0.));
#2391=CARTESIAN_POINT('',(22.4,7.95,0.));
#2392=CARTESIAN_POINT('',(20.35,7.95,0.));
#2393=CARTESIAN_POINT('Origin',(22.4,5.35,0.));
#2394=CARTESIAN_POINT('Origin',(22.4,5.35,0.));
#2395=CARTESIAN_POINT('Origin',(22.4,5.35,1.65));
#2396=CARTESIAN_POINT('Origin',(20.35,0.,0.));
#2397=CARTESIAN_POINT('',(20.35,0.,1.65));
#2398=CARTESIAN_POINT('',(20.35,2.75,1.65));
#2399=CARTESIAN_POINT('',(20.35,0.,0.));
#2400=CARTESIAN_POINT('',(20.35,0.,0.));
#2401=CARTESIAN_POINT('',(20.35,2.75,0.));
#2402=CARTESIAN_POINT('Origin',(4.65,0.,0.));
#2403=CARTESIAN_POINT('',(4.65,0.,0.));
#2404=CARTESIAN_POINT('',(4.65,0.,1.65));
#2405=CARTESIAN_POINT('Origin',(2.6,2.75,0.));
#2406=CARTESIAN_POINT('',(2.6,2.75,1.65));
#2407=CARTESIAN_POINT('',(4.65,2.75,1.65));
#2408=CARTESIAN_POINT('',(2.6,2.75,0.));
#2409=CARTESIAN_POINT('',(2.6,2.75,0.));
#2410=CARTESIAN_POINT('',(4.65,2.75,0.));
#2411=CARTESIAN_POINT('Origin',(2.6,5.35,0.));
#2412=CARTESIAN_POINT('Origin',(2.6,5.35,0.));
#2413=CARTESIAN_POINT('Origin',(2.6,5.35,1.65));
#2414=CARTESIAN_POINT('Origin',(4.65,10.7,0.));
#2415=CARTESIAN_POINT('',(4.65,10.7,1.65));
#2416=CARTESIAN_POINT('',(4.65,7.95,1.65));
#2417=CARTESIAN_POINT('',(4.65,10.7,0.));
#2418=CARTESIAN_POINT('',(4.65,10.7,0.));
#2419=CARTESIAN_POINT('',(4.65,7.95,0.));
#2420=CARTESIAN_POINT('Origin',(20.35,10.7,0.));
#2421=CARTESIAN_POINT('',(20.35,10.7,0.));
#2422=CARTESIAN_POINT('',(20.35,10.7,1.65));
#2423=CARTESIAN_POINT('Origin',(12.5,5.35,1.65));
#2424=CARTESIAN_POINT('Origin',(12.5,5.35,0.));
#2425=CARTESIAN_POINT('',(0.,0.,0.));
#2426=UNCERTAINTY_MEASURE_WITH_UNIT(LENGTH_MEASURE(0.01),#2432,
'DISTANCE_ACCURACY_VALUE',
'Maximum model space distance between geometric entities at asserted c
onnectivities');
#2427=UNCERTAINTY_MEASURE_WITH_UNIT(LENGTH_MEASURE(0.01),#2432,
'DISTANCE_ACCURACY_VALUE',
'Maximum model space distance between geometric entities at asserted c
onnectivities');
#2428=UNCERTAINTY_MEASURE_WITH_UNIT(LENGTH_MEASURE(0.01),#2432,
'DISTANCE_ACCURACY_VALUE',
'Maximum model space distance between geometric entities at asserted c
onnectivities');
#2429=(
GEOMETRIC_REPRESENTATION_CONTEXT(3)
GLOBAL_UNCERTAINTY_ASSIGNED_CONTEXT((#2426))
GLOBAL_UNIT_ASSIGNED_CONTEXT((#2432,#2434,#2435))
REPRESENTATION_CONTEXT('','3D')
);
#2430=(
GEOMETRIC_REPRESENTATION_CONTEXT(3)
GLOBAL_UNCERTAINTY_ASSIGNED_CONTEXT((#2427))
GLOBAL_UNIT_ASSIGNED_CONTEXT((#2432,#2434,#2435))
REPRESENTATION_CONTEXT('','3D')
);
#2431=(
GEOMETRIC_REPRESENTATION_CONTEXT(3)
GLOBAL_UNCERTAINTY_ASSIGNED_CONTEXT((#2428))
GLOBAL_UNIT_ASSIGNED_CONTEXT((#2432,#2434,#2435))
REPRESENTATION_CONTEXT('','3D')
);
#2432=(
LENGTH_UNIT()
NAMED_UNIT(*)
SI_UNIT(.MILLI.,.METRE.)
);
#2433=(
LENGTH_UNIT()
NAMED_UNIT(*)
SI_UNIT($,.METRE.)
);
#2434=(
NAMED_UNIT(*)
PLANE_ANGLE_UNIT()
SI_UNIT($,.RADIAN.)
);
#2435=(
NAMED_UNIT(*)
SI_UNIT($,.STERADIAN.)
SOLID_ANGLE_UNIT()
);
#2436=SHAPE_DEFINITION_REPRESENTATION(#2438,#2441);
#2437=SHAPE_DEFINITION_REPRESENTATION(#2439,#2442);
#2438=PRODUCT_DEFINITION_SHAPE('',$,#2444);
#2439=PRODUCT_DEFINITION_SHAPE('',$,#2445);
#2440=PRODUCT_DEFINITION_SHAPE($,$,#14);
#2441=SHAPE_REPRESENTATION('',(#1502,#1618),#2429);
#2442=SHAPE_REPRESENTATION('',(#1503),#2430);
#2443=PRODUCT_DEFINITION_CONTEXT('part definition',#2451,'design');
#2444=PRODUCT_DEFINITION('LaserSensor','LaserSensor',#2446,#2443);
#2445=PRODUCT_DEFINITION('Components','Components',#2447,#2443);
#2446=PRODUCT_DEFINITION_FORMATION('',$,#2453);
#2447=PRODUCT_DEFINITION_FORMATION('',$,#2454);
#2448=PRODUCT_RELATED_PRODUCT_CATEGORY('LaserSensor','LaserSensor',(#2453));
#2449=PRODUCT_RELATED_PRODUCT_CATEGORY('Components','Components',(#2454));
#2450=APPLICATION_PROTOCOL_DEFINITION('international standard',
'automotive_design',2009,#2451);
#2451=APPLICATION_CONTEXT(
'Core Data for Automotive Mechanical Design Process');
#2452=PRODUCT_CONTEXT('part definition',#2451,'mechanical');
#2453=PRODUCT('LaserSensor','LaserSensor',$,(#2452));
#2454=PRODUCT('Components','Components',$,(#2452));
#2455=PRESENTATION_STYLE_ASSIGNMENT((#2460));
#2456=PRESENTATION_STYLE_ASSIGNMENT((#2461));
#2457=PRESENTATION_STYLE_ASSIGNMENT((#2462));
#2458=PRESENTATION_STYLE_ASSIGNMENT((#2463));
#2459=PRESENTATION_STYLE_ASSIGNMENT((#2464));
#2460=SURFACE_STYLE_USAGE(.BOTH.,#2465);
#2461=SURFACE_STYLE_USAGE(.BOTH.,#2466);
#2462=SURFACE_STYLE_USAGE(.BOTH.,#2467);
#2463=SURFACE_STYLE_USAGE(.BOTH.,#2468);
#2464=SURFACE_STYLE_USAGE(.BOTH.,#2469);
#2465=SURFACE_SIDE_STYLE('',(#2470));
#2466=SURFACE_SIDE_STYLE('',(#2471));
#2467=SURFACE_SIDE_STYLE('',(#2472));
#2468=SURFACE_SIDE_STYLE('',(#2473));
#2469=SURFACE_SIDE_STYLE('',(#2474));
#2470=SURFACE_STYLE_FILL_AREA(#2475);
#2471=SURFACE_STYLE_FILL_AREA(#2476);
#2472=SURFACE_STYLE_FILL_AREA(#2477);
#2473=SURFACE_STYLE_FILL_AREA(#2478);
#2474=SURFACE_STYLE_FILL_AREA(#2479);
#2475=FILL_AREA_STYLE('Stahl - satiniert',(#2480));
#2476=FILL_AREA_STYLE('FR4',(#2481));
#2477=FILL_AREA_STYLE('Gold - poliert',(#2482));
#2478=FILL_AREA_STYLE('Kunststoff - matt (Schwarz)',(#2483));
#2479=FILL_AREA_STYLE('PEEK',(#2484));
#2480=FILL_AREA_STYLE_COLOUR('Stahl - satiniert',#2485);
#2481=FILL_AREA_STYLE_COLOUR('FR4',#2486);
#2482=FILL_AREA_STYLE_COLOUR('Gold - poliert',#2487);
#2483=FILL_AREA_STYLE_COLOUR('Kunststoff - matt (Schwarz)',#2488);
#2484=FILL_AREA_STYLE_COLOUR('PEEK',#2489);
#2485=COLOUR_RGB('Stahl - satiniert',0.627450980392157,0.627450980392157,
0.627450980392157);
#2486=COLOUR_RGB('FR4',0.266666666666667,0.466666666666667,0.4);
#2487=COLOUR_RGB('Gold - poliert',0.956862745098039,0.898039215686275,0.654901960784314);
#2488=COLOUR_RGB('Kunststoff - matt (Schwarz)',0.0980392156862745,0.0980392156862745,
0.0980392156862745);
#2489=COLOUR_RGB('PEEK',0.6,0.509803921568627,0.368627450980392);
ENDSEC;
END-ISO-10303-21;
